<ttFont>
    <TTGlyph name=".notdef" xMin="96" yMin="0" xMax="1161" yMax="1462">
      <contour>
        <pt x="406" y="1462" on="1"/>
        <pt x="1161" y="1462" on="1"/>
        <pt x="852" y="0" on="1"/>
        <pt x="96" y="0" on="1"/>
      </contour>
      <contour>
        <pt x="205" y="90" on="1"/>
        <pt x="782" y="90" on="1"/>
        <pt x="1055" y="1372" on="1"/>
        <pt x="477" y="1372" on="1"/>
      </contour>
    </TTGlyph>
    <TTGlyph name="A" xMin="-78" yMin="0" xMax="651" yMax="1468">
      <contour>
        <pt x="555" y="0" on="1"/>
        <pt x="555" y="530" on="1"/>
        <pt x="248" y="530" on="1"/>
        <pt x="27" y="0" on="1"/>
        <pt x="-78" y="0" on="1"/>
        <pt x="528" y="1468" on="1"/>
        <pt x="651" y="1468" on="1"/>
        <pt x="651" y="0" on="1"/>
      </contour>
      <contour>
        <pt x="555" y="629" on="1"/>
        <pt x="555" y="999" on="1"/>
        <pt x="561" y="1354" on="1"/>
        <pt x="546" y="1302" on="0"/>
        <pt x="472" y="1102" on="0"/>
        <pt x="283" y="629" on="1"/>
      </contour>
    </TTGlyph>
    <TTGlyph name="AE" xMin="-76" yMin="0" xMax="1180" yMax="1462">
      <contour>
        <pt x="870" y="0" on="1"/>
        <pt x="393" y="0" on="1"/>
        <pt x="506" y="530" on="1"/>
        <pt x="270" y="530" on="1"/>
        <pt x="25" y="0" on="1"/>
        <pt x="-76" y="0" on="1"/>
        <pt x="608" y="1462" on="1"/>
        <pt x="1180" y="1462" on="1"/>
        <pt x="1159" y="1366" on="1"/>
        <pt x="782" y="1366" on="1"/>
        <pt x="666" y="813" on="1"/>
        <pt x="1022" y="813" on="1"/>
        <pt x="1001" y="719" on="1"/>
        <pt x="645" y="719" on="1"/>
        <pt x="512" y="94" on="1"/>
        <pt x="889" y="94" on="1"/>
      </contour>
      <contour>
        <pt x="313" y="629" on="1"/>
        <pt x="526" y="629" on="1"/>
        <pt x="682" y="1364" on="1"/>
        <pt x="653" y="1364" on="1"/>
      </contour>
    </TTGlyph>
    <TTGlyph name="AEacute" xMin="-76" yMin="0" xMax="1180" yMax="1907">
      <component glyphName="AE" x="0" y="0" flags="0x204"/>
      <component glyphName="acute" x="287" y="338" flags="0x4"/>
    </TTGlyph>
    <TTGlyph name="Aacute" xMin="-78" yMin="0" xMax="882" yMax="1907">
      <component glyphName="A" x="0" y="0" flags="0x204"/>
      <component glyphName="acute" x="20" y="338" flags="0x4"/>
    </TTGlyph>
    <TTGlyph name="Abreve" xMin="-78" yMin="0" xMax="833" yMax="1817">
      <component glyphName="A" x="0" y="0" flags="0x204"/>
      <component glyphName="breve" x="-50" y="338" flags="0x4"/>
    </TTGlyph>
    <TTGlyph name="Acircumflex" xMin="-78" yMin="0" xMax="814" yMax="1907">
      <component glyphName="A" x="0" y="0" flags="0x204"/>
      <component glyphName="circumflex" x="-40" y="338" flags="0x4"/>
    </TTGlyph>
    <TTGlyph name="Adieresis" xMin="-78" yMin="0" xMax="824" yMax="1813">
      <component glyphName="A" x="0" y="0" flags="0x204"/>
      <component glyphName="dieresis" x="-30" y="338" flags="0x4"/>
    </TTGlyph>
    <TTGlyph name="Agrave" xMin="-78" yMin="0" xMax="679" yMax="1907">
      <component glyphName="A" x="0" y="0" flags="0x204"/>
      <component glyphName="grave" x="-103" y="338" flags="0x4"/>
    </TTGlyph>
    <TTGlyph name="Alpha" xMin="-78" yMin="0" xMax="651" yMax="1468">
      <component glyphName="A" x="0" y="0" flags="0x204"/>
    </TTGlyph>
    <TTGlyph name="Alphatonos" xMin="-78" yMin="0" xMax="651" yMax="1578">
      <component glyphName="A" x="0" y="0" flags="0x204"/>
      <component glyphName="tonos" x="-441" y="-32" flags="0x4"/>
    </TTGlyph>
    <TTGlyph name="Amacron" xMin="-78" yMin="0" xMax="878" yMax="1671">
      <component glyphName="A" x="0" y="0" flags="0x204"/>
      <component glyphName="macron" x="-17" y="338" flags="0x4"/>
    </TTGlyph>
    <TTGlyph name="Aogonek" xMin="-78" yMin="-446" xMax="651" yMax="1468">
      <component glyphName="A" x="0" y="0" flags="0x204"/>
      <component glyphName="ogonek" x="352" y="0" flags="0x4"/>
    </TTGlyph>
    <TTGlyph name="Aring" xMin="-78" yMin="0" xMax="781" yMax="1780">
      <component glyphName="A" x="0" y="0" flags="0x204"/>
      <component glyphName="ring" x="-87" y="156" flags="0x4"/>
    </TTGlyph>
    <TTGlyph name="Aringacute" xMin="-68" yMin="0" xMax="860" yMax="1937">
      <contour>
        <pt x="745" y="1395" on="1"/>
        <pt x="745" y="1323" on="0"/>
        <pt x="676" y="1229" on="0"/>
        <pt x="616" y="1212" on="1"/>
        <pt x="664" y="0" on="1"/>
        <pt x="567" y="0" on="1"/>
        <pt x="547" y="530" on="1"/>
        <pt x="260" y="530" on="1"/>
        <pt x="39" y="0" on="1"/>
        <pt x="-68" y="0" on="1"/>
        <pt x="455" y="1225" on="1"/>
        <pt x="365" y="1272" on="0"/>
        <pt x="365" y="1391" on="1"/>
        <pt x="365" y="1476" on="0"/>
        <pt x="465" y="1577" on="0"/>
        <pt x="555" y="1577" on="1"/>
        <pt x="639" y="1577" on="0"/>
        <pt x="745" y="1475" on="0"/>
      </contour>
      <contour>
        <pt x="547" y="629" on="1"/>
        <pt x="535" y="1198" on="1"/>
        <pt x="297" y="629" on="1"/>
      </contour>
      <contour>
        <pt x="670" y="1391" on="1"/>
        <pt x="670" y="1442" on="0"/>
        <pt x="609" y="1507" on="0"/>
        <pt x="555" y="1507" on="1"/>
        <pt x="501" y="1507" on="0"/>
        <pt x="440" y="1442" on="0"/>
        <pt x="440" y="1391" on="1"/>
        <pt x="440" y="1338" on="0"/>
        <pt x="496" y="1276" on="0"/>
        <pt x="555" y="1276" on="1"/>
        <pt x="606" y="1276" on="0"/>
        <pt x="670" y="1338" on="0"/>
      </contour>
      <contour>
        <pt x="518" y="1640" on="1"/>
        <pt x="518" y="1657" on="1"/>
        <pt x="566" y="1716" on="0"/>
        <pt x="674" y="1854" on="0"/>
        <pt x="721" y="1937" on="1"/>
        <pt x="860" y="1937" on="1"/>
        <pt x="860" y="1921" on="1"/>
        <pt x="807" y="1852" on="0"/>
        <pt x="644" y="1696" on="0"/>
        <pt x="569" y="1640" on="1"/>
      </contour>
    </TTGlyph>
    <TTGlyph name="Atilde" xMin="-78" yMin="0" xMax="896" yMax="1821">
      <component glyphName="A" x="0" y="0" flags="0x204"/>
      <component glyphName="tilde" x="-46" y="338" flags="0x4"/>
    </TTGlyph>
    <TTGlyph name="B" xMin="66" yMin="0" xMax="887" yMax="1462">
      <contour>
        <pt x="375" y="1462" on="1"/>
        <pt x="600" y="1462" on="1"/>
        <pt x="730" y="1462" on="0"/>
        <pt x="887" y="1312" on="0"/>
        <pt x="887" y="1188" on="1"/>
        <pt x="887" y="1021" on="0"/>
        <pt x="738" y="797" on="0"/>
        <pt x="608" y="772" on="1"/>
        <pt x="606" y="766" on="1"/>
        <pt x="679" y="747" on="0"/>
        <pt x="770" y="606" on="0"/>
        <pt x="770" y="510" on="1"/>
        <pt x="770" y="359" on="0"/>
        <pt x="668" y="127" on="0"/>
        <pt x="474" y="0" on="0"/>
        <pt x="338" y="0" on="1"/>
        <pt x="66" y="0" on="1"/>
      </contour>
      <contour>
        <pt x="336" y="813" on="1"/>
        <pt x="483" y="813" on="1"/>
        <pt x="573" y="813" on="0"/>
        <pt x="709" y="905" on="0"/>
        <pt x="784" y="1072" on="0"/>
        <pt x="784" y="1176" on="1"/>
        <pt x="784" y="1273" on="0"/>
        <pt x="682" y="1366" on="0"/>
        <pt x="578" y="1366" on="1"/>
        <pt x="455" y="1366" on="1"/>
      </contour>
      <contour>
        <pt x="317" y="719" on="1"/>
        <pt x="184" y="94" on="1"/>
        <pt x="342" y="94" on="1"/>
        <pt x="496" y="94" on="0"/>
        <pt x="668" y="309" on="0"/>
        <pt x="668" y="494" on="1"/>
        <pt x="668" y="598" on="0"/>
        <pt x="566" y="719" on="0"/>
        <pt x="475" y="719" on="1"/>
      </contour>
    </TTGlyph>
    <TTGlyph name="Beta" xMin="66" yMin="0" xMax="887" yMax="1462">
      <component glyphName="B" x="0" y="0" flags="0x204"/>
    </TTGlyph>
    <TTGlyph name="C" xMin="135" yMin="-20" xMax="946" yMax="1485">
      <contour>
        <pt x="739" y="1389" on="1"/>
        <pt x="609" y="1389" on="0"/>
        <pt x="378" y="1131" on="0"/>
        <pt x="233" y="678" on="0"/>
        <pt x="233" y="467" on="1"/>
        <pt x="233" y="263" on="0"/>
        <pt x="336" y="72" on="0"/>
        <pt x="457" y="72" on="1"/>
        <pt x="533" y="72" on="0"/>
        <pt x="629" y="111" on="1"/>
        <pt x="629" y="16" on="1"/>
        <pt x="535" y="-20" on="0"/>
        <pt x="442" y="-20" on="1"/>
        <pt x="289" y="-20" on="0"/>
        <pt x="135" y="211" on="0"/>
        <pt x="135" y="449" on="1"/>
        <pt x="135" y="705" on="0"/>
        <pt x="306" y="1202" on="0"/>
        <pt x="587" y="1485" on="0"/>
        <pt x="750" y="1485" on="1"/>
        <pt x="872" y="1485" on="0"/>
        <pt x="946" y="1423" on="1"/>
        <pt x="885" y="1337" on="1"/>
        <pt x="825" y="1389" on="0"/>
      </contour>
    </TTGlyph>
    <TTGlyph name="Cacute" xMin="135" yMin="-20" xMax="948" yMax="1907">
      <component glyphName="C" x="0" y="0" flags="0x204"/>
      <component glyphName="acute" x="86" y="338" flags="0x4"/>
    </TTGlyph>
    <TTGlyph name="Ccaron" xMin="135" yMin="-20" xMax="1053" yMax="1907">
      <component glyphName="C" x="0" y="0" flags="0x204"/>
      <component glyphName="caron" x="131" y="338" flags="0x4"/>
    </TTGlyph>
    <TTGlyph name="Ccedilla" xMin="135" yMin="-492" xMax="946" yMax="1485">
      <component glyphName="C" x="0" y="0" flags="0x204"/>
      <component glyphName="cedilla" x="190" y="0" flags="0x4"/>
    </TTGlyph>
    <TTGlyph name="Ccircumflex" xMin="135" yMin="-20" xMax="946" yMax="1907">
      <component glyphName="C" x="0" y="0" flags="0x204"/>
      <component glyphName="circumflex" x="90" y="338" flags="0x4"/>
    </TTGlyph>
    <TTGlyph name="Cdot" xMin="135" yMin="-20" xMax="946" yMax="1829">
      <component glyphName="C" x="0" y="0" flags="0x204"/>
      <component glyphName="dotaccent" x="422" y="348" flags="0x4"/>
    </TTGlyph>
    <TTGlyph name="Chi" xMin="-57" yMin="0" xMax="856" yMax="1462">
      <component glyphName="X" x="0" y="0" flags="0x204"/>
    </TTGlyph>
    <TTGlyph name="D" xMin="66" yMin="0" xMax="913" yMax="1462">
      <contour>
        <pt x="913" y="1047" on="1"/>
        <pt x="913" y="747" on="0"/>
        <pt x="748" y="258" on="0"/>
        <pt x="453" y="0" on="0"/>
        <pt x="256" y="0" on="1"/>
        <pt x="66" y="0" on="1"/>
        <pt x="375" y="1462" on="1"/>
        <pt x="592" y="1462" on="1"/>
        <pt x="746" y="1462" on="0"/>
        <pt x="913" y="1252" on="0"/>
      </contour>
      <contour>
        <pt x="276" y="94" on="1"/>
        <pt x="427" y="94" on="0"/>
        <pt x="666" y="326" on="0"/>
        <pt x="809" y="784" on="0"/>
        <pt x="809" y="1047" on="1"/>
        <pt x="809" y="1366" on="0"/>
        <pt x="578" y="1366" on="1"/>
        <pt x="455" y="1366" on="1"/>
        <pt x="184" y="94" on="1"/>
      </contour>
    </TTGlyph>
    <TTGlyph name="Dcaron" xMin="66" yMin="0" xMax="928" yMax="1907">
      <component glyphName="D" x="0" y="0" flags="0x204"/>
      <component glyphName="caron" x="6" y="338" flags="0x4"/>
    </TTGlyph>
    <TTGlyph name="Dcroat" xMin="66" yMin="0" xMax="913" yMax="1462">
      <component glyphName="Eth" x="0" y="0" flags="0x204"/>
    </TTGlyph>
    <TTGlyph name="Delta" xMin="-37" yMin="0" xMax="651" yMax="1468">
      <contour>
        <pt x="651" y="92" on="1"/>
        <pt x="635" y="0" on="1"/>
        <pt x="-25" y="0" on="1"/>
        <pt x="-37" y="98" on="1"/>
        <pt x="528" y="1468" on="1"/>
        <pt x="651" y="1468" on="1"/>
      </contour>
      <contour>
        <pt x="66" y="98" on="1"/>
        <pt x="557" y="98" on="1"/>
        <pt x="557" y="999" on="1"/>
        <pt x="561" y="1354" on="1"/>
        <pt x="540" y="1279" on="0"/>
        <pt x="434" y="1001" on="1"/>
      </contour>
    </TTGlyph>
    <TTGlyph name="E" xMin="66" yMin="0" xMax="852" yMax="1462">
      <contour>
        <pt x="543" y="0" on="1"/>
        <pt x="66" y="0" on="1"/>
        <pt x="375" y="1462" on="1"/>
        <pt x="852" y="1462" on="1"/>
        <pt x="831" y="1366" on="1"/>
        <pt x="455" y="1366" on="1"/>
        <pt x="338" y="813" on="1"/>
        <pt x="692" y="813" on="1"/>
        <pt x="672" y="719" on="1"/>
        <pt x="317" y="719" on="1"/>
        <pt x="184" y="94" on="1"/>
        <pt x="561" y="94" on="1"/>
      </contour>
    </TTGlyph>
    <TTGlyph name="Eacute" xMin="66" yMin="0" xMax="895" yMax="1907">
      <component glyphName="E" x="0" y="0" flags="0x204"/>
      <component glyphName="acute" x="33" y="338" flags="0x4"/>
    </TTGlyph>
    <TTGlyph name="Ebreve" xMin="66" yMin="0" xMax="861" yMax="1817">
      <component glyphName="E" x="0" y="0" flags="0x204"/>
      <component glyphName="breve" x="-22" y="338" flags="0x4"/>
    </TTGlyph>
    <TTGlyph name="Ecaron" xMin="66" yMin="0" xMax="911" yMax="1907">
      <component glyphName="E" x="0" y="0" flags="0x204"/>
      <component glyphName="caron" x="-11" y="338" flags="0x4"/>
    </TTGlyph>
    <TTGlyph name="Ecircumflex" xMin="66" yMin="0" xMax="852" yMax="1907">
      <component glyphName="E" x="0" y="0" flags="0x204"/>
      <component glyphName="circumflex" x="-9" y="338" flags="0x4"/>
    </TTGlyph>
    <TTGlyph name="Edieresis" xMin="66" yMin="0" xMax="852" yMax="1813">
      <component glyphName="E" x="0" y="0" flags="0x204"/>
      <component glyphName="dieresis" x="-3" y="338" flags="0x4"/>
    </TTGlyph>
    <TTGlyph name="Edotaccent" xMin="66" yMin="0" xMax="852" yMax="1790">
      <component glyphName="E" x="0" y="0" flags="0x204"/>
      <component glyphName="dotaccent" x="299" y="309" flags="0x4"/>
    </TTGlyph>
    <TTGlyph name="Egrave" xMin="66" yMin="0" xMax="852" yMax="1907">
      <component glyphName="E" x="0" y="0" flags="0x204"/>
      <component glyphName="grave" x="-97" y="338" flags="0x4"/>
    </TTGlyph>
    <TTGlyph name="Emacron" xMin="66" yMin="0" xMax="901" yMax="1671">
      <component glyphName="E" x="0" y="0" flags="0x204"/>
      <component glyphName="macron" x="6" y="338" flags="0x4"/>
    </TTGlyph>
    <TTGlyph name="Eng" xMin="66" yMin="-365" xMax="1069" yMax="1462">
      <contour>
        <pt x="477" y="-365" on="1"/>
        <pt x="450" y="-365" on="0"/>
        <pt x="376" y="-347" on="0"/>
        <pt x="365" y="-336" on="1"/>
        <pt x="385" y="-240" on="1"/>
        <pt x="424" y="-262" on="0"/>
        <pt x="487" y="-262" on="1"/>
        <pt x="552" y="-262" on="0"/>
        <pt x="629" y="-148" on="0"/>
        <pt x="645" y="-25" on="1"/>
        <pt x="438" y="1311" on="1"/>
        <pt x="430" y="1311" on="1"/>
        <pt x="416" y="1196" on="0"/>
        <pt x="385" y="1049" on="1"/>
        <pt x="164" y="0" on="1"/>
        <pt x="66" y="0" on="1"/>
        <pt x="375" y="1462" on="1"/>
        <pt x="506" y="1462" on="1"/>
        <pt x="698" y="172" on="1"/>
        <pt x="705" y="172" on="1"/>
        <pt x="715" y="240" on="0"/>
        <pt x="763" y="492" on="0"/>
        <pt x="971" y="1462" on="1"/>
        <pt x="1069" y="1462" on="1"/>
        <pt x="760" y="0" on="1"/>
        <pt x="723" y="-167" on="0"/>
        <pt x="657" y="-306" on="0"/>
        <pt x="560" y="-365" on="0"/>
      </contour>
    </TTGlyph>
    <TTGlyph name="Eogonek" xMin="66" yMin="-446" xMax="852" yMax="1462">
      <component glyphName="E" x="0" y="0" flags="0x204"/>
      <component glyphName="ogonek" x="186" y="0" flags="0x4"/>
    </TTGlyph>
    <TTGlyph name="Epsilon" xMin="66" yMin="0" xMax="852" yMax="1462">
      <component glyphName="E" x="0" y="0" flags="0x204"/>
    </TTGlyph>
    <TTGlyph name="Epsilontonos" xMin="139" yMin="0" xMax="971" yMax="1578">
      <component glyphName="E" x="119" y="0" flags="0x4"/>
      <component glyphName="tonos" x="-439" y="-32" flags="0x4"/>
    </TTGlyph>
    <TTGlyph name="Eta" xMin="66" yMin="0" xMax="1012" yMax="1462">
      <component glyphName="H" x="0" y="0" flags="0x204"/>
    </TTGlyph>
    <TTGlyph name="Etatonos" xMin="133" yMin="0" xMax="1135" yMax="1578">
      <component glyphName="H" x="123" y="0" flags="0x4"/>
      <component glyphName="tonos" x="-445" y="-32" flags="0x4"/>
    </TTGlyph>
    <TTGlyph name="Eth" xMin="66" yMin="0" xMax="913" yMax="1462">
      <contour>
        <pt x="913" y="1047" on="1"/>
        <pt x="913" y="747" on="0"/>
        <pt x="748" y="258" on="0"/>
        <pt x="453" y="0" on="0"/>
        <pt x="256" y="0" on="1"/>
        <pt x="66" y="0" on="1"/>
        <pt x="215" y="715" on="1"/>
        <pt x="127" y="715" on="1"/>
        <pt x="145" y="807" on="1"/>
        <pt x="233" y="807" on="1"/>
        <pt x="375" y="1462" on="1"/>
        <pt x="592" y="1462" on="1"/>
        <pt x="746" y="1462" on="0"/>
        <pt x="913" y="1252" on="0"/>
      </contour>
      <contour>
        <pt x="276" y="94" on="1"/>
        <pt x="427" y="94" on="0"/>
        <pt x="666" y="326" on="0"/>
        <pt x="809" y="784" on="0"/>
        <pt x="809" y="1047" on="1"/>
        <pt x="809" y="1366" on="0"/>
        <pt x="578" y="1366" on="1"/>
        <pt x="455" y="1366" on="1"/>
        <pt x="334" y="807" on="1"/>
        <pt x="524" y="807" on="1"/>
        <pt x="506" y="715" on="1"/>
        <pt x="313" y="715" on="1"/>
        <pt x="184" y="94" on="1"/>
      </contour>
    </TTGlyph>
    <TTGlyph name="Euro" xMin="43" yMin="-20" xMax="915" yMax="1485">
      <contour>
        <pt x="729" y="1389" on="1"/>
        <pt x="607" y="1389" on="0"/>
        <pt x="396" y="1127" on="0"/>
        <pt x="332" y="899" on="1"/>
        <pt x="655" y="899" on="1"/>
        <pt x="637" y="817" on="1"/>
        <pt x="311" y="817" on="1"/>
        <pt x="294" y="745" on="0"/>
        <pt x="276" y="616" on="1"/>
        <pt x="567" y="616" on="1"/>
        <pt x="549" y="535" on="1"/>
        <pt x="270" y="535" on="1"/>
        <pt x="270" y="467" on="1"/>
        <pt x="270" y="254" on="0"/>
        <pt x="362" y="72" on="0"/>
        <pt x="467" y="72" on="1"/>
        <pt x="558" y="72" on="0"/>
        <pt x="625" y="111" on="1"/>
        <pt x="641" y="20" on="1"/>
        <pt x="563" y="-20" on="0"/>
        <pt x="446" y="-20" on="1"/>
        <pt x="309" y="-20" on="0"/>
        <pt x="172" y="220" on="0"/>
        <pt x="172" y="449" on="1"/>
        <pt x="174" y="535" on="1"/>
        <pt x="43" y="535" on="1"/>
        <pt x="61" y="616" on="1"/>
        <pt x="180" y="616" on="1"/>
        <pt x="191" y="728" on="0"/>
        <pt x="211" y="817" on="1"/>
        <pt x="102" y="817" on="1"/>
        <pt x="121" y="899" on="1"/>
        <pt x="231" y="899" on="1"/>
        <pt x="304" y="1170" on="0"/>
        <pt x="575" y="1485" on="0"/>
        <pt x="735" y="1485" on="1"/>
        <pt x="851" y="1485" on="0"/>
        <pt x="915" y="1423" on="1"/>
        <pt x="860" y="1337" on="1"/>
        <pt x="808" y="1389" on="0"/>
      </contour>
    </TTGlyph>
    <TTGlyph name="F" xMin="66" yMin="0" xMax="854" yMax="1462">
      <contour>
        <pt x="166" y="0" on="1"/>
        <pt x="66" y="0" on="1"/>
        <pt x="375" y="1462" on="1"/>
        <pt x="854" y="1462" on="1"/>
        <pt x="834" y="1366" on="1"/>
        <pt x="455" y="1366" on="1"/>
        <pt x="326" y="752" on="1"/>
        <pt x="682" y="752" on="1"/>
        <pt x="662" y="657" on="1"/>
        <pt x="305" y="657" on="1"/>
      </contour>
    </TTGlyph>
    <TTGlyph name="G" xMin="135" yMin="-20" xMax="1065" yMax="1485">
      <contour>
        <pt x="645" y="741" on="1"/>
        <pt x="940" y="741" on="1"/>
        <pt x="788" y="33" on="1"/>
        <pt x="651" y="-20" on="0"/>
        <pt x="500" y="-20" on="1"/>
        <pt x="135" y="-20" on="0"/>
        <pt x="135" y="438" on="1"/>
        <pt x="135" y="622" on="0"/>
        <pt x="237" y="1032" on="0"/>
        <pt x="412" y="1336" on="0"/>
        <pt x="635" y="1485" on="0"/>
        <pt x="764" y="1485" on="1"/>
        <pt x="934" y="1485" on="0"/>
        <pt x="1065" y="1391" on="1"/>
        <pt x="1001" y="1303" on="1"/>
        <pt x="933" y="1353" on="0"/>
        <pt x="820" y="1389" on="0"/>
        <pt x="758" y="1389" on="1"/>
        <pt x="647" y="1389" on="0"/>
        <pt x="460" y="1245" on="0"/>
        <pt x="317" y="972" on="0"/>
        <pt x="233" y="603" on="0"/>
        <pt x="233" y="432" on="1"/>
        <pt x="233" y="241" on="0"/>
        <pt x="370" y="72" on="0"/>
        <pt x="510" y="72" on="1"/>
        <pt x="610" y="72" on="0"/>
        <pt x="702" y="100" on="1"/>
        <pt x="819" y="647" on="1"/>
        <pt x="625" y="647" on="1"/>
      </contour>
    </TTGlyph>
    <TTGlyph name="Gamma" xMin="66" yMin="0" xMax="784" yMax="1462">
      <contour>
        <pt x="784" y="1462" on="1"/>
        <pt x="762" y="1362" on="1"/>
        <pt x="451" y="1362" on="1"/>
        <pt x="164" y="0" on="1"/>
        <pt x="66" y="0" on="1"/>
        <pt x="375" y="1462" on="1"/>
      </contour>
    </TTGlyph>
    <TTGlyph name="Gbreve" xMin="135" yMin="-20" xMax="1065" yMax="1817">
      <component glyphName="G" x="0" y="0" flags="0x204"/>
      <component glyphName="breve" x="137" y="338" flags="0x4"/>
    </TTGlyph>
    <TTGlyph name="Gcircumflex" xMin="135" yMin="-20" xMax="1065" yMax="1907">
      <component glyphName="G" x="0" y="0" flags="0x204"/>
      <component glyphName="circumflex" x="141" y="338" flags="0x4"/>
    </TTGlyph>
    <TTGlyph name="Gcommaaccent" xMin="135" yMin="-453" xMax="1065" yMax="1485">
      <component glyphName="G" x="0" y="0" flags="0x204"/>
      <component glyphName="commaaccent" x="16" y="0" flags="0x4"/>
    </TTGlyph>
    <TTGlyph name="Gdot" xMin="135" yMin="-20" xMax="1065" yMax="1819">
      <component glyphName="G" x="0" y="0" flags="0x204"/>
      <component glyphName="dotaccent" x="465" y="338" flags="0x4"/>
    </TTGlyph>
    <TTGlyph name="H" xMin="66" yMin="0" xMax="1012" yMax="1462">
      <contour>
        <pt x="702" y="0" on="1"/>
        <pt x="604" y="0" on="1"/>
        <pt x="756" y="717" on="1"/>
        <pt x="315" y="717" on="1"/>
        <pt x="164" y="0" on="1"/>
        <pt x="66" y="0" on="1"/>
        <pt x="375" y="1462" on="1"/>
        <pt x="473" y="1462" on="1"/>
        <pt x="336" y="815" on="1"/>
        <pt x="776" y="815" on="1"/>
        <pt x="913" y="1462" on="1"/>
        <pt x="1012" y="1462" on="1"/>
      </contour>
    </TTGlyph>
    <TTGlyph name="Hbar" xMin="66" yMin="0" xMax="1096" yMax="1462">
      <contour>
        <pt x="702" y="0" on="1"/>
        <pt x="602" y="0" on="1"/>
        <pt x="754" y="717" on="1"/>
        <pt x="315" y="717" on="1"/>
        <pt x="164" y="0" on="1"/>
        <pt x="66" y="0" on="1"/>
        <pt x="295" y="1087" on="1"/>
        <pt x="152" y="1087" on="1"/>
        <pt x="172" y="1184" on="1"/>
        <pt x="315" y="1184" on="1"/>
        <pt x="375" y="1462" on="1"/>
        <pt x="473" y="1462" on="1"/>
        <pt x="414" y="1184" on="1"/>
        <pt x="852" y="1184" on="1"/>
        <pt x="911" y="1462" on="1"/>
        <pt x="1012" y="1462" on="1"/>
        <pt x="952" y="1184" on="1"/>
        <pt x="1096" y="1184" on="1"/>
        <pt x="1075" y="1087" on="1"/>
        <pt x="932" y="1087" on="1"/>
      </contour>
      <contour>
        <pt x="774" y="815" on="1"/>
        <pt x="831" y="1087" on="1"/>
        <pt x="393" y="1087" on="1"/>
        <pt x="336" y="815" on="1"/>
      </contour>
    </TTGlyph>
    <TTGlyph name="Hcircumflex" xMin="66" yMin="0" xMax="1012" yMax="1907">
      <component glyphName="H" x="0" y="0" flags="0x204"/>
      <component glyphName="circumflex" x="74" y="338" flags="0x4"/>
    </TTGlyph>
    <TTGlyph name="I" xMin="66" yMin="0" xMax="473" yMax="1462">
      <contour>
        <pt x="66" y="0" on="1"/>
        <pt x="375" y="1462" on="1"/>
        <pt x="473" y="1462" on="1"/>
        <pt x="164" y="0" on="1"/>
      </contour>
    </TTGlyph>
    <TTGlyph name="I.alt" xMin="-23" yMin="0" xMax="602" yMax="1462">
      <contour>
        <pt x="293" y="0" on="1"/>
        <pt x="-23" y="0" on="1"/>
        <pt x="-8" y="76" on="1"/>
        <pt x="102" y="90" on="1"/>
        <pt x="375" y="1370" on="1"/>
        <pt x="268" y="1386" on="1"/>
        <pt x="285" y="1462" on="1"/>
        <pt x="602" y="1462" on="1"/>
        <pt x="586" y="1386" on="1"/>
        <pt x="473" y="1370" on="1"/>
        <pt x="201" y="90" on="1"/>
        <pt x="307" y="76" on="1"/>
      </contour>
    </TTGlyph>
    <TTGlyph name="IJ" xMin="66" yMin="-369" xMax="893" yMax="1462">
      <component glyphName="I" x="0" y="0" flags="0x4"/>
      <component glyphName="J" x="418" y="0" flags="0x4"/>
    </TTGlyph>
    <TTGlyph name="IJ.alt" xMin="-23" yMin="-369" xMax="878" yMax="1462">
      <component glyphName="I.alt" x="0" y="0" flags="0x4"/>
      <component glyphName="J" x="403" y="0" flags="0x4"/>
    </TTGlyph>
    <TTGlyph name="Iacute" xMin="66" yMin="0" xMax="761" yMax="1907">
      <component glyphName="I" x="0" y="0" flags="0x204"/>
      <component glyphName="acute" x="-101" y="338" flags="0x4"/>
    </TTGlyph>
    <TTGlyph name="Iacute.alt" xMin="-23" yMin="0" xMax="757" yMax="1907">
      <component glyphName="I.alt" x="0" y="0" flags="0x204"/>
      <component glyphName="acute" x="-105" y="338" flags="0x4"/>
    </TTGlyph>
    <TTGlyph name="Ibreve" xMin="66" yMin="0" xMax="667" yMax="1817">
      <component glyphName="I" x="0" y="0" flags="0x204"/>
      <component glyphName="breve" x="-216" y="338" flags="0x4"/>
    </TTGlyph>
    <TTGlyph name="Ibreve.alt" xMin="-23" yMin="0" xMax="696" yMax="1817">
      <component glyphName="I.alt" x="0" y="0" flags="0x204"/>
      <component glyphName="breve" x="-187" y="338" flags="0x4"/>
    </TTGlyph>
    <TTGlyph name="Icircumflex" xMin="66" yMin="0" xMax="654" yMax="1907">
      <component glyphName="I" x="0" y="0" flags="0x204"/>
      <component glyphName="circumflex" x="-200" y="338" flags="0x4"/>
    </TTGlyph>
    <TTGlyph name="Icircumflex.alt" xMin="-23" yMin="0" xMax="671" yMax="1907">
      <component glyphName="I.alt" x="0" y="0" flags="0x204"/>
      <component glyphName="circumflex" x="-183" y="338" flags="0x4"/>
    </TTGlyph>
    <TTGlyph name="Idieresis" xMin="66" yMin="0" xMax="656" yMax="1813">
      <component glyphName="I" x="0" y="0" flags="0x204"/>
      <component glyphName="dieresis" x="-198" y="338" flags="0x4"/>
    </TTGlyph>
    <TTGlyph name="Idieresis.alt" xMin="-23" yMin="0" xMax="683" yMax="1813">
      <component glyphName="I.alt" x="0" y="0" flags="0x204"/>
      <component glyphName="dieresis" x="-171" y="338" flags="0x4"/>
    </TTGlyph>
    <TTGlyph name="Idotaccent" xMin="66" yMin="0" xMax="532" yMax="1819">
      <component glyphName="I" x="0" y="0" flags="0x204"/>
      <component glyphName="dotaccent" x="98" y="338" flags="0x4"/>
    </TTGlyph>
    <TTGlyph name="Idotaccent.alt" xMin="-23" yMin="0" xMax="602" yMax="1819">
      <component glyphName="I.alt" x="0" y="0" flags="0x204"/>
      <component glyphName="dotaccent" x="127" y="338" flags="0x4"/>
    </TTGlyph>
    <TTGlyph name="Igrave" xMin="66" yMin="0" xMax="473" yMax="1907">
      <component glyphName="I" x="0" y="0" flags="0x204"/>
      <component glyphName="grave" x="-316" y="338" flags="0x4"/>
    </TTGlyph>
    <TTGlyph name="Igrave.alt" xMin="-23" yMin="0" xMax="602" yMax="1907">
      <component glyphName="I.alt" x="0" y="0" flags="0x204"/>
      <component glyphName="grave" x="-280" y="338" flags="0x4"/>
    </TTGlyph>
    <TTGlyph name="Imacron" xMin="66" yMin="0" xMax="693" yMax="1671">
      <component glyphName="I" x="0" y="0" flags="0x204"/>
      <component glyphName="macron" x="-202" y="338" flags="0x4"/>
    </TTGlyph>
    <TTGlyph name="Imacron.alt" xMin="-23" yMin="0" xMax="724" yMax="1671">
      <component glyphName="I.alt" x="0" y="0" flags="0x204"/>
      <component glyphName="macron" x="-171" y="338" flags="0x4"/>
    </TTGlyph>
    <TTGlyph name="Iogonek" xMin="-110" yMin="-446" xMax="473" yMax="1462">
      <component glyphName="I" x="0" y="0" flags="0x204"/>
      <component glyphName="ogonek" x="-124" y="0" flags="0x4"/>
    </TTGlyph>
    <TTGlyph name="Iogonek.alt" xMin="-67" yMin="-446" xMax="602" yMax="1462">
      <component glyphName="I.alt" x="0" y="0" flags="0x204"/>
      <component glyphName="ogonek" x="-81" y="0" flags="0x4"/>
    </TTGlyph>
    <TTGlyph name="Iota" xMin="66" yMin="0" xMax="473" yMax="1462">
      <component glyphName="I" x="0" y="0" flags="0x204"/>
    </TTGlyph>
    <TTGlyph name="Iota.alt" xMin="-23" yMin="0" xMax="602" yMax="1462">
      <component glyphName="I.alt" x="0" y="0" flags="0x204"/>
    </TTGlyph>
    <TTGlyph name="Iotadieresis" xMin="66" yMin="0" xMax="656" yMax="1813">
      <component glyphName="I" x="0" y="0" flags="0x204"/>
      <component glyphName="dieresis" x="-198" y="338" flags="0x4"/>
    </TTGlyph>
    <TTGlyph name="Iotadieresis.alt" xMin="-32" yMin="0" xMax="685" yMax="1813">
      <component glyphName="I.alt" x="-9" y="0" flags="0x4"/>
      <component glyphName="dieresis" x="-169" y="338" flags="0x4"/>
    </TTGlyph>
    <TTGlyph name="Iotatonos" xMin="133" yMin="0" xMax="596" yMax="1578">
      <component glyphName="I" x="123" y="0" flags="0x4"/>
      <component glyphName="tonos" x="-445" y="-32" flags="0x4"/>
    </TTGlyph>
    <TTGlyph name="Iotatonos.alt" xMin="139" yMin="0" xMax="803" yMax="1578">
      <component glyphName="I.alt" x="201" y="0" flags="0x4"/>
      <component glyphName="tonos" x="-439" y="-32" flags="0x4"/>
    </TTGlyph>
    <TTGlyph name="Itilde" xMin="66" yMin="0" xMax="722" yMax="1821">
      <component glyphName="I" x="0" y="0" flags="0x204"/>
      <component glyphName="tilde" x="-220" y="338" flags="0x4"/>
    </TTGlyph>
    <TTGlyph name="Itilde.alt" xMin="-23" yMin="0" xMax="757" yMax="1821">
      <component glyphName="I.alt" x="0" y="0" flags="0x204"/>
      <component glyphName="tilde" x="-185" y="338" flags="0x4"/>
    </TTGlyph>
    <TTGlyph name="J" xMin="-227" yMin="-369" xMax="475" yMax="1462">
      <contour>
        <pt x="-113" y="-369" on="1"/>
        <pt x="-183" y="-369" on="0"/>
        <pt x="-227" y="-344" on="1"/>
        <pt x="-199" y="-252" on="1"/>
        <pt x="-157" y="-272" on="0"/>
        <pt x="-109" y="-272" on="1"/>
        <pt x="-41" y="-272" on="0"/>
        <pt x="33" y="-162" on="0"/>
        <pt x="59" y="-35" on="1"/>
        <pt x="377" y="1462" on="1"/>
        <pt x="475" y="1462" on="1"/>
        <pt x="154" y="-57" on="1"/>
        <pt x="120" y="-218" on="0"/>
        <pt x="-8" y="-369" on="0"/>
      </contour>
    </TTGlyph>
    <TTGlyph name="Jcircumflex" xMin="-227" yMin="-369" xMax="654" yMax="1907">
      <component glyphName="J" x="0" y="0" flags="0x204"/>
      <component glyphName="circumflex" x="-200" y="338" flags="0x4"/>
    </TTGlyph>
    <TTGlyph name="K" xMin="66" yMin="0" xMax="948" yMax="1462">
      <contour>
        <pt x="666" y="0" on="1"/>
        <pt x="565" y="0" on="1"/>
        <pt x="416" y="709" on="1"/>
        <pt x="287" y="580" on="1"/>
        <pt x="164" y="0" on="1"/>
        <pt x="66" y="0" on="1"/>
        <pt x="375" y="1462" on="1"/>
        <pt x="473" y="1462" on="1"/>
        <pt x="309" y="688" on="1"/>
        <pt x="432" y="868" on="1"/>
        <pt x="848" y="1462" on="1"/>
        <pt x="948" y="1462" on="1"/>
        <pt x="496" y="795" on="1"/>
      </contour>
    </TTGlyph>
    <TTGlyph name="Kappa" xMin="66" yMin="0" xMax="948" yMax="1462">
      <component glyphName="K" x="0" y="0" flags="0x204"/>
    </TTGlyph>
    <TTGlyph name="Kcommaaccent" xMin="66" yMin="-453" xMax="948" yMax="1462">
      <component glyphName="K" x="0" y="0" flags="0x204"/>
      <component glyphName="commaaccent" x="-130" y="0" flags="0x4"/>
    </TTGlyph>
    <TTGlyph name="L" xMin="66" yMin="0" xMax="543" yMax="1462">
      <contour>
        <pt x="66" y="0" on="1"/>
        <pt x="375" y="1462" on="1"/>
        <pt x="473" y="1462" on="1"/>
        <pt x="184" y="94" on="1"/>
        <pt x="543" y="94" on="1"/>
        <pt x="524" y="0" on="1"/>
      </contour>
    </TTGlyph>
    <TTGlyph name="Lacute" xMin="66" yMin="0" xMax="777" yMax="1907">
      <component glyphName="L" x="0" y="0" flags="0x204"/>
      <component glyphName="acute" x="-85" y="338" flags="0x4"/>
    </TTGlyph>
    <TTGlyph name="Lambda" xMin="-78" yMin="0" xMax="651" yMax="1468">
      <contour>
        <pt x="555" y="999" on="1"/>
        <pt x="561" y="1354" on="1"/>
        <pt x="525" y="1225" on="0"/>
        <pt x="434" y="1001" on="1"/>
        <pt x="29" y="0" on="1"/>
        <pt x="-78" y="0" on="1"/>
        <pt x="528" y="1468" on="1"/>
        <pt x="651" y="1468" on="1"/>
        <pt x="651" y="0" on="1"/>
        <pt x="555" y="0" on="1"/>
      </contour>
    </TTGlyph>
    <TTGlyph name="Lcaron" xMin="66" yMin="0" xMax="801" yMax="1463">
      <component glyphName="L" x="0" y="0" flags="0x204"/>
      <component glyphName="caroncommaaccent" x="88" y="-93" flags="0x4"/>
    </TTGlyph>
    <TTGlyph name="Lcommaaccent" xMin="50" yMin="-453" xMax="543" yMax="1462">
      <component glyphName="L" x="0" y="0" flags="0x204"/>
      <component glyphName="commaaccent" x="-224" y="0" flags="0x4"/>
    </TTGlyph>
    <TTGlyph name="Ldot" xMin="66" yMin="0" xMax="612" yMax="1462">
      <component glyphName="L" x="0" y="0" flags="0x204"/>
      <component glyphName="dotaccent" x="178" y="-638" flags="0x4"/>
    </TTGlyph>
    <TTGlyph name="Lslash" xMin="16" yMin="0" xMax="580" yMax="1462">
      <contour>
        <pt x="66" y="0" on="1"/>
        <pt x="182" y="551" on="1"/>
        <pt x="51" y="475" on="1"/>
        <pt x="16" y="551" on="1"/>
        <pt x="205" y="659" on="1"/>
        <pt x="375" y="1462" on="1"/>
        <pt x="473" y="1462" on="1"/>
        <pt x="317" y="725" on="1"/>
        <pt x="543" y="856" on="1"/>
        <pt x="580" y="780" on="1"/>
        <pt x="293" y="614" on="1"/>
        <pt x="184" y="94" on="1"/>
        <pt x="543" y="94" on="1"/>
        <pt x="524" y="0" on="1"/>
      </contour>
    </TTGlyph>
    <TTGlyph name="M" xMin="66" yMin="0" xMax="1343" yMax="1462">
      <contour>
        <pt x="494" y="0" on="1"/>
        <pt x="442" y="1331" on="1"/>
        <pt x="436" y="1331" on="1"/>
        <pt x="392" y="1091" on="1"/>
        <pt x="162" y="0" on="1"/>
        <pt x="66" y="0" on="1"/>
        <pt x="375" y="1462" on="1"/>
        <pt x="535" y="1462" on="1"/>
        <pt x="569" y="354" on="1"/>
        <pt x="573" y="190" on="1"/>
        <pt x="571" y="102" on="1"/>
        <pt x="573" y="102" on="1"/>
        <pt x="590" y="152" on="0"/>
        <pt x="680" y="352" on="1"/>
        <pt x="1174" y="1462" on="1"/>
        <pt x="1343" y="1462" on="1"/>
        <pt x="1034" y="0" on="1"/>
        <pt x="934" y="0" on="1"/>
        <pt x="1172" y="1122" on="1"/>
        <pt x="1221" y="1329" on="1"/>
        <pt x="1217" y="1329" on="1"/>
        <pt x="621" y="0" on="1"/>
      </contour>
    </TTGlyph>
    <TTGlyph name="Mu" xMin="66" yMin="0" xMax="1343" yMax="1462">
      <component glyphName="M" x="0" y="0" flags="0x204"/>
    </TTGlyph>
    <TTGlyph name="N" xMin="66" yMin="0" xMax="1069" yMax="1462">
      <contour>
        <pt x="760" y="0" on="1"/>
        <pt x="639" y="0" on="1"/>
        <pt x="438" y="1311" on="1"/>
        <pt x="430" y="1311" on="1"/>
        <pt x="416" y="1196" on="0"/>
        <pt x="385" y="1049" on="1"/>
        <pt x="164" y="0" on="1"/>
        <pt x="66" y="0" on="1"/>
        <pt x="375" y="1462" on="1"/>
        <pt x="506" y="1462" on="1"/>
        <pt x="698" y="166" on="1"/>
        <pt x="705" y="166" on="1"/>
        <pt x="719" y="252" on="1"/>
        <pt x="754" y="440" on="1"/>
        <pt x="971" y="1462" on="1"/>
        <pt x="1069" y="1462" on="1"/>
      </contour>
    </TTGlyph>
    <TTGlyph name="Nacute" xMin="66" yMin="0" xMax="1069" yMax="1907">
      <component glyphName="N" x="0" y="0" flags="0x204"/>
      <component glyphName="acute" x="162" y="338" flags="0x4"/>
    </TTGlyph>
    <TTGlyph name="Ncaron" xMin="66" yMin="0" xMax="1069" yMax="1907">
      <component glyphName="N" x="0" y="0" flags="0x204"/>
      <component glyphName="caron" x="88" y="338" flags="0x4"/>
    </TTGlyph>
    <TTGlyph name="Ncommaaccent" xMin="66" yMin="-453" xMax="1069" yMax="1462">
      <component glyphName="N" x="0" y="0" flags="0x204"/>
      <component glyphName="commaaccent" x="-95" y="0" flags="0x4"/>
    </TTGlyph>
    <TTGlyph name="Ntilde" xMin="66" yMin="0" xMax="1069" yMax="1821">
      <component glyphName="N" x="0" y="0" flags="0x204"/>
      <component glyphName="tilde" x="84" y="338" flags="0x4"/>
    </TTGlyph>
    <TTGlyph name="Nu" xMin="66" yMin="0" xMax="1069" yMax="1462">
      <component glyphName="N" x="0" y="0" flags="0x204"/>
    </TTGlyph>
    <TTGlyph name="O" xMin="135" yMin="-20" xMax="977" yMax="1483">
      <contour>
        <pt x="412" y="-20" on="1"/>
        <pt x="135" y="-20" on="0"/>
        <pt x="135" y="379" on="1"/>
        <pt x="135" y="575" on="0"/>
        <pt x="227" y="1011" on="0"/>
        <pt x="384" y="1328" on="0"/>
        <pt x="584" y="1483" on="0"/>
        <pt x="702" y="1483" on="1"/>
        <pt x="977" y="1483" on="0"/>
        <pt x="977" y="1100" on="1"/>
        <pt x="977" y="816" on="0"/>
        <pt x="817" y="270" on="0"/>
        <pt x="563" y="-20" on="0"/>
      </contour>
      <contour>
        <pt x="233" y="377" on="1"/>
        <pt x="233" y="74" on="0"/>
        <pt x="420" y="74" on="1"/>
        <pt x="512" y="74" on="0"/>
        <pt x="675" y="235" on="0"/>
        <pt x="801" y="534" on="0"/>
        <pt x="879" y="934" on="0"/>
        <pt x="879" y="1100" on="1"/>
        <pt x="879" y="1389" on="0"/>
        <pt x="692" y="1389" on="1"/>
        <pt x="601" y="1389" on="0"/>
        <pt x="440" y="1242" on="0"/>
        <pt x="312" y="948" on="0"/>
        <pt x="233" y="542" on="0"/>
      </contour>
    </TTGlyph>
    <TTGlyph name="OE" xMin="135" yMin="-6" xMax="1247" yMax="1468">
      <contour>
        <pt x="938" y="0" on="1"/>
        <pt x="590" y="0" on="1"/>
        <pt x="438" y="-6" on="1"/>
        <pt x="294" y="-6" on="0"/>
        <pt x="135" y="202" on="0"/>
        <pt x="135" y="395" on="1"/>
        <pt x="135" y="652" on="0"/>
        <pt x="287" y="1185" on="0"/>
        <pt x="544" y="1468" on="0"/>
        <pt x="707" y="1468" on="1"/>
        <pt x="895" y="1462" on="1"/>
        <pt x="1247" y="1462" on="1"/>
        <pt x="1227" y="1366" on="1"/>
        <pt x="850" y="1366" on="1"/>
        <pt x="733" y="813" on="1"/>
        <pt x="1087" y="813" on="1"/>
        <pt x="1067" y="719" on="1"/>
        <pt x="713" y="719" on="1"/>
        <pt x="580" y="94" on="1"/>
        <pt x="956" y="94" on="1"/>
      </contour>
      <contour>
        <pt x="750" y="1372" on="1"/>
        <pt x="720" y="1374" on="1"/>
        <pt x="690" y="1374" on="1"/>
        <pt x="594" y="1374" on="0"/>
        <pt x="432" y="1221" on="0"/>
        <pt x="311" y="948" on="0"/>
        <pt x="233" y="562" on="0"/>
        <pt x="233" y="393" on="1"/>
        <pt x="233" y="226" on="0"/>
        <pt x="351" y="86" on="0"/>
        <pt x="479" y="86" on="1"/>
      </contour>
    </TTGlyph>
    <TTGlyph name="Oacute" xMin="135" yMin="-20" xMax="1024" yMax="1907">
      <component glyphName="O" x="0" y="0" flags="0x204"/>
      <component glyphName="acute" x="162" y="338" flags="0x4"/>
    </TTGlyph>
    <TTGlyph name="Obreve" xMin="135" yMin="-20" xMax="977" yMax="1817">
      <component glyphName="O" x="0" y="0" flags="0x204"/>
      <component glyphName="breve" x="74" y="338" flags="0x4"/>
    </TTGlyph>
    <TTGlyph name="Ocircumflex" xMin="135" yMin="-20" xMax="977" yMax="1907">
      <component glyphName="O" x="0" y="0" flags="0x204"/>
      <component glyphName="circumflex" x="74" y="338" flags="0x4"/>
    </TTGlyph>
    <TTGlyph name="Odieresis" xMin="135" yMin="-20" xMax="977" yMax="1813">
      <component glyphName="O" x="0" y="0" flags="0x204"/>
      <component glyphName="dieresis" x="94" y="338" flags="0x4"/>
    </TTGlyph>
    <TTGlyph name="Ograve" xMin="135" yMin="-20" xMax="977" yMax="1907">
      <component glyphName="O" x="0" y="0" flags="0x204"/>
      <component glyphName="grave" x="18" y="338" flags="0x4"/>
    </TTGlyph>
    <TTGlyph name="Ohorn" xMin="135" yMin="-20" xMax="1251" yMax="1556">
      <contour>
        <pt x="412" y="-20" on="1"/>
        <pt x="135" y="-20" on="0"/>
        <pt x="135" y="379" on="1"/>
        <pt x="135" y="575" on="0"/>
        <pt x="227" y="1011" on="0"/>
        <pt x="384" y="1328" on="0"/>
        <pt x="584" y="1483" on="0"/>
        <pt x="702" y="1483" on="1"/>
        <pt x="911" y="1483" on="0"/>
        <pt x="961" y="1255" on="1"/>
        <pt x="1043" y="1284" on="0"/>
        <pt x="1139" y="1436" on="0"/>
        <pt x="1159" y="1556" on="1"/>
        <pt x="1243" y="1556" on="1"/>
        <pt x="1251" y="1530" on="1"/>
        <pt x="1203" y="1265" on="0"/>
        <pt x="973" y="1178" on="1"/>
        <pt x="977" y="1140" on="0"/>
        <pt x="977" y="1100" on="1"/>
        <pt x="977" y="816" on="0"/>
        <pt x="817" y="270" on="0"/>
        <pt x="563" y="-20" on="0"/>
      </contour>
      <contour>
        <pt x="233" y="377" on="1"/>
        <pt x="233" y="74" on="0"/>
        <pt x="420" y="74" on="1"/>
        <pt x="512" y="74" on="0"/>
        <pt x="675" y="235" on="0"/>
        <pt x="801" y="534" on="0"/>
        <pt x="879" y="934" on="0"/>
        <pt x="879" y="1100" on="1"/>
        <pt x="879" y="1389" on="0"/>
        <pt x="692" y="1389" on="1"/>
        <pt x="601" y="1389" on="0"/>
        <pt x="440" y="1242" on="0"/>
        <pt x="312" y="948" on="0"/>
        <pt x="233" y="542" on="0"/>
      </contour>
    </TTGlyph>
    <TTGlyph name="Ohungarumlaut" xMin="135" yMin="-20" xMax="1143" yMax="1907">
      <component glyphName="O" x="0" y="0" flags="0x204"/>
      <component glyphName="hungarumlaut" x="164" y="338" flags="0x4"/>
    </TTGlyph>
    <TTGlyph name="Omacron" xMin="135" yMin="-20" xMax="989" yMax="1671">
      <component glyphName="O" x="0" y="0" flags="0x204"/>
      <component glyphName="macron" x="94" y="338" flags="0x4"/>
    </TTGlyph>
    <TTGlyph name="Omega" xMin="-12" yMin="0" xMax="993" yMax="1483">
      <component glyphName="uni03A9" x="0" y="0" flags="0x204"/>
    </TTGlyph>
    <TTGlyph name="Omegatonos" xMin="80" yMin="0" xMax="1085" yMax="1578">
      <component glyphName="uni03A9" x="92" y="0" flags="0x4"/>
      <component glyphName="tonos" x="-439" y="-32" flags="0x4"/>
    </TTGlyph>
    <TTGlyph name="Omicron" xMin="135" yMin="-20" xMax="977" yMax="1483">
      <component glyphName="O" x="0" y="0" flags="0x204"/>
    </TTGlyph>
    <TTGlyph name="Omicrontonos" xMin="180" yMin="-20" xMax="1069" yMax="1578">
      <component glyphName="O" x="92" y="0" flags="0x4"/>
      <component glyphName="tonos" x="-398" y="-32" flags="0x4"/>
    </TTGlyph>
    <TTGlyph name="Oslash" xMin="23" yMin="-94" xMax="1096" yMax="1546">
      <contour>
        <pt x="412" y="-20" on="1"/>
        <pt x="273" y="-20" on="0"/>
        <pt x="203" y="82" on="1"/>
        <pt x="92" y="-94" on="1"/>
        <pt x="23" y="-53" on="1"/>
        <pt x="162" y="170" on="1"/>
        <pt x="135" y="253" on="0"/>
        <pt x="135" y="379" on="1"/>
        <pt x="135" y="575" on="0"/>
        <pt x="227" y="1011" on="0"/>
        <pt x="384" y="1328" on="0"/>
        <pt x="584" y="1483" on="0"/>
        <pt x="702" y="1483" on="1"/>
        <pt x="847" y="1483" on="0"/>
        <pt x="915" y="1374" on="1"/>
        <pt x="1024" y="1546" on="1"/>
        <pt x="1096" y="1501" on="1"/>
        <pt x="956" y="1280" on="1"/>
        <pt x="977" y="1200" on="0"/>
        <pt x="977" y="1100" on="1"/>
        <pt x="977" y="816" on="0"/>
        <pt x="817" y="270" on="0"/>
        <pt x="563" y="-20" on="0"/>
      </contour>
      <contour>
        <pt x="233" y="377" on="1"/>
        <pt x="233" y="316" on="0"/>
        <pt x="238" y="291" on="1"/>
        <pt x="852" y="1272" on="1"/>
        <pt x="807" y="1389" on="0"/>
        <pt x="692" y="1389" on="1"/>
        <pt x="601" y="1389" on="0"/>
        <pt x="440" y="1242" on="0"/>
        <pt x="312" y="948" on="0"/>
        <pt x="233" y="542" on="0"/>
      </contour>
      <contour>
        <pt x="420" y="74" on="1"/>
        <pt x="512" y="74" on="0"/>
        <pt x="675" y="235" on="0"/>
        <pt x="801" y="534" on="0"/>
        <pt x="879" y="934" on="0"/>
        <pt x="879" y="1100" on="1"/>
        <pt x="877" y="1153" on="1"/>
        <pt x="264" y="180" on="1"/>
        <pt x="309" y="74" on="0"/>
      </contour>
    </TTGlyph>
    <TTGlyph name="Oslashacute" xMin="23" yMin="-94" xMax="1096" yMax="1907">
      <component glyphName="Oslash" x="0" y="0" flags="0x204"/>
      <component glyphName="acute" x="178" y="338" flags="0x4"/>
    </TTGlyph>
    <TTGlyph name="Otilde" xMin="135" yMin="-20" xMax="1005" yMax="1821">
      <component glyphName="O" x="0" y="0" flags="0x204"/>
      <component glyphName="tilde" x="63" y="338" flags="0x4"/>
    </TTGlyph>
    <TTGlyph name="P" xMin="66" yMin="0" xMax="858" yMax="1462">
      <contour>
        <pt x="858" y="1155" on="1"/>
        <pt x="858" y="998" on="0"/>
        <pt x="744" y="746" on="0"/>
        <pt x="530" y="604" on="0"/>
        <pt x="387" y="604" on="1"/>
        <pt x="291" y="604" on="1"/>
        <pt x="164" y="0" on="1"/>
        <pt x="66" y="0" on="1"/>
        <pt x="375" y="1462" on="1"/>
        <pt x="545" y="1462" on="1"/>
        <pt x="690" y="1462" on="0"/>
        <pt x="858" y="1295" on="0"/>
      </contour>
      <contour>
        <pt x="311" y="698" on="1"/>
        <pt x="381" y="698" on="1"/>
        <pt x="559" y="698" on="0"/>
        <pt x="754" y="929" on="0"/>
        <pt x="754" y="1139" on="1"/>
        <pt x="754" y="1246" on="0"/>
        <pt x="637" y="1366" on="0"/>
        <pt x="530" y="1366" on="1"/>
        <pt x="453" y="1366" on="1"/>
      </contour>
    </TTGlyph>
    <TTGlyph name="Phi" xMin="150" yMin="-20" xMax="1083" yMax="1483">
      <contour>
        <pt x="721" y="1483" on="1"/>
        <pt x="817" y="1483" on="1"/>
        <pt x="780" y="1303" on="1"/>
        <pt x="1083" y="1282" on="0"/>
        <pt x="1083" y="918" on="1"/>
        <pt x="1083" y="728" on="0"/>
        <pt x="937" y="389" on="0"/>
        <pt x="696" y="208" on="0"/>
        <pt x="547" y="205" on="1"/>
        <pt x="498" y="-20" on="1"/>
        <pt x="401" y="-20" on="1"/>
        <pt x="451" y="205" on="1"/>
        <pt x="150" y="226" on="0"/>
        <pt x="150" y="592" on="1"/>
        <pt x="150" y="785" on="0"/>
        <pt x="290" y="1116" on="0"/>
        <pt x="530" y="1296" on="0"/>
        <pt x="684" y="1303" on="1"/>
      </contour>
      <contour>
        <pt x="565" y="295" on="1"/>
        <pt x="682" y="297" on="0"/>
        <pt x="867" y="457" on="0"/>
        <pt x="981" y="765" on="0"/>
        <pt x="981" y="932" on="1"/>
        <pt x="981" y="1067" on="0"/>
        <pt x="869" y="1212" on="0"/>
        <pt x="760" y="1212" on="1"/>
      </contour>
      <contour>
        <pt x="664" y="1212" on="1"/>
        <pt x="543" y="1209" on="0"/>
        <pt x="358" y="1052" on="0"/>
        <pt x="250" y="756" on="0"/>
        <pt x="250" y="582" on="1"/>
        <pt x="250" y="306" on="0"/>
        <pt x="469" y="295" on="1"/>
      </contour>
    </TTGlyph>
    <TTGlyph name="Pi" xMin="66" yMin="0" xMax="1012" yMax="1462">
      <contour>
        <pt x="702" y="0" on="1"/>
        <pt x="604" y="0" on="1"/>
        <pt x="895" y="1368" on="1"/>
        <pt x="453" y="1368" on="1"/>
        <pt x="164" y="0" on="1"/>
        <pt x="66" y="0" on="1"/>
        <pt x="375" y="1462" on="1"/>
        <pt x="1012" y="1462" on="1"/>
      </contour>
    </TTGlyph>
    <TTGlyph name="Psi" xMin="215" yMin="0" xMax="1153" yMax="1462">
      <contour>
        <pt x="489" y="0" on="1"/>
        <pt x="391" y="0" on="1"/>
        <pt x="485" y="451" on="1"/>
        <pt x="339" y="462" on="0"/>
        <pt x="215" y="609" on="0"/>
        <pt x="215" y="756" on="1"/>
        <pt x="215" y="861" on="0"/>
        <pt x="246" y="1004" on="1"/>
        <pt x="342" y="1462" on="1"/>
        <pt x="440" y="1462" on="1"/>
        <pt x="344" y="1006" on="1"/>
        <pt x="313" y="855" on="0"/>
        <pt x="313" y="764" on="1"/>
        <pt x="313" y="648" on="0"/>
        <pt x="406" y="545" on="0"/>
        <pt x="506" y="545" on="1"/>
        <pt x="700" y="1462" on="1"/>
        <pt x="799" y="1462" on="1"/>
        <pt x="604" y="545" on="1"/>
        <pt x="706" y="545" on="0"/>
        <pt x="830" y="630" on="0"/>
        <pt x="919" y="824" on="0"/>
        <pt x="958" y="1006" on="1"/>
        <pt x="1055" y="1462" on="1"/>
        <pt x="1153" y="1462" on="1"/>
        <pt x="1051" y="973" on="1"/>
        <pt x="1012" y="784" on="0"/>
        <pt x="891" y="556" on="0"/>
        <pt x="720" y="451" on="0"/>
        <pt x="584" y="451" on="1"/>
      </contour>
    </TTGlyph>
    <TTGlyph name="Q" xMin="135" yMin="-348" xMax="977" yMax="1483">
      <contour>
        <pt x="412" y="-20" on="1"/>
        <pt x="135" y="-20" on="0"/>
        <pt x="135" y="379" on="1"/>
        <pt x="135" y="575" on="0"/>
        <pt x="227" y="1011" on="0"/>
        <pt x="384" y="1328" on="0"/>
        <pt x="584" y="1483" on="0"/>
        <pt x="702" y="1483" on="1"/>
        <pt x="977" y="1483" on="0"/>
        <pt x="977" y="1081" on="1"/>
        <pt x="977" y="849" on="0"/>
        <pt x="857" y="370" on="0"/>
        <pt x="661" y="59" on="0"/>
        <pt x="541" y="8" on="1"/>
        <pt x="655" y="-348" on="1"/>
        <pt x="539" y="-348" on="1"/>
        <pt x="442" y="-18" on="1"/>
      </contour>
      <contour>
        <pt x="233" y="371" on="1"/>
        <pt x="233" y="74" on="0"/>
        <pt x="420" y="74" on="1"/>
        <pt x="544" y="74" on="0"/>
        <pt x="752" y="368" on="0"/>
        <pt x="879" y="882" on="0"/>
        <pt x="879" y="1108" on="1"/>
        <pt x="879" y="1389" on="0"/>
        <pt x="692" y="1389" on="1"/>
        <pt x="565" y="1389" on="0"/>
        <pt x="359" y="1108" on="0"/>
        <pt x="233" y="593" on="0"/>
      </contour>
    </TTGlyph>
    <TTGlyph name="R" xMin="66" yMin="0" xMax="856" yMax="1462">
      <contour>
        <pt x="299" y="639" on="1"/>
        <pt x="164" y="0" on="1"/>
        <pt x="66" y="0" on="1"/>
        <pt x="375" y="1462" on="1"/>
        <pt x="555" y="1462" on="1"/>
        <pt x="695" y="1462" on="0"/>
        <pt x="856" y="1298" on="0"/>
        <pt x="856" y="1153" on="1"/>
        <pt x="856" y="1033" on="0"/>
        <pt x="779" y="817" on="0"/>
        <pt x="637" y="675" on="0"/>
        <pt x="547" y="657" on="1"/>
        <pt x="668" y="0" on="1"/>
        <pt x="561" y="0" on="1"/>
        <pt x="444" y="639" on="1"/>
      </contour>
      <contour>
        <pt x="317" y="729" on="1"/>
        <pt x="422" y="729" on="1"/>
        <pt x="579" y="729" on="0"/>
        <pt x="754" y="946" on="0"/>
        <pt x="754" y="1145" on="1"/>
        <pt x="754" y="1252" on="0"/>
        <pt x="637" y="1366" on="0"/>
        <pt x="530" y="1366" on="1"/>
        <pt x="453" y="1366" on="1"/>
      </contour>
    </TTGlyph>
    <TTGlyph name="Racute" xMin="66" yMin="0" xMax="909" yMax="1907">
      <component glyphName="R" x="0" y="0" flags="0x204"/>
      <component glyphName="acute" x="47" y="338" flags="0x4"/>
    </TTGlyph>
    <TTGlyph name="Rcaron" xMin="66" yMin="0" xMax="913" yMax="1907">
      <component glyphName="R" x="0" y="0" flags="0x204"/>
      <component glyphName="caron" x="-9" y="338" flags="0x4"/>
    </TTGlyph>
    <TTGlyph name="Rcommaaccent" xMin="66" yMin="-453" xMax="856" yMax="1462">
      <component glyphName="R" x="0" y="0" flags="0x204"/>
      <component glyphName="commaaccent" x="-118" y="0" flags="0x4"/>
    </TTGlyph>
    <TTGlyph name="Rho" xMin="66" yMin="0" xMax="858" yMax="1462">
      <component glyphName="P" x="0" y="0" flags="0x204"/>
    </TTGlyph>
    <TTGlyph name="S" xMin="10" yMin="-20" xMax="844" yMax="1483">
      <contour>
        <pt x="655" y="399" on="1"/>
        <pt x="655" y="203" on="0"/>
        <pt x="447" y="-20" on="0"/>
        <pt x="264" y="-20" on="1"/>
        <pt x="185" y="-20" on="0"/>
        <pt x="47" y="14" on="0"/>
        <pt x="10" y="37" on="1"/>
        <pt x="10" y="145" on="1"/>
        <pt x="131" y="74" on="0"/>
        <pt x="272" y="74" on="1"/>
        <pt x="405" y="74" on="0"/>
        <pt x="553" y="247" on="0"/>
        <pt x="553" y="397" on="1"/>
        <pt x="553" y="461" on="0"/>
        <pt x="521" y="563" on="0"/>
        <pt x="465" y="652" on="0"/>
        <pt x="383" y="739" on="1"/>
        <pt x="305" y="822" on="0"/>
        <pt x="245" y="916" on="0"/>
        <pt x="213" y="1021" on="0"/>
        <pt x="213" y="1085" on="1"/>
        <pt x="213" y="1199" on="0"/>
        <pt x="310" y="1384" on="0"/>
        <pt x="485" y="1483" on="0"/>
        <pt x="602" y="1483" on="1"/>
        <pt x="667" y="1483" on="0"/>
        <pt x="809" y="1447" on="0"/>
        <pt x="844" y="1423" on="1"/>
        <pt x="791" y="1329" on="1"/>
        <pt x="700" y="1386" on="0"/>
        <pt x="592" y="1386" on="1"/>
        <pt x="508" y="1386" on="0"/>
        <pt x="383" y="1312" on="0"/>
        <pt x="315" y="1180" on="0"/>
        <pt x="315" y="1100" on="1"/>
        <pt x="315" y="1025" on="0"/>
        <pt x="375" y="899" on="0"/>
        <pt x="461" y="813" on="1"/>
        <pt x="553" y="719" on="0"/>
        <pt x="617" y="613" on="0"/>
        <pt x="655" y="484" on="0"/>
      </contour>
    </TTGlyph>
    <TTGlyph name="Sacute" xMin="10" yMin="-20" xMax="882" yMax="1907">
      <component glyphName="S" x="0" y="0" flags="0x204"/>
      <component glyphName="acute" x="20" y="338" flags="0x4"/>
    </TTGlyph>
    <TTGlyph name="Scaron" xMin="10" yMin="-20" xMax="911" yMax="1907">
      <component glyphName="S" x="0" y="0" flags="0x204"/>
      <component glyphName="caron" x="-11" y="338" flags="0x4"/>
    </TTGlyph>
    <TTGlyph name="Scedilla" xMin="10" yMin="-492" xMax="844" yMax="1483">
      <component glyphName="S" x="0" y="0" flags="0x204"/>
      <component glyphName="cedilla" x="78" y="0" flags="0x4"/>
    </TTGlyph>
    <TTGlyph name="Scircumflex" xMin="10" yMin="-20" xMax="844" yMax="1907">
      <component glyphName="S" x="0" y="0" flags="0x204"/>
      <component glyphName="circumflex" x="-30" y="338" flags="0x4"/>
    </TTGlyph>
    <TTGlyph name="Scommaaccent" xMin="10" yMin="-453" xMax="844" yMax="1483">
      <component glyphName="S" x="0" y="0" flags="0x204"/>
      <component glyphName="commaaccent" x="-198" y="0" flags="0x4"/>
    </TTGlyph>
    <TTGlyph name="Sigma" xMin="-20" yMin="0" xMax="842" yMax="1462">
      <contour>
        <pt x="-20" y="0" on="1"/>
        <pt x="-4" y="84" on="1"/>
        <pt x="449" y="764" on="1"/>
        <pt x="279" y="1372" on="1"/>
        <pt x="297" y="1462" on="1"/>
        <pt x="842" y="1462" on="1"/>
        <pt x="823" y="1368" on="1"/>
        <pt x="381" y="1368" on="1"/>
        <pt x="553" y="758" on="1"/>
        <pt x="111" y="94" on="1"/>
        <pt x="578" y="94" on="1"/>
        <pt x="559" y="0" on="1"/>
      </contour>
    </TTGlyph>
    <TTGlyph name="T" xMin="190" yMin="0" xMax="856" yMax="1462">
      <contour>
        <pt x="291" y="0" on="1"/>
        <pt x="190" y="0" on="1"/>
        <pt x="479" y="1366" on="1"/>
        <pt x="223" y="1366" on="1"/>
        <pt x="244" y="1462" on="1"/>
        <pt x="856" y="1462" on="1"/>
        <pt x="836" y="1366" on="1"/>
        <pt x="580" y="1366" on="1"/>
      </contour>
    </TTGlyph>
    <TTGlyph name="Tau" xMin="190" yMin="0" xMax="856" yMax="1462">
      <component glyphName="T" x="0" y="0" flags="0x204"/>
    </TTGlyph>
    <TTGlyph name="Tbar" xMin="154" yMin="0" xMax="856" yMax="1462">
      <contour>
        <pt x="459" y="801" on="1"/>
        <pt x="668" y="801" on="1"/>
        <pt x="651" y="725" on="1"/>
        <pt x="442" y="725" on="1"/>
        <pt x="291" y="0" on="1"/>
        <pt x="190" y="0" on="1"/>
        <pt x="344" y="725" on="1"/>
        <pt x="154" y="725" on="1"/>
        <pt x="170" y="801" on="1"/>
        <pt x="360" y="801" on="1"/>
        <pt x="479" y="1366" on="1"/>
        <pt x="223" y="1366" on="1"/>
        <pt x="244" y="1462" on="1"/>
        <pt x="856" y="1462" on="1"/>
        <pt x="836" y="1366" on="1"/>
        <pt x="580" y="1366" on="1"/>
      </contour>
    </TTGlyph>
    <TTGlyph name="Tcaron" xMin="190" yMin="0" xMax="856" yMax="1907">
      <component glyphName="T" x="0" y="0" flags="0x204"/>
      <component glyphName="caron" x="-75" y="338" flags="0x4"/>
    </TTGlyph>
    <TTGlyph name="Tcedilla" xMin="-17" yMin="-492" xMax="856" yMax="1462">
      <component glyphName="T" x="0" y="0" flags="0x204"/>
      <component glyphName="cedilla" x="10" y="0" flags="0x4"/>
    </TTGlyph>
    <TTGlyph name="Tcommaaccent" xMin="15" yMin="-453" xMax="856" yMax="1462">
      <component glyphName="T" x="0" y="0" flags="0x204"/>
      <component glyphName="commaaccent" x="-259" y="0" flags="0x4"/>
    </TTGlyph>
    <TTGlyph name="Theta" xMin="135" yMin="-20" xMax="1008" yMax="1483">
      <contour>
        <pt x="463" y="803" on="1"/>
        <pt x="700" y="803" on="1"/>
        <pt x="678" y="698" on="1"/>
        <pt x="440" y="698" on="1"/>
      </contour>
      <contour>
        <pt x="422" y="-20" on="1"/>
        <pt x="135" y="-20" on="0"/>
        <pt x="135" y="379" on="1"/>
        <pt x="135" y="580" on="0"/>
        <pt x="233" y="1018" on="0"/>
        <pt x="395" y="1330" on="0"/>
        <pt x="602" y="1483" on="0"/>
        <pt x="723" y="1483" on="1"/>
        <pt x="1008" y="1483" on="0"/>
        <pt x="1008" y="1100" on="1"/>
        <pt x="1008" y="816" on="0"/>
        <pt x="844" y="273" on="0"/>
        <pt x="580" y="-20" on="0"/>
      </contour>
      <contour>
        <pt x="233" y="377" on="1"/>
        <pt x="233" y="74" on="0"/>
        <pt x="428" y="74" on="1"/>
        <pt x="525" y="74" on="0"/>
        <pt x="695" y="237" on="0"/>
        <pt x="829" y="539" on="0"/>
        <pt x="909" y="935" on="0"/>
        <pt x="909" y="1100" on="1"/>
        <pt x="909" y="1389" on="0"/>
        <pt x="715" y="1389" on="1"/>
        <pt x="618" y="1389" on="0"/>
        <pt x="448" y="1239" on="0"/>
        <pt x="311" y="933" on="0"/>
        <pt x="233" y="537" on="0"/>
      </contour>
    </TTGlyph>
    <TTGlyph name="Thorn" xMin="66" yMin="0" xMax="801" yMax="1462">
      <contour>
        <pt x="473" y="1462" on="1"/>
        <pt x="416" y="1192" on="1"/>
        <pt x="481" y="1192" on="1"/>
        <pt x="627" y="1192" on="0"/>
        <pt x="801" y="1024" on="0"/>
        <pt x="801" y="885" on="1"/>
        <pt x="801" y="722" on="0"/>
        <pt x="677" y="464" on="0"/>
        <pt x="466" y="334" on="0"/>
        <pt x="330" y="334" on="1"/>
        <pt x="233" y="334" on="1"/>
        <pt x="164" y="0" on="1"/>
        <pt x="66" y="0" on="1"/>
        <pt x="375" y="1462" on="1"/>
      </contour>
      <contour>
        <pt x="254" y="428" on="1"/>
        <pt x="324" y="428" on="1"/>
        <pt x="502" y="428" on="0"/>
        <pt x="696" y="661" on="0"/>
        <pt x="696" y="868" on="1"/>
        <pt x="696" y="1096" on="0"/>
        <pt x="473" y="1096" on="1"/>
        <pt x="395" y="1096" on="1"/>
      </contour>
    </TTGlyph>
    <TTGlyph name="U" xMin="129" yMin="-20" xMax="1012" yMax="1462">
      <contour>
        <pt x="1012" y="1462" on="1"/>
        <pt x="797" y="459" on="1"/>
        <pt x="742" y="206" on="0"/>
        <pt x="549" y="-20" on="0"/>
        <pt x="385" y="-20" on="1"/>
        <pt x="260" y="-20" on="0"/>
        <pt x="129" y="136" on="0"/>
        <pt x="129" y="276" on="1"/>
        <pt x="129" y="351" on="0"/>
        <pt x="147" y="440" on="1"/>
        <pt x="367" y="1462" on="1"/>
        <pt x="465" y="1462" on="1"/>
        <pt x="244" y="428" on="1"/>
        <pt x="225" y="348" on="0"/>
        <pt x="225" y="276" on="1"/>
        <pt x="225" y="74" on="0"/>
        <pt x="397" y="74" on="1"/>
        <pt x="511" y="74" on="0"/>
        <pt x="656" y="254" on="0"/>
        <pt x="698" y="457" on="1"/>
        <pt x="913" y="1462" on="1"/>
      </contour>
    </TTGlyph>
    <TTGlyph name="Uacute" xMin="129" yMin="-20" xMax="1012" yMax="1907">
      <component glyphName="U" x="0" y="0" flags="0x204"/>
      <component glyphName="acute" x="102" y="338" flags="0x4"/>
    </TTGlyph>
    <TTGlyph name="Ubreve" xMin="129" yMin="-20" xMax="1012" yMax="1817">
      <component glyphName="U" x="0" y="0" flags="0x204"/>
      <component glyphName="breve" x="43" y="338" flags="0x4"/>
    </TTGlyph>
    <TTGlyph name="Ucircumflex" xMin="129" yMin="-20" xMax="1012" yMax="1907">
      <component glyphName="U" x="0" y="0" flags="0x204"/>
      <component glyphName="circumflex" x="68" y="338" flags="0x4"/>
    </TTGlyph>
    <TTGlyph name="Udieresis" xMin="129" yMin="-20" xMax="1012" yMax="1813">
      <component glyphName="U" x="0" y="0" flags="0x204"/>
      <component glyphName="dieresis" x="74" y="338" flags="0x4"/>
    </TTGlyph>
    <TTGlyph name="Ugrave" xMin="129" yMin="-20" xMax="1012" yMax="1907">
      <component glyphName="U" x="0" y="0" flags="0x204"/>
      <component glyphName="grave" x="-26" y="338" flags="0x4"/>
    </TTGlyph>
    <TTGlyph name="Uhorn" xMin="129" yMin="-20" xMax="1255" yMax="1556">
      <contour>
        <pt x="1012" y="1462" on="1"/>
        <pt x="967" y="1255" on="1"/>
        <pt x="1047" y="1283" on="0"/>
        <pt x="1142" y="1432" on="0"/>
        <pt x="1163" y="1556" on="1"/>
        <pt x="1247" y="1556" on="1"/>
        <pt x="1255" y="1530" on="1"/>
        <pt x="1203" y="1245" on="0"/>
        <pt x="948" y="1167" on="1"/>
        <pt x="797" y="459" on="1"/>
        <pt x="742" y="206" on="0"/>
        <pt x="549" y="-20" on="0"/>
        <pt x="385" y="-20" on="1"/>
        <pt x="260" y="-20" on="0"/>
        <pt x="129" y="136" on="0"/>
        <pt x="129" y="276" on="1"/>
        <pt x="129" y="351" on="0"/>
        <pt x="147" y="440" on="1"/>
        <pt x="367" y="1462" on="1"/>
        <pt x="465" y="1462" on="1"/>
        <pt x="244" y="428" on="1"/>
        <pt x="225" y="348" on="0"/>
        <pt x="225" y="276" on="1"/>
        <pt x="225" y="74" on="0"/>
        <pt x="397" y="74" on="1"/>
        <pt x="511" y="74" on="0"/>
        <pt x="656" y="254" on="0"/>
        <pt x="698" y="457" on="1"/>
        <pt x="913" y="1462" on="1"/>
      </contour>
    </TTGlyph>
    <TTGlyph name="Uhungarumlaut" xMin="129" yMin="-20" xMax="1145" yMax="1907">
      <component glyphName="U" x="0" y="0" flags="0x204"/>
      <component glyphName="hungarumlaut" x="166" y="338" flags="0x4"/>
    </TTGlyph>
    <TTGlyph name="Umacron" xMin="129" yMin="-20" xMax="1012" yMax="1671">
      <component glyphName="U" x="0" y="0" flags="0x204"/>
      <component glyphName="macron" x="78" y="338" flags="0x4"/>
    </TTGlyph>
    <TTGlyph name="Uogonek" xMin="129" yMin="-446" xMax="1012" yMax="1462">
      <component glyphName="U" x="0" y="0" flags="0x204"/>
      <component glyphName="ogonek" x="209" y="0" flags="0x4"/>
    </TTGlyph>
    <TTGlyph name="Upsilon" xMin="180" yMin="0" xMax="848" yMax="1462">
      <component glyphName="Y" x="0" y="0" flags="0x204"/>
    </TTGlyph>
    <TTGlyph name="Upsilondieresis" xMin="180" yMin="0" xMax="848" yMax="1813">
      <component glyphName="Y" x="0" y="0" flags="0x204"/>
      <component glyphName="dieresis" x="-81" y="338" flags="0x4"/>
    </TTGlyph>
    <TTGlyph name="Upsilontonos" xMin="114" yMin="0" xMax="1061" yMax="1578">
      <component glyphName="Y" x="213" y="0" flags="0x4"/>
      <component glyphName="tonos" x="-464" y="-32" flags="0x4"/>
    </TTGlyph>
    <TTGlyph name="Uring" xMin="129" yMin="-20" xMax="1012" yMax="1962">
      <component glyphName="U" x="0" y="0" flags="0x204"/>
      <component glyphName="ring" x="55" y="338" flags="0x4"/>
    </TTGlyph>
    <TTGlyph name="Utilde" xMin="129" yMin="-20" xMax="1012" yMax="1821">
      <component glyphName="U" x="0" y="0" flags="0x204"/>
      <component glyphName="tilde" x="59" y="338" flags="0x4"/>
    </TTGlyph>
    <TTGlyph name="V" xMin="231" yMin="0" xMax="950" yMax="1462">
      <contour>
        <pt x="850" y="1462" on="1"/>
        <pt x="950" y="1462" on="1"/>
        <pt x="340" y="0" on="1"/>
        <pt x="231" y="0" on="1"/>
        <pt x="231" y="1462" on="1"/>
        <pt x="330" y="1462" on="1"/>
        <pt x="330" y="553" on="1"/>
        <pt x="330" y="386" on="0"/>
        <pt x="307" y="121" on="1"/>
        <pt x="341" y="226" on="0"/>
        <pt x="432" y="455" on="1"/>
      </contour>
    </TTGlyph>
    <TTGlyph name="W" xMin="205" yMin="0" xMax="1477" yMax="1462">
      <contour>
        <pt x="1376" y="1462" on="1"/>
        <pt x="1477" y="1462" on="1"/>
        <pt x="889" y="0" on="1"/>
        <pt x="768" y="0" on="1"/>
        <pt x="815" y="1094" on="1"/>
        <pt x="831" y="1333" on="1"/>
        <pt x="752" y="1096" on="1"/>
        <pt x="326" y="0" on="1"/>
        <pt x="205" y="0" on="1"/>
        <pt x="231" y="1462" on="1"/>
        <pt x="332" y="1462" on="1"/>
        <pt x="305" y="455" on="1"/>
        <pt x="298" y="244" on="0"/>
        <pt x="287" y="111" on="1"/>
        <pt x="313" y="185" on="1"/>
        <pt x="412" y="451" on="1"/>
        <pt x="801" y="1462" on="1"/>
        <pt x="909" y="1462" on="1"/>
        <pt x="877" y="492" on="1"/>
        <pt x="866" y="239" on="0"/>
        <pt x="852" y="111" on="1"/>
        <pt x="937" y="352" on="0"/>
        <pt x="979" y="455" on="1"/>
      </contour>
    </TTGlyph>
    <TTGlyph name="Wacute" xMin="205" yMin="0" xMax="1477" yMax="1907">
      <component glyphName="W" x="0" y="0" flags="0x204"/>
      <component glyphName="acute" x="301" y="338" flags="0x4"/>
    </TTGlyph>
    <TTGlyph name="Wcircumflex" xMin="205" yMin="0" xMax="1477" yMax="1907">
      <component glyphName="W" x="0" y="0" flags="0x204"/>
      <component glyphName="circumflex" x="219" y="338" flags="0x4"/>
    </TTGlyph>
    <TTGlyph name="Wdieresis" xMin="205" yMin="0" xMax="1477" yMax="1813">
      <component glyphName="W" x="0" y="0" flags="0x204"/>
      <component glyphName="dieresis" x="227" y="338" flags="0x4"/>
    </TTGlyph>
    <TTGlyph name="Wgrave" xMin="205" yMin="0" xMax="1477" yMax="1907">
      <component glyphName="W" x="0" y="0" flags="0x204"/>
      <component glyphName="grave" x="158" y="338" flags="0x4"/>
    </TTGlyph>
    <TTGlyph name="X" xMin="-57" yMin="0" xMax="856" yMax="1462">
      <contour>
        <pt x="547" y="0" on="1"/>
        <pt x="446" y="0" on="1"/>
        <pt x="393" y="666" on="1"/>
        <pt x="45" y="0" on="1"/>
        <pt x="-57" y="0" on="1"/>
        <pt x="362" y="791" on="1"/>
        <pt x="281" y="1462" on="1"/>
        <pt x="381" y="1462" on="1"/>
        <pt x="449" y="856" on="1"/>
        <pt x="756" y="1462" on="1"/>
        <pt x="856" y="1462" on="1"/>
        <pt x="479" y="743" on="1"/>
      </contour>
    </TTGlyph>
    <TTGlyph name="Xi" xMin="10" yMin="0" xMax="807" yMax="1462">
      <contour>
        <pt x="338" y="1462" on="1"/>
        <pt x="807" y="1462" on="1"/>
        <pt x="788" y="1368" on="1"/>
        <pt x="319" y="1368" on="1"/>
      </contour>
      <contour>
        <pt x="535" y="94" on="1"/>
        <pt x="516" y="0" on="1"/>
        <pt x="10" y="0" on="1"/>
        <pt x="29" y="94" on="1"/>
      </contour>
      <contour>
        <pt x="233" y="813" on="1"/>
        <pt x="637" y="813" on="1"/>
        <pt x="616" y="719" on="1"/>
        <pt x="213" y="719" on="1"/>
      </contour>
    </TTGlyph>
    <TTGlyph name="Y" xMin="180" yMin="0" xMax="848" yMax="1462">
      <contour>
        <pt x="379" y="707" on="1"/>
        <pt x="745" y="1462" on="1"/>
        <pt x="848" y="1462" on="1"/>
        <pt x="401" y="571" on="1"/>
        <pt x="281" y="0" on="1"/>
        <pt x="180" y="0" on="1"/>
        <pt x="301" y="571" on="1"/>
        <pt x="227" y="1462" on="1"/>
        <pt x="328" y="1462" on="1"/>
      </contour>
    </TTGlyph>
    <TTGlyph name="Yacute" xMin="180" yMin="0" xMax="848" yMax="1907">
      <component glyphName="Y" x="0" y="0" flags="0x204"/>
      <component glyphName="acute" x="-30" y="338" flags="0x4"/>
    </TTGlyph>
    <TTGlyph name="Ycircumflex" xMin="180" yMin="0" xMax="848" yMax="1907">
      <component glyphName="Y" x="0" y="0" flags="0x204"/>
      <component glyphName="circumflex" x="-85" y="338" flags="0x4"/>
    </TTGlyph>
    <TTGlyph name="Ydieresis" xMin="180" yMin="0" xMax="848" yMax="1813">
      <component glyphName="Y" x="0" y="0" flags="0x204"/>
      <component glyphName="dieresis" x="-81" y="338" flags="0x4"/>
    </TTGlyph>
    <TTGlyph name="Ygrave" xMin="180" yMin="0" xMax="848" yMax="1907">
      <component glyphName="Y" x="0" y="0" flags="0x204"/>
      <component glyphName="grave" x="-189" y="338" flags="0x4"/>
    </TTGlyph>
    <TTGlyph name="Z" xMin="-25" yMin="0" xMax="762" yMax="1462">
      <contour>
        <pt x="465" y="0" on="1"/>
        <pt x="-25" y="0" on="1"/>
        <pt x="-6" y="88" on="1"/>
        <pt x="635" y="1366" on="1"/>
        <pt x="268" y="1366" on="1"/>
        <pt x="289" y="1462" on="1"/>
        <pt x="762" y="1462" on="1"/>
        <pt x="743" y="1372" on="1"/>
        <pt x="92" y="94" on="1"/>
        <pt x="483" y="94" on="1"/>
      </contour>
    </TTGlyph>
    <TTGlyph name="Zacute" xMin="-25" yMin="0" xMax="822" yMax="1907">
      <component glyphName="Z" x="0" y="0" flags="0x204"/>
      <component glyphName="acute" x="-40" y="338" flags="0x4"/>
    </TTGlyph>
    <TTGlyph name="Zcaron" xMin="-25" yMin="0" xMax="837" yMax="1907">
      <component glyphName="Z" x="0" y="0" flags="0x204"/>
      <component glyphName="caron" x="-85" y="338" flags="0x4"/>
    </TTGlyph>
    <TTGlyph name="Zdotaccent" xMin="-25" yMin="0" xMax="762" yMax="1819">
      <component glyphName="Z" x="0" y="0" flags="0x204"/>
      <component glyphName="dotaccent" x="197" y="338" flags="0x4"/>
    </TTGlyph>
    <TTGlyph name="Zeta" xMin="-25" yMin="0" xMax="762" yMax="1462">
      <component glyphName="Z" x="0" y="0" flags="0x204"/>
    </TTGlyph>
    <TTGlyph name="a" xMin="119" yMin="-20" xMax="860" yMax="1106">
      <contour>
        <pt x="319" y="-20" on="1"/>
        <pt x="119" y="-20" on="0"/>
        <pt x="119" y="262" on="1"/>
        <pt x="119" y="471" on="0"/>
        <pt x="244" y="881" on="0"/>
        <pt x="443" y="1106" on="0"/>
        <pt x="561" y="1106" on="1"/>
        <pt x="695" y="1106" on="0"/>
        <pt x="735" y="956" on="1"/>
        <pt x="741" y="956" on="1"/>
        <pt x="780" y="1085" on="1"/>
        <pt x="860" y="1085" on="1"/>
        <pt x="631" y="0" on="1"/>
        <pt x="555" y="0" on="1"/>
        <pt x="573" y="156" on="1"/>
        <pt x="569" y="156" on="1"/>
        <pt x="455" y="-20" on="0"/>
      </contour>
      <contour>
        <pt x="338" y="63" on="1"/>
        <pt x="428" y="63" on="0"/>
        <pt x="584" y="271" on="0"/>
        <pt x="692" y="671" on="0"/>
        <pt x="692" y="848" on="1"/>
        <pt x="692" y="931" on="0"/>
        <pt x="621" y="1016" on="0"/>
        <pt x="557" y="1016" on="1"/>
        <pt x="469" y="1016" on="0"/>
        <pt x="319" y="813" on="0"/>
        <pt x="217" y="421" on="0"/>
        <pt x="217" y="248" on="1"/>
        <pt x="217" y="157" on="0"/>
        <pt x="270" y="63" on="0"/>
      </contour>
    </TTGlyph>
    <TTGlyph name="aacute" xMin="119" yMin="-20" xMax="860" yMax="1569">
      <component glyphName="a" x="0" y="0" flags="0x204"/>
      <component glyphName="acute" x="-32" y="0" flags="0x4"/>
    </TTGlyph>
    <TTGlyph name="abreve" xMin="119" yMin="-20" xMax="860" yMax="1479">
      <component glyphName="a" x="0" y="0" flags="0x204"/>
      <component glyphName="breve" x="-54" y="0" flags="0x4"/>
    </TTGlyph>
    <TTGlyph name="acircumflex" xMin="119" yMin="-20" xMax="860" yMax="1571">
      <component glyphName="a" x="0" y="0" flags="0x204"/>
      <component glyphName="circumflex" x="-60" y="2" flags="0x4"/>
    </TTGlyph>
    <TTGlyph name="acute" xMin="500" yMin="1241" xMax="862" yMax="1569">
      <contour>
        <pt x="500" y="1241" on="1"/>
        <pt x="500" y="1257" on="1"/>
        <pt x="654" y="1443" on="0"/>
        <pt x="723" y="1569" on="1"/>
        <pt x="862" y="1569" on="1"/>
        <pt x="862" y="1552" on="1"/>
        <pt x="820" y="1489" on="0"/>
        <pt x="632" y="1303" on="0"/>
        <pt x="551" y="1241" on="1"/>
      </contour>
    </TTGlyph>
    <TTGlyph name="adieresis" xMin="119" yMin="-20" xMax="860" yMax="1475">
      <component glyphName="a" x="0" y="0" flags="0x204"/>
      <component glyphName="dieresis" x="-40" y="0" flags="0x4"/>
    </TTGlyph>
    <TTGlyph name="ae" xMin="119" yMin="-20" xMax="1212" yMax="1106">
      <contour>
        <pt x="319" y="-20" on="1"/>
        <pt x="119" y="-20" on="0"/>
        <pt x="119" y="262" on="1"/>
        <pt x="119" y="471" on="0"/>
        <pt x="244" y="881" on="0"/>
        <pt x="443" y="1106" on="0"/>
        <pt x="561" y="1106" on="1"/>
        <pt x="620" y="1106" on="0"/>
        <pt x="695" y="1037" on="0"/>
        <pt x="715" y="952" on="1"/>
        <pt x="754" y="1085" on="1"/>
        <pt x="834" y="1085" on="1"/>
        <pt x="801" y="944" on="1"/>
        <pt x="911" y="1106" on="0"/>
        <pt x="1030" y="1106" on="1"/>
        <pt x="1117" y="1106" on="0"/>
        <pt x="1212" y="1005" on="0"/>
        <pt x="1212" y="903" on="1"/>
        <pt x="1212" y="780" on="0"/>
        <pt x="1093" y="596" on="0"/>
        <pt x="872" y="506" on="0"/>
        <pt x="719" y="506" on="1"/>
        <pt x="707" y="506" on="1"/>
        <pt x="686" y="407" on="0"/>
        <pt x="686" y="307" on="1"/>
        <pt x="686" y="183" on="0"/>
        <pt x="780" y="66" on="0"/>
        <pt x="874" y="66" on="1"/>
        <pt x="963" y="66" on="0"/>
        <pt x="1059" y="121" on="1"/>
        <pt x="1059" y="35" on="1"/>
        <pt x="1008" y="6" on="0"/>
        <pt x="918" y="-20" on="0"/>
        <pt x="858" y="-20" on="1"/>
        <pt x="770" y="-20" on="0"/>
        <pt x="654" y="76" on="0"/>
        <pt x="637" y="164" on="1"/>
        <pt x="604" y="0" on="1"/>
        <pt x="528" y="0" on="1"/>
        <pt x="551" y="156" on="1"/>
        <pt x="463" y="-20" on="0"/>
      </contour>
      <contour>
        <pt x="338" y="63" on="1"/>
        <pt x="426" y="63" on="0"/>
        <pt x="569" y="265" on="0"/>
        <pt x="659" y="657" on="0"/>
        <pt x="659" y="848" on="1"/>
        <pt x="659" y="929" on="0"/>
        <pt x="606" y="1016" on="0"/>
        <pt x="557" y="1016" on="1"/>
        <pt x="469" y="1016" on="0"/>
        <pt x="319" y="813" on="0"/>
        <pt x="217" y="421" on="0"/>
        <pt x="217" y="248" on="1"/>
        <pt x="217" y="157" on="0"/>
        <pt x="270" y="63" on="0"/>
      </contour>
      <contour>
        <pt x="1014" y="1018" on="1"/>
        <pt x="930" y="1018" on="0"/>
        <pt x="778" y="801" on="0"/>
        <pt x="721" y="588" on="1"/>
        <pt x="916" y="588" on="0"/>
        <pt x="1118" y="747" on="0"/>
        <pt x="1118" y="905" on="1"/>
        <pt x="1118" y="958" on="0"/>
        <pt x="1073" y="1018" on="0"/>
      </contour>
    </TTGlyph>
    <TTGlyph name="aeacute" xMin="119" yMin="-20" xMax="1212" yMax="1569">
      <component glyphName="ae" x="0" y="0" flags="0x204"/>
      <component glyphName="acute" x="164" y="0" flags="0x4"/>
    </TTGlyph>
    <TTGlyph name="afii00208" xMin="123" yMin="512" xMax="1835" yMax="594">
      <component glyphName="emdash" x="0" y="0" flags="0x204"/>
    </TTGlyph>
    <TTGlyph name="afii08941" xMin="8" yMin="0" xMax="887" yMax="1483">
      <contour>
        <pt x="111" y="563" on="1"/>
        <pt x="252" y="563" on="1"/>
        <pt x="295" y="756" on="1"/>
        <pt x="154" y="756" on="1"/>
        <pt x="172" y="842" on="1"/>
        <pt x="313" y="842" on="1"/>
        <pt x="377" y="1153" on="1"/>
        <pt x="411" y="1311" on="0"/>
        <pt x="555" y="1483" on="0"/>
        <pt x="680" y="1483" on="1"/>
        <pt x="740" y="1483" on="0"/>
        <pt x="833" y="1448" on="0"/>
        <pt x="887" y="1401" on="1"/>
        <pt x="823" y="1323" on="1"/>
        <pt x="760" y="1393" on="0"/>
        <pt x="672" y="1393" on="1"/>
        <pt x="593" y="1393" on="0"/>
        <pt x="498" y="1268" on="0"/>
        <pt x="467" y="1120" on="1"/>
        <pt x="412" y="842" on="1"/>
        <pt x="633" y="842" on="1"/>
        <pt x="614" y="756" on="1"/>
        <pt x="393" y="756" on="1"/>
        <pt x="350" y="563" on="1"/>
        <pt x="575" y="563" on="1"/>
        <pt x="557" y="477" on="1"/>
        <pt x="332" y="477" on="1"/>
        <pt x="313" y="395" on="1"/>
        <pt x="266" y="172" on="0"/>
        <pt x="154" y="94" on="1"/>
        <pt x="610" y="94" on="1"/>
        <pt x="590" y="0" on="1"/>
        <pt x="8" y="0" on="1"/>
        <pt x="27" y="82" on="1"/>
        <pt x="90" y="110" on="0"/>
        <pt x="189" y="269" on="0"/>
        <pt x="215" y="393" on="1"/>
        <pt x="233" y="477" on="1"/>
        <pt x="92" y="477" on="1"/>
      </contour>
    </TTGlyph>
    <TTGlyph name="afii10017" xMin="-78" yMin="0" xMax="651" yMax="1468">
      <component glyphName="A" x="0" y="0" flags="0x204"/>
    </TTGlyph>
    <TTGlyph name="afii10018" xMin="66" yMin="0" xMax="889" yMax="1462">
      <contour>
        <pt x="455" y="1368" on="1"/>
        <pt x="336" y="813" on="1"/>
        <pt x="420" y="813" on="1"/>
        <pt x="578" y="813" on="0"/>
        <pt x="743" y="655" on="0"/>
        <pt x="743" y="500" on="1"/>
        <pt x="743" y="268" on="0"/>
        <pt x="505" y="0" on="0"/>
        <pt x="297" y="0" on="1"/>
        <pt x="66" y="0" on="1"/>
        <pt x="375" y="1462" on="1"/>
        <pt x="889" y="1462" on="1"/>
        <pt x="870" y="1368" on="1"/>
      </contour>
      <contour>
        <pt x="182" y="90" on="1"/>
        <pt x="317" y="90" on="1"/>
        <pt x="471" y="90" on="0"/>
        <pt x="641" y="307" on="0"/>
        <pt x="641" y="498" on="1"/>
        <pt x="641" y="613" on="0"/>
        <pt x="518" y="723" on="0"/>
        <pt x="391" y="723" on="1"/>
        <pt x="317" y="723" on="1"/>
      </contour>
    </TTGlyph>
    <TTGlyph name="afii10019" xMin="66" yMin="0" xMax="887" yMax="1462">
      <component glyphName="B" x="0" y="0" flags="0x204"/>
    </TTGlyph>
    <TTGlyph name="afii10020" xMin="66" yMin="0" xMax="784" yMax="1462">
      <component glyphName="Gamma" x="0" y="0" flags="0x204"/>
    </TTGlyph>
    <TTGlyph name="afii10021" xMin="-127" yMin="-369" xMax="946" yMax="1462">
      <contour>
        <pt x="670" y="-369" on="1"/>
        <pt x="571" y="-369" on="1"/>
        <pt x="651" y="0" on="1"/>
        <pt x="49" y="0" on="1"/>
        <pt x="-29" y="-369" on="1"/>
        <pt x="-127" y="-369" on="1"/>
        <pt x="-29" y="94" on="1"/>
        <pt x="49" y="94" on="1"/>
        <pt x="199" y="367" on="0"/>
        <pt x="456" y="1081" on="0"/>
        <pt x="537" y="1462" on="1"/>
        <pt x="946" y="1462" on="1"/>
        <pt x="655" y="94" on="1"/>
        <pt x="768" y="94" on="1"/>
      </contour>
      <contour>
        <pt x="557" y="94" on="1"/>
        <pt x="827" y="1368" on="1"/>
        <pt x="614" y="1368" on="1"/>
        <pt x="555" y="1120" on="0"/>
        <pt x="391" y="621" on="0"/>
        <pt x="223" y="224" on="0"/>
        <pt x="150" y="94" on="1"/>
      </contour>
    </TTGlyph>
    <TTGlyph name="afii10022" xMin="66" yMin="0" xMax="852" yMax="1462">
      <component glyphName="E" x="0" y="0" flags="0x204"/>
    </TTGlyph>
    <TTGlyph name="afii10023" xMin="66" yMin="0" xMax="860" yMax="1813">
      <component glyphName="E" x="0" y="0" flags="0x204"/>
      <component glyphName="dieresis" x="6" y="338" flags="0x4"/>
    </TTGlyph>
    <TTGlyph name="afii10024" xMin="-76" yMin="0" xMax="1231" yMax="1462">
      <contour>
        <pt x="688" y="1462" on="1"/>
        <pt x="786" y="1462" on="1"/>
        <pt x="637" y="758" on="1"/>
        <pt x="1128" y="1462" on="1"/>
        <pt x="1231" y="1462" on="1"/>
        <pt x="733" y="750" on="1"/>
        <pt x="932" y="0" on="1"/>
        <pt x="827" y="0" on="1"/>
        <pt x="635" y="750" on="1"/>
        <pt x="477" y="0" on="1"/>
        <pt x="379" y="0" on="1"/>
        <pt x="537" y="748" on="1"/>
        <pt x="37" y="0" on="1"/>
        <pt x="-76" y="0" on="1"/>
        <pt x="440" y="760" on="1"/>
        <pt x="240" y="1462" on="1"/>
        <pt x="340" y="1462" on="1"/>
        <pt x="539" y="756" on="1"/>
      </contour>
    </TTGlyph>
    <TTGlyph name="afii10025" xMin="-6" yMin="-20" xMax="782" yMax="1483">
      <contour>
        <pt x="782" y="1206" on="1"/>
        <pt x="782" y="1034" on="0"/>
        <pt x="615" y="797" on="0"/>
        <pt x="475" y="764" on="1"/>
        <pt x="473" y="758" on="1"/>
        <pt x="643" y="695" on="0"/>
        <pt x="643" y="463" on="1"/>
        <pt x="643" y="249" on="0"/>
        <pt x="416" y="-20" on="0"/>
        <pt x="231" y="-20" on="1"/>
        <pt x="79" y="-20" on="0"/>
        <pt x="-6" y="29" on="1"/>
        <pt x="-6" y="143" on="1"/>
        <pt x="84" y="74" on="0"/>
        <pt x="219" y="74" on="1"/>
        <pt x="370" y="74" on="0"/>
        <pt x="543" y="281" on="0"/>
        <pt x="543" y="449" on="1"/>
        <pt x="543" y="580" on="0"/>
        <pt x="430" y="711" on="0"/>
        <pt x="324" y="711" on="1"/>
        <pt x="219" y="711" on="1"/>
        <pt x="238" y="805" on="1"/>
        <pt x="338" y="805" on="1"/>
        <pt x="485" y="805" on="0"/>
        <pt x="684" y="1027" on="0"/>
        <pt x="684" y="1194" on="1"/>
        <pt x="684" y="1389" on="0"/>
        <pt x="508" y="1389" on="1"/>
        <pt x="453" y="1389" on="0"/>
        <pt x="366" y="1359" on="0"/>
        <pt x="295" y="1305" on="1"/>
        <pt x="248" y="1386" on="1"/>
        <pt x="364" y="1483" on="0"/>
        <pt x="508" y="1483" on="1"/>
        <pt x="636" y="1483" on="0"/>
        <pt x="782" y="1334" on="0"/>
      </contour>
    </TTGlyph>
    <TTGlyph name="afii10026" xMin="66" yMin="0" xMax="1069" yMax="1462">
      <contour>
        <pt x="375" y="1462" on="1"/>
        <pt x="471" y="1462" on="1"/>
        <pt x="262" y="473" on="1"/>
        <pt x="230" y="323" on="0"/>
        <pt x="197" y="199" on="1"/>
        <pt x="205" y="199" on="1"/>
        <pt x="950" y="1462" on="1"/>
        <pt x="1069" y="1462" on="1"/>
        <pt x="760" y="0" on="1"/>
        <pt x="664" y="0" on="1"/>
        <pt x="879" y="1018" on="1"/>
        <pt x="915" y="1187" on="0"/>
        <pt x="948" y="1280" on="1"/>
        <pt x="940" y="1280" on="1"/>
        <pt x="182" y="0" on="1"/>
        <pt x="66" y="0" on="1"/>
      </contour>
    </TTGlyph>
    <TTGlyph name="afii10027" xMin="66" yMin="0" xMax="1069" yMax="1860">
      <component glyphName="afii10026" x="0" y="0" flags="0x204"/>
      <component glyphName="cyrillicbreve" x="78" y="338" flags="0x4"/>
    </TTGlyph>
    <TTGlyph name="afii10028" xMin="66" yMin="0" xMax="932" yMax="1462">
      <contour>
        <pt x="324" y="756" on="1"/>
        <pt x="823" y="1462" on="1"/>
        <pt x="932" y="1462" on="1"/>
        <pt x="426" y="748" on="1"/>
        <pt x="655" y="0" on="1"/>
        <pt x="547" y="0" on="1"/>
        <pt x="322" y="748" on="1"/>
        <pt x="164" y="0" on="1"/>
        <pt x="66" y="0" on="1"/>
        <pt x="375" y="1462" on="1"/>
        <pt x="473" y="1462" on="1"/>
      </contour>
    </TTGlyph>
    <TTGlyph name="afii10029" xMin="-63" yMin="-10" xMax="946" yMax="1462">
      <contour>
        <pt x="635" y="0" on="1"/>
        <pt x="537" y="0" on="1"/>
        <pt x="827" y="1368" on="1"/>
        <pt x="586" y="1368" on="1"/>
        <pt x="453" y="898" on="0"/>
        <pt x="260" y="259" on="0"/>
        <pt x="178" y="74" on="0"/>
        <pt x="84" y="-10" on="0"/>
        <pt x="18" y="-10" on="1"/>
        <pt x="-18" y="-10" on="0"/>
        <pt x="-63" y="2" on="1"/>
        <pt x="-63" y="96" on="1"/>
        <pt x="-33" y="84" on="0"/>
        <pt x="2" y="84" on="1"/>
        <pt x="55" y="84" on="0"/>
        <pt x="143" y="203" on="0"/>
        <pt x="180" y="319" on="1"/>
        <pt x="286" y="659" on="0"/>
        <pt x="422" y="1130" on="1"/>
        <pt x="518" y="1462" on="1"/>
        <pt x="946" y="1462" on="1"/>
      </contour>
    </TTGlyph>
    <TTGlyph name="afii10030" xMin="66" yMin="0" xMax="1343" yMax="1462">
      <component glyphName="M" x="0" y="0" flags="0x204"/>
    </TTGlyph>
    <TTGlyph name="afii10031" xMin="66" yMin="0" xMax="1012" yMax="1462">
      <component glyphName="H" x="0" y="0" flags="0x204"/>
    </TTGlyph>
    <TTGlyph name="afii10032" xMin="135" yMin="-20" xMax="977" yMax="1483">
      <component glyphName="O" x="0" y="0" flags="0x204"/>
    </TTGlyph>
    <TTGlyph name="afii10033" xMin="66" yMin="0" xMax="1012" yMax="1462">
      <component glyphName="Pi" x="0" y="0" flags="0x204"/>
    </TTGlyph>
    <TTGlyph name="afii10034" xMin="66" yMin="0" xMax="858" yMax="1462">
      <component glyphName="P" x="0" y="0" flags="0x204"/>
    </TTGlyph>
    <TTGlyph name="afii10035" xMin="135" yMin="-20" xMax="946" yMax="1485">
      <component glyphName="C" x="0" y="0" flags="0x204"/>
    </TTGlyph>
    <TTGlyph name="afii10036" xMin="190" yMin="0" xMax="856" yMax="1462">
      <component glyphName="T" x="0" y="0" flags="0x204"/>
    </TTGlyph>
    <TTGlyph name="afii10037" xMin="-39" yMin="-16" xMax="850" yMax="1462">
      <contour>
        <pt x="285" y="428" on="1"/>
        <pt x="227" y="1462" on="1"/>
        <pt x="326" y="1462" on="1"/>
        <pt x="356" y="782" on="1"/>
        <pt x="358" y="671" on="1"/>
        <pt x="358" y="569" on="1"/>
        <pt x="367" y="569" on="1"/>
        <pt x="384" y="620" on="0"/>
        <pt x="444" y="770" on="1"/>
        <pt x="752" y="1462" on="1"/>
        <pt x="850" y="1462" on="1"/>
        <pt x="295" y="225" on="1"/>
        <pt x="234" y="91" on="0"/>
        <pt x="125" y="-16" on="0"/>
        <pt x="47" y="-16" on="1"/>
        <pt x="-7" y="-16" on="0"/>
        <pt x="-39" y="0" on="1"/>
        <pt x="-39" y="92" on="1"/>
        <pt x="-5" y="74" on="0"/>
        <pt x="41" y="74" on="1"/>
        <pt x="93" y="74" on="0"/>
        <pt x="165" y="158" on="0"/>
        <pt x="211" y="260" on="1"/>
      </contour>
    </TTGlyph>
    <TTGlyph name="afii10038" xMin="150" yMin="-20" xMax="1083" yMax="1483">
      <component glyphName="Phi" x="0" y="0" flags="0x204"/>
    </TTGlyph>
    <TTGlyph name="afii10039" xMin="-57" yMin="0" xMax="856" yMax="1462">
      <component glyphName="X" x="0" y="0" flags="0x204"/>
    </TTGlyph>
    <TTGlyph name="afii10040" xMin="76" yMin="-369" xMax="1024" yMax="1462">
      <contour>
        <pt x="733" y="94" on="1"/>
        <pt x="831" y="94" on="1"/>
        <pt x="733" y="-369" on="1"/>
        <pt x="635" y="-369" on="1"/>
        <pt x="715" y="0" on="1"/>
        <pt x="76" y="0" on="1"/>
        <pt x="387" y="1462" on="1"/>
        <pt x="485" y="1462" on="1"/>
        <pt x="195" y="94" on="1"/>
        <pt x="635" y="94" on="1"/>
        <pt x="926" y="1462" on="1"/>
        <pt x="1024" y="1462" on="1"/>
      </contour>
    </TTGlyph>
    <TTGlyph name="afii10041" xMin="209" yMin="0" xMax="979" yMax="1462">
      <contour>
        <pt x="670" y="0" on="1"/>
        <pt x="571" y="0" on="1"/>
        <pt x="705" y="627" on="1"/>
        <pt x="618" y="572" on="0"/>
        <pt x="500" y="532" on="0"/>
        <pt x="446" y="532" on="1"/>
        <pt x="337" y="532" on="0"/>
        <pt x="209" y="653" on="0"/>
        <pt x="209" y="776" on="1"/>
        <pt x="209" y="840" on="0"/>
        <pt x="223" y="899" on="1"/>
        <pt x="342" y="1462" on="1"/>
        <pt x="442" y="1462" on="1"/>
        <pt x="319" y="887" on="1"/>
        <pt x="307" y="831" on="0"/>
        <pt x="307" y="788" on="1"/>
        <pt x="307" y="710" on="0"/>
        <pt x="388" y="627" on="0"/>
        <pt x="467" y="627" on="1"/>
        <pt x="525" y="627" on="0"/>
        <pt x="638" y="662" on="0"/>
        <pt x="723" y="713" on="1"/>
        <pt x="881" y="1462" on="1"/>
        <pt x="979" y="1462" on="1"/>
      </contour>
    </TTGlyph>
    <TTGlyph name="afii10042" xMin="66" yMin="0" xMax="1354" yMax="1462">
      <contour>
        <pt x="1044" y="0" on="1"/>
        <pt x="66" y="0" on="1"/>
        <pt x="375" y="1462" on="1"/>
        <pt x="473" y="1462" on="1"/>
        <pt x="182" y="94" on="1"/>
        <pt x="524" y="94" on="1"/>
        <pt x="815" y="1462" on="1"/>
        <pt x="913" y="1462" on="1"/>
        <pt x="623" y="94" on="1"/>
        <pt x="965" y="94" on="1"/>
        <pt x="1255" y="1462" on="1"/>
        <pt x="1354" y="1462" on="1"/>
      </contour>
    </TTGlyph>
    <TTGlyph name="afii10043" xMin="66" yMin="-369" xMax="1356" yMax="1462">
      <contour>
        <pt x="1165" y="94" on="1"/>
        <pt x="1067" y="-369" on="1"/>
        <pt x="973" y="-369" on="1"/>
        <pt x="1051" y="0" on="1"/>
        <pt x="66" y="0" on="1"/>
        <pt x="375" y="1462" on="1"/>
        <pt x="473" y="1462" on="1"/>
        <pt x="182" y="94" on="1"/>
        <pt x="524" y="94" on="1"/>
        <pt x="815" y="1462" on="1"/>
        <pt x="913" y="1462" on="1"/>
        <pt x="623" y="94" on="1"/>
        <pt x="967" y="94" on="1"/>
        <pt x="1257" y="1462" on="1"/>
        <pt x="1356" y="1462" on="1"/>
        <pt x="1065" y="94" on="1"/>
      </contour>
    </TTGlyph>
    <TTGlyph name="afii10044" xMin="178" yMin="0" xMax="856" yMax="1462">
      <contour>
        <pt x="467" y="1366" on="1"/>
        <pt x="205" y="1366" on="1"/>
        <pt x="225" y="1462" on="1"/>
        <pt x="586" y="1462" on="1"/>
        <pt x="449" y="813" on="1"/>
        <pt x="532" y="813" on="1"/>
        <pt x="690" y="813" on="0"/>
        <pt x="856" y="656" on="0"/>
        <pt x="856" y="500" on="1"/>
        <pt x="856" y="270" on="0"/>
        <pt x="617" y="0" on="0"/>
        <pt x="410" y="0" on="1"/>
        <pt x="178" y="0" on="1"/>
      </contour>
      <contour>
        <pt x="295" y="90" on="1"/>
        <pt x="430" y="90" on="1"/>
        <pt x="584" y="90" on="0"/>
        <pt x="754" y="307" on="0"/>
        <pt x="754" y="498" on="1"/>
        <pt x="754" y="613" on="0"/>
        <pt x="631" y="723" on="0"/>
        <pt x="504" y="723" on="1"/>
        <pt x="430" y="723" on="1"/>
      </contour>
    </TTGlyph>
    <TTGlyph name="afii10045" xMin="66" yMin="0" xMax="1243" yMax="1462">
      <contour>
        <pt x="934" y="0" on="1"/>
        <pt x="836" y="0" on="1"/>
        <pt x="1145" y="1462" on="1"/>
        <pt x="1243" y="1462" on="1"/>
      </contour>
      <contour>
        <pt x="473" y="1462" on="1"/>
        <pt x="336" y="813" on="1"/>
        <pt x="420" y="813" on="1"/>
        <pt x="578" y="813" on="0"/>
        <pt x="743" y="655" on="0"/>
        <pt x="743" y="500" on="1"/>
        <pt x="743" y="268" on="0"/>
        <pt x="505" y="0" on="0"/>
        <pt x="297" y="0" on="1"/>
        <pt x="66" y="0" on="1"/>
        <pt x="375" y="1462" on="1"/>
      </contour>
      <contour>
        <pt x="182" y="90" on="1"/>
        <pt x="317" y="90" on="1"/>
        <pt x="471" y="90" on="0"/>
        <pt x="641" y="307" on="0"/>
        <pt x="641" y="498" on="1"/>
        <pt x="641" y="613" on="0"/>
        <pt x="518" y="723" on="0"/>
        <pt x="391" y="723" on="1"/>
        <pt x="317" y="723" on="1"/>
      </contour>
    </TTGlyph>
    <TTGlyph name="afii10046" xMin="66" yMin="0" xMax="743" yMax="1462">
      <contour>
        <pt x="471" y="1462" on="1"/>
        <pt x="336" y="813" on="1"/>
        <pt x="416" y="813" on="1"/>
        <pt x="576" y="813" on="0"/>
        <pt x="743" y="652" on="0"/>
        <pt x="743" y="500" on="1"/>
        <pt x="743" y="268" on="0"/>
        <pt x="505" y="0" on="0"/>
        <pt x="297" y="0" on="1"/>
        <pt x="66" y="0" on="1"/>
        <pt x="373" y="1462" on="1"/>
      </contour>
      <contour>
        <pt x="182" y="90" on="1"/>
        <pt x="317" y="90" on="1"/>
        <pt x="471" y="90" on="0"/>
        <pt x="641" y="307" on="0"/>
        <pt x="641" y="498" on="1"/>
        <pt x="641" y="613" on="0"/>
        <pt x="518" y="723" on="0"/>
        <pt x="391" y="723" on="1"/>
        <pt x="317" y="723" on="1"/>
      </contour>
    </TTGlyph>
    <TTGlyph name="afii10047" xMin="0" yMin="-20" xMax="788" yMax="1485">
      <contour>
        <pt x="492" y="1485" on="1"/>
        <pt x="632" y="1485" on="0"/>
        <pt x="788" y="1265" on="0"/>
        <pt x="788" y="1055" on="1"/>
        <pt x="788" y="737" on="0"/>
        <pt x="641" y="240" on="0"/>
        <pt x="376" y="-20" on="0"/>
        <pt x="199" y="-20" on="1"/>
        <pt x="87" y="-20" on="0"/>
        <pt x="0" y="14" on="1"/>
        <pt x="0" y="113" on="1"/>
        <pt x="105" y="74" on="0"/>
        <pt x="199" y="74" on="1"/>
        <pt x="368" y="74" on="0"/>
        <pt x="604" y="393" on="0"/>
        <pt x="657" y="719" on="1"/>
        <pt x="242" y="719" on="1"/>
        <pt x="262" y="813" on="1"/>
        <pt x="670" y="813" on="1"/>
        <pt x="690" y="931" on="0"/>
        <pt x="690" y="1044" on="1"/>
        <pt x="690" y="1213" on="0"/>
        <pt x="576" y="1391" on="0"/>
        <pt x="471" y="1391" on="1"/>
        <pt x="381" y="1391" on="0"/>
        <pt x="291" y="1335" on="1"/>
        <pt x="256" y="1425" on="1"/>
        <pt x="355" y="1485" on="0"/>
      </contour>
    </TTGlyph>
    <TTGlyph name="afii10048" xMin="66" yMin="-20" xMax="1272" yMax="1483">
      <contour>
        <pt x="1272" y="1116" on="1"/>
        <pt x="1272" y="860" on="0"/>
        <pt x="1122" y="307" on="0"/>
        <pt x="872" y="-20" on="0"/>
        <pt x="725" y="-20" on="1"/>
        <pt x="477" y="-20" on="0"/>
        <pt x="477" y="344" on="1"/>
        <pt x="477" y="496" on="0"/>
        <pt x="524" y="719" on="1"/>
        <pt x="315" y="719" on="1"/>
        <pt x="164" y="0" on="1"/>
        <pt x="66" y="0" on="1"/>
        <pt x="375" y="1462" on="1"/>
        <pt x="473" y="1462" on="1"/>
        <pt x="336" y="813" on="1"/>
        <pt x="543" y="813" on="1"/>
        <pt x="626" y="1161" on="0"/>
        <pt x="863" y="1483" on="0"/>
        <pt x="1026" y="1483" on="1"/>
        <pt x="1145" y="1483" on="0"/>
        <pt x="1272" y="1293" on="0"/>
      </contour>
      <contour>
        <pt x="1010" y="1389" on="1"/>
        <pt x="901" y="1389" on="0"/>
        <pt x="702" y="1070" on="0"/>
        <pt x="575" y="541" on="0"/>
        <pt x="575" y="340" on="1"/>
        <pt x="575" y="74" on="0"/>
        <pt x="733" y="74" on="1"/>
        <pt x="840" y="74" on="0"/>
        <pt x="1038" y="368" on="0"/>
        <pt x="1174" y="898" on="0"/>
        <pt x="1174" y="1124" on="1"/>
        <pt x="1174" y="1250" on="0"/>
        <pt x="1098" y="1389" on="0"/>
      </contour>
    </TTGlyph>
    <TTGlyph name="afii10049" xMin="-37" yMin="0" xMax="877" yMax="1462">
      <contour>
        <pt x="477" y="637" on="1"/>
        <pt x="76" y="0" on="1"/>
        <pt x="-37" y="0" on="1"/>
        <pt x="389" y="662" on="1"/>
        <pt x="306" y="698" on="0"/>
        <pt x="217" y="867" on="0"/>
        <pt x="217" y="989" on="1"/>
        <pt x="217" y="1130" on="0"/>
        <pt x="325" y="1345" on="0"/>
        <pt x="530" y="1462" on="0"/>
        <pt x="672" y="1462" on="1"/>
        <pt x="877" y="1462" on="1"/>
        <pt x="567" y="0" on="1"/>
        <pt x="469" y="0" on="1"/>
        <pt x="604" y="637" on="1"/>
      </contour>
      <contour>
        <pt x="760" y="1372" on="1"/>
        <pt x="664" y="1372" on="1"/>
        <pt x="504" y="1372" on="0"/>
        <pt x="319" y="1173" on="0"/>
        <pt x="319" y="995" on="1"/>
        <pt x="319" y="725" on="0"/>
        <pt x="545" y="725" on="1"/>
        <pt x="623" y="725" on="1"/>
      </contour>
    </TTGlyph>
    <TTGlyph name="afii10050" xMin="63" yMin="0" xMax="879" yMax="1763">
      <contour>
        <pt x="453" y="1368" on="1"/>
        <pt x="162" y="0" on="1"/>
        <pt x="63" y="0" on="1"/>
        <pt x="375" y="1462" on="1"/>
        <pt x="719" y="1462" on="1"/>
        <pt x="782" y="1763" on="1"/>
        <pt x="879" y="1763" on="1"/>
        <pt x="795" y="1368" on="1"/>
      </contour>
    </TTGlyph>
    <TTGlyph name="afii10051" xMin="131" yMin="-20" xMax="784" yMax="1462">
      <contour>
        <pt x="446" y="-20" on="1"/>
        <pt x="394" y="-20" on="0"/>
        <pt x="324" y="2" on="1"/>
        <pt x="344" y="94" on="1"/>
        <pt x="386" y="74" on="0"/>
        <pt x="442" y="74" on="1"/>
        <pt x="516" y="74" on="0"/>
        <pt x="598" y="188" on="0"/>
        <pt x="627" y="324" on="1"/>
        <pt x="674" y="543" on="1"/>
        <pt x="686" y="598" on="0"/>
        <pt x="686" y="641" on="1"/>
        <pt x="686" y="709" on="0"/>
        <pt x="610" y="782" on="0"/>
        <pt x="516" y="782" on="1"/>
        <pt x="395" y="782" on="1"/>
        <pt x="229" y="0" on="1"/>
        <pt x="131" y="0" on="1"/>
        <pt x="422" y="1368" on="1"/>
        <pt x="205" y="1368" on="1"/>
        <pt x="225" y="1462" on="1"/>
        <pt x="780" y="1462" on="1"/>
        <pt x="760" y="1368" on="1"/>
        <pt x="520" y="1368" on="1"/>
        <pt x="416" y="877" on="1"/>
        <pt x="498" y="877" on="1"/>
        <pt x="647" y="877" on="0"/>
        <pt x="784" y="771" on="0"/>
        <pt x="784" y="657" on="1"/>
        <pt x="784" y="618" on="0"/>
        <pt x="770" y="543" on="1"/>
        <pt x="717" y="293" on="1"/>
        <pt x="679" y="117" on="0"/>
        <pt x="552" y="-20" on="0"/>
      </contour>
    </TTGlyph>
    <TTGlyph name="afii10052" xMin="66" yMin="0" xMax="882" yMax="1907">
      <component glyphName="Gamma" x="0" y="0" flags="0x204"/>
      <component glyphName="acute" x="20" y="338" flags="0x4"/>
    </TTGlyph>
    <TTGlyph name="afii10053" xMin="141" yMin="-20" xMax="952" yMax="1485">
      <contour>
        <pt x="745" y="1389" on="1"/>
        <pt x="596" y="1389" on="0"/>
        <pt x="352" y="1080" on="0"/>
        <pt x="285" y="813" on="1"/>
        <pt x="698" y="813" on="1"/>
        <pt x="678" y="719" on="1"/>
        <pt x="264" y="719" on="1"/>
        <pt x="240" y="587" on="0"/>
        <pt x="240" y="467" on="1"/>
        <pt x="240" y="255" on="0"/>
        <pt x="347" y="72" on="0"/>
        <pt x="465" y="72" on="1"/>
        <pt x="565" y="72" on="0"/>
        <pt x="647" y="113" on="1"/>
        <pt x="647" y="20" on="1"/>
        <pt x="609" y="2" on="0"/>
        <pt x="504" y="-20" on="0"/>
        <pt x="455" y="-20" on="1"/>
        <pt x="293" y="-20" on="0"/>
        <pt x="141" y="211" on="0"/>
        <pt x="141" y="449" on="1"/>
        <pt x="141" y="713" on="0"/>
        <pt x="307" y="1207" on="0"/>
        <pt x="584" y="1485" on="0"/>
        <pt x="748" y="1485" on="1"/>
        <pt x="878" y="1485" on="0"/>
        <pt x="952" y="1423" on="1"/>
        <pt x="891" y="1337" on="1"/>
        <pt x="831" y="1389" on="0"/>
      </contour>
    </TTGlyph>
    <TTGlyph name="afii10054" xMin="10" yMin="-20" xMax="844" yMax="1483">
      <component glyphName="S" x="0" y="0" flags="0x204"/>
    </TTGlyph>
    <TTGlyph name="afii10055" xMin="66" yMin="0" xMax="473" yMax="1462">
      <component glyphName="I" x="0" y="0" flags="0x204"/>
    </TTGlyph>
    <TTGlyph name="afii10055.alt" xMin="-23" yMin="0" xMax="602" yMax="1462">
      <component glyphName="I.alt" x="0" y="0" flags="0x204"/>
    </TTGlyph>
    <TTGlyph name="afii10056" xMin="66" yMin="0" xMax="656" yMax="1813">
      <component glyphName="I" x="0" y="0" flags="0x204"/>
      <component glyphName="dieresis" x="-198" y="338" flags="0x4"/>
    </TTGlyph>
    <TTGlyph name="afii10056.alt" xMin="-23" yMin="0" xMax="683" yMax="1813">
      <component glyphName="I.alt" x="0" y="0" flags="0x204"/>
      <component glyphName="dieresis" x="-171" y="338" flags="0x4"/>
    </TTGlyph>
    <TTGlyph name="afii10057" xMin="-227" yMin="-369" xMax="475" yMax="1462">
      <component glyphName="J" x="0" y="0" flags="0x204"/>
    </TTGlyph>
    <TTGlyph name="afii10058" xMin="-84" yMin="-10" xMax="1112" yMax="1462">
      <contour>
        <pt x="877" y="1462" on="1"/>
        <pt x="741" y="813" on="1"/>
        <pt x="784" y="813" on="1"/>
        <pt x="944" y="813" on="0"/>
        <pt x="1112" y="653" on="0"/>
        <pt x="1112" y="500" on="1"/>
        <pt x="1112" y="270" on="0"/>
        <pt x="873" y="0" on="0"/>
        <pt x="666" y="0" on="1"/>
        <pt x="471" y="0" on="1"/>
        <pt x="758" y="1368" on="1"/>
        <pt x="565" y="1368" on="1"/>
        <pt x="473" y="1040" on="0"/>
        <pt x="269" y="349" on="0"/>
        <pt x="174" y="97" on="0"/>
        <pt x="73" y="-10" on="0"/>
        <pt x="-2" y="-10" on="1"/>
        <pt x="-38" y="-10" on="0"/>
        <pt x="-84" y="2" on="1"/>
        <pt x="-84" y="96" on="1"/>
        <pt x="-53" y="84" on="0"/>
        <pt x="-18" y="84" on="1"/>
        <pt x="85" y="84" on="0"/>
        <pt x="159" y="319" on="1"/>
        <pt x="197" y="438" on="1"/>
        <pt x="233" y="550" on="0"/>
        <pt x="317" y="838" on="1"/>
        <pt x="498" y="1462" on="1"/>
      </contour>
      <contour>
        <pt x="588" y="90" on="1"/>
        <pt x="686" y="90" on="1"/>
        <pt x="840" y="90" on="0"/>
        <pt x="1010" y="307" on="0"/>
        <pt x="1010" y="498" on="1"/>
        <pt x="1010" y="613" on="0"/>
        <pt x="887" y="723" on="0"/>
        <pt x="760" y="723" on="1"/>
        <pt x="723" y="723" on="1"/>
      </contour>
    </TTGlyph>
    <TTGlyph name="afii10059" xMin="66" yMin="0" xMax="1167" yMax="1462">
      <contour>
        <pt x="932" y="1462" on="1"/>
        <pt x="797" y="813" on="1"/>
        <pt x="840" y="813" on="1"/>
        <pt x="1000" y="813" on="0"/>
        <pt x="1167" y="652" on="0"/>
        <pt x="1167" y="500" on="1"/>
        <pt x="1167" y="268" on="0"/>
        <pt x="929" y="0" on="0"/>
        <pt x="721" y="0" on="1"/>
        <pt x="526" y="0" on="1"/>
        <pt x="678" y="723" on="1"/>
        <pt x="317" y="723" on="1"/>
        <pt x="164" y="0" on="1"/>
        <pt x="66" y="0" on="1"/>
        <pt x="375" y="1462" on="1"/>
        <pt x="473" y="1462" on="1"/>
        <pt x="336" y="813" on="1"/>
        <pt x="696" y="813" on="1"/>
        <pt x="834" y="1462" on="1"/>
      </contour>
      <contour>
        <pt x="643" y="90" on="1"/>
        <pt x="741" y="90" on="1"/>
        <pt x="895" y="90" on="0"/>
        <pt x="1065" y="307" on="0"/>
        <pt x="1065" y="498" on="1"/>
        <pt x="1065" y="613" on="0"/>
        <pt x="942" y="723" on="0"/>
        <pt x="815" y="723" on="1"/>
        <pt x="778" y="723" on="1"/>
      </contour>
    </TTGlyph>
    <TTGlyph name="afii10060" xMin="152" yMin="0" xMax="799" yMax="1462">
      <contour>
        <pt x="436" y="877" on="1"/>
        <pt x="520" y="877" on="1"/>
        <pt x="658" y="877" on="0"/>
        <pt x="784" y="773" on="0"/>
        <pt x="784" y="664" on="1"/>
        <pt x="784" y="604" on="0"/>
        <pt x="770" y="543" on="1"/>
        <pt x="655" y="0" on="1"/>
        <pt x="557" y="0" on="1"/>
        <pt x="672" y="543" on="1"/>
        <pt x="684" y="604" on="0"/>
        <pt x="684" y="647" on="1"/>
        <pt x="684" y="723" on="0"/>
        <pt x="607" y="782" on="0"/>
        <pt x="526" y="782" on="1"/>
        <pt x="416" y="782" on="1"/>
        <pt x="250" y="0" on="1"/>
        <pt x="152" y="0" on="1"/>
        <pt x="442" y="1368" on="1"/>
        <pt x="225" y="1368" on="1"/>
        <pt x="244" y="1462" on="1"/>
        <pt x="799" y="1462" on="1"/>
        <pt x="780" y="1368" on="1"/>
        <pt x="541" y="1368" on="1"/>
      </contour>
    </TTGlyph>
    <TTGlyph name="afii10061" xMin="66" yMin="0" xMax="948" yMax="1907">
      <component glyphName="afii10028" x="0" y="0" flags="0x204"/>
      <component glyphName="acute" x="86" y="338" flags="0x4"/>
    </TTGlyph>
    <TTGlyph name="afii10062" xMin="-39" yMin="-16" xMax="850" yMax="1860">
      <component glyphName="afii10037" x="0" y="0" flags="0x204"/>
      <component glyphName="cyrillicbreve" x="-120" y="338" flags="0x4"/>
    </TTGlyph>
    <TTGlyph name="afii10065" xMin="119" yMin="-20" xMax="860" yMax="1106">
      <component glyphName="a" x="0" y="0" flags="0x204"/>
    </TTGlyph>
    <TTGlyph name="afii10066" xMin="119" yMin="-20" xMax="928" yMax="1563">
      <contour>
        <pt x="213" y="291" on="1"/>
        <pt x="213" y="66" on="0"/>
        <pt x="340" y="66" on="1"/>
        <pt x="427" y="66" on="0"/>
        <pt x="565" y="236" on="0"/>
        <pt x="653" y="574" on="0"/>
        <pt x="653" y="719" on="1"/>
        <pt x="653" y="822" on="0"/>
        <pt x="583" y="915" on="0"/>
        <pt x="514" y="915" on="1"/>
        <pt x="448" y="915" on="0"/>
        <pt x="313" y="806" on="0"/>
        <pt x="266" y="707" on="1"/>
        <pt x="213" y="440" on="0"/>
      </contour>
      <contour>
        <pt x="928" y="1563" on="1"/>
        <pt x="928" y="1477" on="1"/>
        <pt x="718" y="1457" on="0"/>
        <pt x="500" y="1349" on="0"/>
        <pt x="363" y="1115" on="0"/>
        <pt x="297" y="858" on="1"/>
        <pt x="305" y="858" on="1"/>
        <pt x="402" y="1006" on="0"/>
        <pt x="547" y="1006" on="1"/>
        <pt x="647" y="1006" on="0"/>
        <pt x="752" y="858" on="0"/>
        <pt x="752" y="719" on="1"/>
        <pt x="752" y="592" on="0"/>
        <pt x="683" y="296" on="0"/>
        <pt x="573" y="92" on="0"/>
        <pt x="425" y="-20" on="0"/>
        <pt x="334" y="-20" on="1"/>
        <pt x="237" y="-20" on="0"/>
        <pt x="119" y="135" on="0"/>
        <pt x="119" y="293" on="1"/>
        <pt x="119" y="483" on="0"/>
        <pt x="261" y="1102" on="0"/>
        <pt x="424" y="1400" on="0"/>
        <pt x="676" y="1538" on="0"/>
      </contour>
    </TTGlyph>
    <TTGlyph name="afii10067" xMin="119" yMin="-20" xMax="823" yMax="1106">
      <contour>
        <pt x="721" y="319" on="1"/>
        <pt x="721" y="171" on="0"/>
        <pt x="533" y="-20" on="0"/>
        <pt x="383" y="-20" on="1"/>
        <pt x="119" y="-20" on="0"/>
        <pt x="119" y="287" on="1"/>
        <pt x="119" y="517" on="0"/>
        <pt x="248" y="903" on="0"/>
        <pt x="464" y="1106" on="0"/>
        <pt x="598" y="1106" on="1"/>
        <pt x="699" y="1106" on="0"/>
        <pt x="823" y="987" on="0"/>
        <pt x="823" y="891" on="1"/>
        <pt x="823" y="755" on="0"/>
        <pt x="681" y="571" on="0"/>
        <pt x="559" y="547" on="1"/>
        <pt x="559" y="543" on="1"/>
        <pt x="637" y="526" on="0"/>
        <pt x="721" y="408" on="0"/>
      </contour>
      <contour>
        <pt x="238" y="506" on="1"/>
        <pt x="217" y="365" on="0"/>
        <pt x="217" y="293" on="1"/>
        <pt x="217" y="174" on="0"/>
        <pt x="307" y="63" on="0"/>
        <pt x="395" y="63" on="1"/>
        <pt x="497" y="63" on="0"/>
        <pt x="627" y="208" on="0"/>
        <pt x="627" y="317" on="1"/>
        <pt x="627" y="409" on="0"/>
        <pt x="519" y="506" on="0"/>
        <pt x="418" y="506" on="1"/>
      </contour>
      <contour>
        <pt x="584" y="1018" on="1"/>
        <pt x="468" y="1018" on="0"/>
        <pt x="306" y="810" on="0"/>
        <pt x="252" y="588" on="1"/>
        <pt x="434" y="588" on="1"/>
        <pt x="515" y="588" on="0"/>
        <pt x="650" y="655" on="0"/>
        <pt x="729" y="781" on="0"/>
        <pt x="729" y="874" on="1"/>
        <pt x="729" y="943" on="0"/>
        <pt x="654" y="1018" on="0"/>
      </contour>
    </TTGlyph>
    <TTGlyph name="afii10068" xMin="55" yMin="-20" xMax="639" yMax="1106">
      <contour>
        <pt x="55" y="225" on="1"/>
        <pt x="55" y="315" on="0"/>
        <pt x="109" y="444" on="0"/>
        <pt x="203" y="543" on="0"/>
        <pt x="332" y="621" on="1"/>
        <pt x="429" y="679" on="0"/>
        <pt x="504" y="751" on="0"/>
        <pt x="545" y="838" on="0"/>
        <pt x="545" y="897" on="1"/>
        <pt x="545" y="954" on="0"/>
        <pt x="482" y="1016" on="0"/>
        <pt x="422" y="1016" on="1"/>
        <pt x="371" y="1016" on="0"/>
        <pt x="286" y="984" on="0"/>
        <pt x="244" y="961" on="1"/>
        <pt x="217" y="1042" on="1"/>
        <pt x="322" y="1106" on="0"/>
        <pt x="430" y="1106" on="1"/>
        <pt x="527" y="1106" on="0"/>
        <pt x="639" y="1000" on="0"/>
        <pt x="639" y="901" on="1"/>
        <pt x="639" y="827" on="0"/>
        <pt x="589" y="713" on="0"/>
        <pt x="500" y="623" on="0"/>
        <pt x="389" y="555" on="1"/>
        <pt x="343" y="526" on="0"/>
        <pt x="257" y="470" on="0"/>
        <pt x="190" y="396" on="0"/>
        <pt x="150" y="297" on="0"/>
        <pt x="150" y="225" on="1"/>
        <pt x="150" y="148" on="0"/>
        <pt x="230" y="68" on="0"/>
        <pt x="305" y="68" on="1"/>
        <pt x="364" y="68" on="0"/>
        <pt x="452" y="110" on="0"/>
        <pt x="487" y="135" on="1"/>
        <pt x="487" y="33" on="1"/>
        <pt x="397" y="-20" on="0"/>
        <pt x="291" y="-20" on="1"/>
        <pt x="183" y="-20" on="0"/>
        <pt x="55" y="110" on="0"/>
      </contour>
    </TTGlyph>
    <TTGlyph name="afii10069" xMin="119" yMin="-20" xMax="817" yMax="1573">
      <contour>
        <pt x="817" y="1065" on="1"/>
        <pt x="817" y="759" on="0"/>
        <pt x="695" y="242" on="0"/>
        <pt x="489" y="-20" on="0"/>
        <pt x="356" y="-20" on="1"/>
        <pt x="246" y="-20" on="0"/>
        <pt x="119" y="146" on="0"/>
        <pt x="119" y="289" on="1"/>
        <pt x="119" y="477" on="0"/>
        <pt x="230" y="861" on="0"/>
        <pt x="410" y="1051" on="0"/>
        <pt x="528" y="1051" on="1"/>
        <pt x="591" y="1051" on="0"/>
        <pt x="703" y="985" on="0"/>
        <pt x="727" y="932" on="1"/>
        <pt x="729" y="1116" on="1"/>
        <pt x="729" y="1483" on="0"/>
        <pt x="498" y="1483" on="1"/>
        <pt x="432" y="1483" on="0"/>
        <pt x="354" y="1444" on="1"/>
        <pt x="324" y="1528" on="1"/>
        <pt x="414" y="1573" on="0"/>
        <pt x="508" y="1573" on="1"/>
        <pt x="667" y="1573" on="0"/>
        <pt x="817" y="1337" on="0"/>
      </contour>
      <contour>
        <pt x="356" y="66" on="1"/>
        <pt x="446" y="66" on="0"/>
        <pt x="593" y="245" on="0"/>
        <pt x="698" y="610" on="0"/>
        <pt x="711" y="823" on="1"/>
        <pt x="688" y="887" on="0"/>
        <pt x="587" y="961" on="0"/>
        <pt x="522" y="961" on="1"/>
        <pt x="436" y="961" on="0"/>
        <pt x="300" y="792" on="0"/>
        <pt x="217" y="459" on="0"/>
        <pt x="217" y="291" on="1"/>
        <pt x="217" y="175" on="0"/>
        <pt x="286" y="66" on="0"/>
      </contour>
    </TTGlyph>
    <TTGlyph name="afii10070" xMin="119" yMin="-20" xMax="743" yMax="1106">
      <component glyphName="e" x="0" y="0" flags="0x204"/>
    </TTGlyph>
    <TTGlyph name="afii10071" xMin="119" yMin="-20" xMax="808" yMax="1475">
      <component glyphName="e" x="0" y="0" flags="0x204"/>
      <component glyphName="dieresis" x="-46" y="0" flags="0x4"/>
    </TTGlyph>
    <TTGlyph name="afii10072" xMin="-25" yMin="-12" xMax="1237" yMax="1098">
      <contour>
        <pt x="659" y="588" on="1"/>
        <pt x="795" y="588" on="1"/>
        <pt x="848" y="833" on="0"/>
        <pt x="1055" y="1098" on="0"/>
        <pt x="1194" y="1098" on="1"/>
        <pt x="1216" y="1098" on="1"/>
        <pt x="1237" y="1096" on="1"/>
        <pt x="1219" y="1010" on="1"/>
        <pt x="1203" y="1012" on="1"/>
        <pt x="1186" y="1012" on="1"/>
        <pt x="1093" y="1012" on="0"/>
        <pt x="943" y="822" on="0"/>
        <pt x="850" y="464" on="0"/>
        <pt x="850" y="281" on="1"/>
        <pt x="850" y="172" on="0"/>
        <pt x="924" y="70" on="0"/>
        <pt x="1001" y="70" on="1"/>
        <pt x="1019" y="70" on="1"/>
        <pt x="1034" y="72" on="1"/>
        <pt x="1034" y="-8" on="1"/>
        <pt x="1012" y="-12" on="0"/>
        <pt x="985" y="-12" on="1"/>
        <pt x="762" y="-12" on="0"/>
        <pt x="762" y="279" on="1"/>
        <pt x="762" y="391" on="0"/>
        <pt x="780" y="508" on="1"/>
        <pt x="641" y="508" on="1"/>
        <pt x="535" y="0" on="1"/>
        <pt x="444" y="0" on="1"/>
        <pt x="553" y="508" on="1"/>
        <pt x="418" y="508" on="1"/>
        <pt x="364" y="255" on="0"/>
        <pt x="158" y="-12" on="0"/>
        <pt x="18" y="-12" on="1"/>
        <pt x="-3" y="-12" on="1"/>
        <pt x="-25" y="-10" on="1"/>
        <pt x="-6" y="76" on="1"/>
        <pt x="10" y="74" on="1"/>
        <pt x="27" y="74" on="1"/>
        <pt x="119" y="74" on="0"/>
        <pt x="270" y="265" on="0"/>
        <pt x="362" y="623" on="0"/>
        <pt x="362" y="805" on="1"/>
        <pt x="362" y="920" on="0"/>
        <pt x="283" y="1016" on="0"/>
        <pt x="211" y="1016" on="1"/>
        <pt x="194" y="1016" on="1"/>
        <pt x="178" y="1014" on="1"/>
        <pt x="178" y="1094" on="1"/>
        <pt x="200" y="1098" on="0"/>
        <pt x="227" y="1098" on="1"/>
        <pt x="451" y="1098" on="0"/>
        <pt x="451" y="807" on="1"/>
        <pt x="451" y="706" on="0"/>
        <pt x="432" y="588" on="1"/>
        <pt x="569" y="588" on="1"/>
        <pt x="676" y="1085" on="1"/>
        <pt x="766" y="1085" on="1"/>
      </contour>
    </TTGlyph>
    <TTGlyph name="afii10073" xMin="8" yMin="-20" xMax="594" yMax="1106">
      <contour>
        <pt x="291" y="618" on="1"/>
        <pt x="378" y="618" on="0"/>
        <pt x="500" y="770" on="0"/>
        <pt x="500" y="877" on="1"/>
        <pt x="500" y="1016" on="0"/>
        <pt x="375" y="1016" on="1"/>
        <pt x="301" y="1016" on="0"/>
        <pt x="244" y="979" on="1"/>
        <pt x="211" y="1061" on="1"/>
        <pt x="293" y="1106" on="0"/>
        <pt x="389" y="1106" on="1"/>
        <pt x="489" y="1106" on="0"/>
        <pt x="594" y="992" on="0"/>
        <pt x="594" y="889" on="1"/>
        <pt x="594" y="779" on="0"/>
        <pt x="492" y="618" on="0"/>
        <pt x="399" y="584" on="1"/>
        <pt x="397" y="575" on="1"/>
        <pt x="461" y="549" on="0"/>
        <pt x="516" y="436" on="0"/>
        <pt x="516" y="344" on="1"/>
        <pt x="516" y="242" on="0"/>
        <pt x="441" y="75" on="0"/>
        <pt x="304" y="-20" on="0"/>
        <pt x="211" y="-20" on="1"/>
        <pt x="75" y="-20" on="0"/>
        <pt x="8" y="31" on="1"/>
        <pt x="8" y="137" on="1"/>
        <pt x="98" y="70" on="0"/>
        <pt x="197" y="70" on="1"/>
        <pt x="309" y="70" on="0"/>
        <pt x="422" y="213" on="0"/>
        <pt x="422" y="344" on="1"/>
        <pt x="422" y="432" on="0"/>
        <pt x="348" y="532" on="0"/>
        <pt x="285" y="532" on="1"/>
        <pt x="201" y="532" on="1"/>
        <pt x="219" y="618" on="1"/>
      </contour>
    </TTGlyph>
    <TTGlyph name="afii10074" xMin="123" yMin="-20" xMax="827" yMax="1085">
      <component glyphName="u" x="0" y="0" flags="0x204"/>
    </TTGlyph>
    <TTGlyph name="afii10075" xMin="123" yMin="-20" xMax="855" yMax="1522">
      <component glyphName="u" x="0" y="0" flags="0x204"/>
      <component glyphName="cyrillicbreve" x="-87" y="0" flags="0x4"/>
    </TTGlyph>
    <TTGlyph name="afii10076" xMin="72" yMin="0" xMax="770" yMax="1085">
      <contour>
        <pt x="664" y="1085" on="1"/>
        <pt x="770" y="1085" on="1"/>
        <pt x="385" y="567" on="1"/>
        <pt x="563" y="0" on="1"/>
        <pt x="459" y="0" on="1"/>
        <pt x="287" y="567" on="1"/>
        <pt x="166" y="0" on="1"/>
        <pt x="72" y="0" on="1"/>
        <pt x="303" y="1085" on="1"/>
        <pt x="397" y="1085" on="1"/>
        <pt x="289" y="575" on="1"/>
      </contour>
    </TTGlyph>
    <TTGlyph name="afii10077" xMin="-39" yMin="-10" xMax="766" yMax="1090">
      <contour>
        <pt x="655" y="993" on="1"/>
        <pt x="631" y="999" on="0"/>
        <pt x="600" y="999" on="1"/>
        <pt x="530" y="999" on="0"/>
        <pt x="435" y="905" on="0"/>
        <pt x="364" y="726" on="0"/>
        <pt x="317" y="504" on="1"/>
        <pt x="276" y="317" on="0"/>
        <pt x="192" y="94" on="0"/>
        <pt x="90" y="-10" on="0"/>
        <pt x="14" y="-10" on="1"/>
        <pt x="-18" y="-10" on="0"/>
        <pt x="-39" y="-2" on="1"/>
        <pt x="-39" y="86" on="1"/>
        <pt x="-21" y="80" on="0"/>
        <pt x="6" y="80" on="1"/>
        <pt x="56" y="80" on="0"/>
        <pt x="122" y="165" on="0"/>
        <pt x="187" y="352" on="0"/>
        <pt x="225" y="516" on="1"/>
        <pt x="276" y="741" on="0"/>
        <pt x="346" y="921" on="0"/>
        <pt x="432" y="1031" on="0"/>
        <pt x="544" y="1090" on="0"/>
        <pt x="616" y="1090" on="1"/>
        <pt x="676" y="1090" on="0"/>
        <pt x="766" y="1075" on="1"/>
        <pt x="539" y="0" on="1"/>
        <pt x="444" y="0" on="1"/>
      </contour>
    </TTGlyph>
    <TTGlyph name="afii10078" xMin="72" yMin="0" xMax="991" yMax="1085">
      <contour>
        <pt x="365" y="0" on="1"/>
        <pt x="360" y="924" on="1"/>
        <pt x="352" y="924" on="1"/>
        <pt x="305" y="657" on="1"/>
        <pt x="164" y="0" on="1"/>
        <pt x="72" y="0" on="1"/>
        <pt x="303" y="1085" on="1"/>
        <pt x="438" y="1085" on="1"/>
        <pt x="441" y="291" on="1"/>
        <pt x="434" y="115" on="1"/>
        <pt x="440" y="115" on="1"/>
        <pt x="450" y="141" on="0"/>
        <pt x="518" y="313" on="0"/>
        <pt x="854" y="1085" on="1"/>
        <pt x="991" y="1085" on="1"/>
        <pt x="760" y="0" on="1"/>
        <pt x="668" y="0" on="1"/>
        <pt x="807" y="651" on="1"/>
        <pt x="822" y="724" on="0"/>
        <pt x="874" y="924" on="1"/>
        <pt x="866" y="924" on="1"/>
        <pt x="465" y="0" on="1"/>
      </contour>
    </TTGlyph>
    <TTGlyph name="afii10079" xMin="72" yMin="0" xMax="836" yMax="1085">
      <contour>
        <pt x="397" y="1085" on="1"/>
        <pt x="297" y="610" on="1"/>
        <pt x="641" y="610" on="1"/>
        <pt x="741" y="1085" on="1"/>
        <pt x="836" y="1085" on="1"/>
        <pt x="604" y="0" on="1"/>
        <pt x="510" y="0" on="1"/>
        <pt x="623" y="524" on="1"/>
        <pt x="279" y="524" on="1"/>
        <pt x="166" y="0" on="1"/>
        <pt x="72" y="0" on="1"/>
        <pt x="303" y="1085" on="1"/>
      </contour>
    </TTGlyph>
    <TTGlyph name="afii10080" xMin="119" yMin="-20" xMax="784" yMax="1106">
      <component glyphName="o" x="0" y="0" flags="0x204"/>
    </TTGlyph>
    <TTGlyph name="afii10081" xMin="72" yMin="0" xMax="836" yMax="1085">
      <contour>
        <pt x="836" y="1085" on="1"/>
        <pt x="604" y="0" on="1"/>
        <pt x="510" y="0" on="1"/>
        <pt x="723" y="999" on="1"/>
        <pt x="379" y="999" on="1"/>
        <pt x="166" y="0" on="1"/>
        <pt x="72" y="0" on="1"/>
        <pt x="303" y="1085" on="1"/>
      </contour>
    </TTGlyph>
    <TTGlyph name="afii10082" xMin="-27" yMin="-471" xMax="815" yMax="1106">
      <component glyphName="p" x="0" y="0" flags="0x204"/>
    </TTGlyph>
    <TTGlyph name="afii10083" xMin="119" yMin="-20" xMax="713" yMax="1106">
      <component glyphName="c" x="0" y="0" flags="0x204"/>
    </TTGlyph>
    <TTGlyph name="afii10084" xMin="72" yMin="0" xMax="1165" yMax="1106">
      <component glyphName="m" x="0" y="0" flags="0x204"/>
    </TTGlyph>
    <TTGlyph name="afii10085" xMin="-158" yMin="-492" xMax="752" yMax="1085">
      <component glyphName="y" x="0" y="0" flags="0x204"/>
    </TTGlyph>
    <TTGlyph name="afii10086" xMin="119" yMin="-492" xMax="899" yMax="1556">
      <contour>
        <pt x="899" y="754" on="1"/>
        <pt x="899" y="565" on="0"/>
        <pt x="766" y="184" on="0"/>
        <pt x="558" y="-19" on="0"/>
        <pt x="434" y="-25" on="1"/>
        <pt x="336" y="-492" on="1"/>
        <pt x="250" y="-492" on="1"/>
        <pt x="350" y="-20" on="1"/>
        <pt x="240" y="-8" on="0"/>
        <pt x="119" y="180" on="0"/>
        <pt x="119" y="338" on="1"/>
        <pt x="119" y="531" on="0"/>
        <pt x="247" y="896" on="0"/>
        <pt x="455" y="1093" on="0"/>
        <pt x="588" y="1106" on="1"/>
        <pt x="678" y="1556" on="1"/>
        <pt x="770" y="1556" on="1"/>
        <pt x="676" y="1104" on="1"/>
        <pt x="899" y="1076" on="0"/>
      </contour>
      <contour>
        <pt x="565" y="1020" on="1"/>
        <pt x="467" y="1003" on="0"/>
        <pt x="313" y="823" on="0"/>
        <pt x="215" y="502" on="0"/>
        <pt x="215" y="338" on="1"/>
        <pt x="215" y="218" on="0"/>
        <pt x="291" y="77" on="0"/>
        <pt x="362" y="66" on="1"/>
      </contour>
      <contour>
        <pt x="455" y="66" on="1"/>
        <pt x="546" y="72" on="0"/>
        <pt x="701" y="258" on="0"/>
        <pt x="803" y="596" on="0"/>
        <pt x="803" y="754" on="1"/>
        <pt x="803" y="878" on="0"/>
        <pt x="733" y="1008" on="0"/>
        <pt x="657" y="1020" on="1"/>
      </contour>
    </TTGlyph>
    <TTGlyph name="afii10087" xMin="-27" yMin="0" xMax="737" yMax="1085">
      <component glyphName="x" x="0" y="0" flags="0x204"/>
    </TTGlyph>
    <TTGlyph name="afii10088" xMin="123" yMin="-369" xMax="827" yMax="1085">
      <contour>
        <pt x="395" y="1085" on="1"/>
        <pt x="233" y="330" on="1"/>
        <pt x="215" y="252" on="0"/>
        <pt x="215" y="195" on="1"/>
        <pt x="215" y="72" on="0"/>
        <pt x="309" y="72" on="1"/>
        <pt x="518" y="72" on="0"/>
        <pt x="606" y="489" on="1"/>
        <pt x="733" y="1085" on="1"/>
        <pt x="827" y="1085" on="1"/>
        <pt x="633" y="176" on="1"/>
        <pt x="629" y="145" on="1"/>
        <pt x="629" y="90" on="0"/>
        <pt x="692" y="90" on="1"/>
        <pt x="733" y="94" on="1"/>
        <pt x="635" y="-369" on="1"/>
        <pt x="539" y="-369" on="1"/>
        <pt x="614" y="-4" on="1"/>
        <pt x="571" y="6" on="0"/>
        <pt x="530" y="68" on="0"/>
        <pt x="530" y="135" on="1"/>
        <pt x="526" y="135" on="1"/>
        <pt x="425" y="-20" on="0"/>
        <pt x="287" y="-20" on="1"/>
        <pt x="123" y="-20" on="0"/>
        <pt x="123" y="178" on="1"/>
        <pt x="123" y="257" on="0"/>
        <pt x="143" y="344" on="1"/>
        <pt x="301" y="1085" on="1"/>
      </contour>
    </TTGlyph>
    <TTGlyph name="afii10089" xMin="180" yMin="0" xMax="817" yMax="1085">
      <contour>
        <pt x="377" y="1085" on="1"/>
        <pt x="281" y="637" on="1"/>
        <pt x="274" y="605" on="0"/>
        <pt x="274" y="578" on="1"/>
        <pt x="274" y="461" on="0"/>
        <pt x="379" y="461" on="1"/>
        <pt x="592" y="461" on="0"/>
        <pt x="668" y="823" on="1"/>
        <pt x="723" y="1085" on="1"/>
        <pt x="817" y="1085" on="1"/>
        <pt x="586" y="0" on="1"/>
        <pt x="492" y="0" on="1"/>
        <pt x="602" y="510" on="1"/>
        <pt x="559" y="449" on="0"/>
        <pt x="423" y="373" on="0"/>
        <pt x="348" y="373" on="1"/>
        <pt x="273" y="373" on="0"/>
        <pt x="180" y="467" on="0"/>
        <pt x="180" y="561" on="1"/>
        <pt x="180" y="607" on="0"/>
        <pt x="193" y="659" on="1"/>
        <pt x="283" y="1085" on="1"/>
      </contour>
    </TTGlyph>
    <TTGlyph name="afii10090" xMin="123" yMin="-20" xMax="1202" yMax="1085">
      <contour>
        <pt x="799" y="1085" on="1"/>
        <pt x="637" y="330" on="1"/>
        <pt x="618" y="248" on="0"/>
        <pt x="618" y="195" on="1"/>
        <pt x="618" y="72" on="0"/>
        <pt x="713" y="72" on="1"/>
        <pt x="811" y="72" on="0"/>
        <pt x="935" y="268" on="0"/>
        <pt x="981" y="489" on="1"/>
        <pt x="1108" y="1085" on="1"/>
        <pt x="1202" y="1085" on="1"/>
        <pt x="969" y="0" on="1"/>
        <pt x="895" y="0" on="1"/>
        <pt x="903" y="117" on="1"/>
        <pt x="899" y="117" on="1"/>
        <pt x="850" y="43" on="0"/>
        <pt x="756" y="-20" on="0"/>
        <pt x="690" y="-20" on="1"/>
        <pt x="552" y="-20" on="0"/>
        <pt x="528" y="125" on="1"/>
        <pt x="474" y="51" on="0"/>
        <pt x="363" y="-20" on="0"/>
        <pt x="287" y="-20" on="1"/>
        <pt x="123" y="-20" on="0"/>
        <pt x="123" y="178" on="1"/>
        <pt x="123" y="257" on="0"/>
        <pt x="143" y="344" on="1"/>
        <pt x="301" y="1085" on="1"/>
        <pt x="395" y="1085" on="1"/>
        <pt x="233" y="330" on="1"/>
        <pt x="215" y="252" on="0"/>
        <pt x="215" y="195" on="1"/>
        <pt x="215" y="72" on="0"/>
        <pt x="309" y="72" on="1"/>
        <pt x="398" y="72" on="0"/>
        <pt x="519" y="239" on="0"/>
        <pt x="567" y="446" on="1"/>
        <pt x="705" y="1085" on="1"/>
      </contour>
    </TTGlyph>
    <TTGlyph name="afii10091" xMin="123" yMin="-369" xMax="1202" yMax="1085">
      <contour>
        <pt x="799" y="1085" on="1"/>
        <pt x="637" y="330" on="1"/>
        <pt x="618" y="248" on="0"/>
        <pt x="618" y="195" on="1"/>
        <pt x="618" y="72" on="0"/>
        <pt x="713" y="72" on="1"/>
        <pt x="811" y="72" on="0"/>
        <pt x="935" y="268" on="0"/>
        <pt x="981" y="489" on="1"/>
        <pt x="1108" y="1085" on="1"/>
        <pt x="1202" y="1085" on="1"/>
        <pt x="1008" y="176" on="1"/>
        <pt x="1004" y="145" on="1"/>
        <pt x="1004" y="90" on="0"/>
        <pt x="1067" y="90" on="1"/>
        <pt x="1108" y="94" on="1"/>
        <pt x="1010" y="-369" on="1"/>
        <pt x="913" y="-369" on="1"/>
        <pt x="989" y="-4" on="1"/>
        <pt x="958" y="3" on="0"/>
        <pt x="923" y="29" on="0"/>
        <pt x="907" y="69" on="0"/>
        <pt x="905" y="117" on="1"/>
        <pt x="901" y="117" on="1"/>
        <pt x="856" y="46" on="0"/>
        <pt x="758" y="-20" on="0"/>
        <pt x="690" y="-20" on="1"/>
        <pt x="552" y="-20" on="0"/>
        <pt x="528" y="125" on="1"/>
        <pt x="474" y="51" on="0"/>
        <pt x="363" y="-20" on="0"/>
        <pt x="287" y="-20" on="1"/>
        <pt x="123" y="-20" on="0"/>
        <pt x="123" y="178" on="1"/>
        <pt x="123" y="257" on="0"/>
        <pt x="143" y="344" on="1"/>
        <pt x="301" y="1085" on="1"/>
        <pt x="395" y="1085" on="1"/>
        <pt x="233" y="330" on="1"/>
        <pt x="215" y="252" on="0"/>
        <pt x="215" y="195" on="1"/>
        <pt x="215" y="72" on="0"/>
        <pt x="309" y="72" on="1"/>
        <pt x="398" y="72" on="0"/>
        <pt x="519" y="239" on="0"/>
        <pt x="567" y="446" on="1"/>
        <pt x="705" y="1085" on="1"/>
      </contour>
    </TTGlyph>
    <TTGlyph name="afii10092" xMin="160" yMin="-20" xMax="737" yMax="1085">
      <contour>
        <pt x="381" y="592" on="1"/>
        <pt x="431" y="598" on="0"/>
        <pt x="496" y="598" on="1"/>
        <pt x="737" y="593" on="0"/>
        <pt x="737" y="326" on="1"/>
        <pt x="737" y="175" on="0"/>
        <pt x="568" y="-20" on="0"/>
        <pt x="436" y="-20" on="1"/>
        <pt x="215" y="-20" on="0"/>
        <pt x="215" y="207" on="1"/>
        <pt x="215" y="278" on="0"/>
        <pt x="231" y="348" on="1"/>
        <pt x="371" y="999" on="1"/>
        <pt x="160" y="999" on="1"/>
        <pt x="178" y="1085" on="1"/>
        <pt x="481" y="1085" on="1"/>
      </contour>
      <contour>
        <pt x="643" y="319" on="1"/>
        <pt x="643" y="512" on="0"/>
        <pt x="483" y="512" on="1"/>
        <pt x="442" y="512" on="0"/>
        <pt x="365" y="504" on="1"/>
        <pt x="326" y="338" on="1"/>
        <pt x="309" y="272" on="0"/>
        <pt x="309" y="213" on="1"/>
        <pt x="309" y="61" on="0"/>
        <pt x="440" y="61" on="1"/>
        <pt x="531" y="61" on="0"/>
        <pt x="643" y="202" on="0"/>
      </contour>
    </TTGlyph>
    <TTGlyph name="afii10093" xMin="129" yMin="-20" xMax="1044" yMax="1085">
      <contour>
        <pt x="813" y="0" on="1"/>
        <pt x="717" y="0" on="1"/>
        <pt x="948" y="1085" on="1"/>
        <pt x="1044" y="1085" on="1"/>
      </contour>
      <contour>
        <pt x="397" y="1085" on="1"/>
        <pt x="293" y="592" on="1"/>
        <pt x="343" y="598" on="0"/>
        <pt x="410" y="598" on="1"/>
        <pt x="651" y="593" on="0"/>
        <pt x="651" y="326" on="1"/>
        <pt x="651" y="180" on="0"/>
        <pt x="479" y="-20" on="0"/>
        <pt x="350" y="-20" on="1"/>
        <pt x="129" y="-20" on="0"/>
        <pt x="129" y="207" on="1"/>
        <pt x="129" y="278" on="0"/>
        <pt x="145" y="348" on="1"/>
        <pt x="303" y="1085" on="1"/>
      </contour>
      <contour>
        <pt x="557" y="319" on="1"/>
        <pt x="557" y="512" on="0"/>
        <pt x="397" y="512" on="1"/>
        <pt x="353" y="512" on="0"/>
        <pt x="276" y="504" on="1"/>
        <pt x="240" y="338" on="1"/>
        <pt x="223" y="272" on="0"/>
        <pt x="223" y="213" on="1"/>
        <pt x="223" y="61" on="0"/>
        <pt x="354" y="61" on="1"/>
        <pt x="442" y="61" on="0"/>
        <pt x="557" y="206" on="0"/>
      </contour>
    </TTGlyph>
    <TTGlyph name="afii10094" xMin="129" yMin="-20" xMax="657" yMax="1085">
      <contour>
        <pt x="397" y="1085" on="1"/>
        <pt x="293" y="592" on="1"/>
        <pt x="342" y="598" on="0"/>
        <pt x="416" y="598" on="1"/>
        <pt x="657" y="593" on="0"/>
        <pt x="657" y="326" on="1"/>
        <pt x="657" y="176" on="0"/>
        <pt x="482" y="-20" on="0"/>
        <pt x="350" y="-20" on="1"/>
        <pt x="129" y="-20" on="0"/>
        <pt x="129" y="207" on="1"/>
        <pt x="129" y="278" on="0"/>
        <pt x="145" y="348" on="1"/>
        <pt x="303" y="1085" on="1"/>
      </contour>
      <contour>
        <pt x="563" y="319" on="1"/>
        <pt x="563" y="512" on="0"/>
        <pt x="403" y="512" on="1"/>
        <pt x="356" y="512" on="0"/>
        <pt x="279" y="504" on="1"/>
        <pt x="240" y="338" on="1"/>
        <pt x="223" y="272" on="0"/>
        <pt x="223" y="213" on="1"/>
        <pt x="223" y="61" on="0"/>
        <pt x="354" y="61" on="1"/>
        <pt x="446" y="61" on="0"/>
        <pt x="563" y="202" on="0"/>
      </contour>
    </TTGlyph>
    <TTGlyph name="afii10095" xMin="2" yMin="-20" xMax="616" yMax="1106">
      <contour>
        <pt x="227" y="524" on="1"/>
        <pt x="246" y="610" on="1"/>
        <pt x="504" y="610" on="1"/>
        <pt x="522" y="718" on="0"/>
        <pt x="522" y="799" on="1"/>
        <pt x="522" y="1016" on="0"/>
        <pt x="354" y="1016" on="1"/>
        <pt x="285" y="1016" on="0"/>
        <pt x="223" y="981" on="1"/>
        <pt x="203" y="1065" on="1"/>
        <pt x="288" y="1106" on="0"/>
        <pt x="381" y="1106" on="1"/>
        <pt x="493" y="1106" on="0"/>
        <pt x="616" y="954" on="0"/>
        <pt x="616" y="811" on="1"/>
        <pt x="616" y="579" on="0"/>
        <pt x="498" y="187" on="0"/>
        <pt x="292" y="-20" on="0"/>
        <pt x="156" y="-20" on="1"/>
        <pt x="75" y="-20" on="0"/>
        <pt x="2" y="6" on="1"/>
        <pt x="2" y="100" on="1"/>
        <pt x="69" y="70" on="0"/>
        <pt x="141" y="70" on="1"/>
        <pt x="271" y="70" on="0"/>
        <pt x="443" y="282" on="0"/>
        <pt x="492" y="524" on="1"/>
      </contour>
    </TTGlyph>
    <TTGlyph name="afii10096" xMin="72" yMin="-20" xMax="1061" yMax="1106">
      <contour>
        <pt x="1061" y="811" on="1"/>
        <pt x="1061" y="611" on="0"/>
        <pt x="945" y="208" on="0"/>
        <pt x="753" y="-20" on="0"/>
        <pt x="643" y="-20" on="1"/>
        <pt x="428" y="-20" on="0"/>
        <pt x="428" y="266" on="1"/>
        <pt x="428" y="388" on="0"/>
        <pt x="457" y="524" on="1"/>
        <pt x="276" y="524" on="1"/>
        <pt x="164" y="0" on="1"/>
        <pt x="72" y="0" on="1"/>
        <pt x="303" y="1085" on="1"/>
        <pt x="395" y="1085" on="1"/>
        <pt x="295" y="610" on="1"/>
        <pt x="475" y="610" on="1"/>
        <pt x="531" y="849" on="0"/>
        <pt x="724" y="1106" on="0"/>
        <pt x="854" y="1106" on="1"/>
        <pt x="1061" y="1106" on="0"/>
      </contour>
      <contour>
        <pt x="846" y="1016" on="1"/>
        <pt x="761" y="1016" on="0"/>
        <pt x="616" y="811" on="0"/>
        <pt x="520" y="432" on="0"/>
        <pt x="520" y="264" on="1"/>
        <pt x="520" y="165" on="0"/>
        <pt x="578" y="66" on="0"/>
        <pt x="643" y="66" on="1"/>
        <pt x="728" y="66" on="0"/>
        <pt x="873" y="270" on="0"/>
        <pt x="969" y="645" on="0"/>
        <pt x="969" y="811" on="1"/>
        <pt x="969" y="920" on="0"/>
        <pt x="908" y="1016" on="0"/>
      </contour>
    </TTGlyph>
    <TTGlyph name="afii10097" xMin="-29" yMin="-6" xMax="758" yMax="1085">
      <contour>
        <pt x="436" y="479" on="1"/>
        <pt x="399" y="479" on="0"/>
        <pt x="343" y="437" on="0"/>
        <pt x="296" y="362" on="0"/>
        <pt x="250" y="246" on="1"/>
        <pt x="212" y="150" on="1"/>
        <pt x="181" y="72" on="0"/>
        <pt x="95" y="-4" on="0"/>
        <pt x="31" y="-6" on="1"/>
        <pt x="-1" y="-6" on="0"/>
        <pt x="-29" y="0" on="1"/>
        <pt x="-29" y="82" on="1"/>
        <pt x="-16" y="76" on="0"/>
        <pt x="16" y="76" on="1"/>
        <pt x="90" y="78" on="0"/>
        <pt x="138" y="203" on="1"/>
        <pt x="192" y="346" on="0"/>
        <pt x="238" y="437" on="0"/>
        <pt x="287" y="500" on="0"/>
        <pt x="311" y="510" on="1"/>
        <pt x="180" y="557" on="0"/>
        <pt x="180" y="735" on="1"/>
        <pt x="180" y="893" on="0"/>
        <pt x="377" y="1085" on="0"/>
        <pt x="547" y="1085" on="1"/>
        <pt x="758" y="1085" on="1"/>
        <pt x="526" y="0" on="1"/>
        <pt x="432" y="0" on="1"/>
        <pt x="535" y="479" on="1"/>
      </contour>
      <contour>
        <pt x="553" y="565" on="1"/>
        <pt x="645" y="999" on="1"/>
        <pt x="530" y="999" on="1"/>
        <pt x="413" y="999" on="0"/>
        <pt x="279" y="855" on="0"/>
        <pt x="279" y="727" on="1"/>
        <pt x="279" y="645" on="0"/>
        <pt x="365" y="565" on="0"/>
        <pt x="461" y="565" on="1"/>
      </contour>
    </TTGlyph>
    <TTGlyph name="afii10098" xMin="55" yMin="0" xMax="711" yMax="1411">
      <contour>
        <pt x="553" y="1085" on="1"/>
        <pt x="621" y="1411" on="1"/>
        <pt x="711" y="1411" on="1"/>
        <pt x="623" y="995" on="1"/>
        <pt x="360" y="995" on="1"/>
        <pt x="150" y="0" on="1"/>
        <pt x="55" y="0" on="1"/>
        <pt x="287" y="1085" on="1"/>
      </contour>
    </TTGlyph>
    <TTGlyph name="afii10099" xMin="74" yMin="-473" xMax="780" yMax="1556">
      <contour>
        <pt x="254" y="1354" on="1"/>
        <pt x="360" y="1354" on="1"/>
        <pt x="403" y="1556" on="1"/>
        <pt x="498" y="1556" on="1"/>
        <pt x="453" y="1354" on="1"/>
        <pt x="680" y="1354" on="1"/>
        <pt x="664" y="1270" on="1"/>
        <pt x="434" y="1270" on="1"/>
        <pt x="399" y="1102" on="1"/>
        <pt x="358" y="934" on="1"/>
        <pt x="362" y="934" on="1"/>
        <pt x="455" y="1106" on="0"/>
        <pt x="604" y="1106" on="1"/>
        <pt x="688" y="1106" on="0"/>
        <pt x="780" y="1009" on="0"/>
        <pt x="780" y="918" on="1"/>
        <pt x="780" y="862" on="0"/>
        <pt x="766" y="797" on="1"/>
        <pt x="578" y="-88" on="1"/>
        <pt x="542" y="-253" on="0"/>
        <pt x="479" y="-408" on="0"/>
        <pt x="395" y="-473" on="0"/>
        <pt x="322" y="-473" on="1"/>
        <pt x="267" y="-473" on="0"/>
        <pt x="233" y="-463" on="1"/>
        <pt x="233" y="-371" on="1"/>
        <pt x="270" y="-383" on="0"/>
        <pt x="317" y="-383" on="1"/>
        <pt x="364" y="-383" on="0"/>
        <pt x="416" y="-330" on="0"/>
        <pt x="459" y="-206" on="0"/>
        <pt x="485" y="-82" on="1"/>
        <pt x="676" y="815" on="1"/>
        <pt x="686" y="855" on="0"/>
        <pt x="686" y="899" on="1"/>
        <pt x="686" y="1012" on="0"/>
        <pt x="586" y="1012" on="1"/>
        <pt x="481" y="1012" on="0"/>
        <pt x="339" y="810" on="0"/>
        <pt x="295" y="596" on="1"/>
        <pt x="168" y="0" on="1"/>
        <pt x="74" y="0" on="1"/>
        <pt x="342" y="1270" on="1"/>
        <pt x="238" y="1270" on="1"/>
      </contour>
    </TTGlyph>
    <TTGlyph name="afii10100" xMin="55" yMin="-20" xMax="783" yMax="1569">
      <component glyphName="afii10068" x="0" y="0" flags="0x204"/>
      <component glyphName="acute" x="-79" y="0" flags="0x4"/>
    </TTGlyph>
    <TTGlyph name="afii10101" xMin="119" yMin="-20" xMax="713" yMax="1106">
      <contour>
        <pt x="348" y="-20" on="1"/>
        <pt x="242" y="-20" on="0"/>
        <pt x="119" y="125" on="0"/>
        <pt x="119" y="279" on="1"/>
        <pt x="119" y="496" on="0"/>
        <pt x="245" y="895" on="0"/>
        <pt x="445" y="1106" on="0"/>
        <pt x="569" y="1106" on="1"/>
        <pt x="655" y="1106" on="0"/>
        <pt x="713" y="1073" on="1"/>
        <pt x="674" y="987" on="1"/>
        <pt x="621" y="1016" on="0"/>
        <pt x="561" y="1016" on="1"/>
        <pt x="463" y="1016" on="0"/>
        <pt x="304" y="802" on="0"/>
        <pt x="258" y="610" on="1"/>
        <pt x="516" y="610" on="1"/>
        <pt x="498" y="524" on="1"/>
        <pt x="240" y="524" on="1"/>
        <pt x="217" y="409" on="0"/>
        <pt x="217" y="281" on="1"/>
        <pt x="217" y="165" on="0"/>
        <pt x="292" y="66" on="0"/>
        <pt x="365" y="66" on="1"/>
        <pt x="440" y="66" on="0"/>
        <pt x="520" y="106" on="1"/>
        <pt x="520" y="20" on="1"/>
        <pt x="490" y="3" on="0"/>
        <pt x="388" y="-20" on="0"/>
      </contour>
    </TTGlyph>
    <TTGlyph name="afii10102" xMin="29" yMin="-20" xMax="680" yMax="1106">
      <component glyphName="s" x="0" y="0" flags="0x204"/>
    </TTGlyph>
    <TTGlyph name="afii10103" xMin="68" yMin="0" xMax="475" yMax="1481">
      <component glyphName="i" x="0" y="0" flags="0x204"/>
    </TTGlyph>
    <TTGlyph name="afii10104" xMin="68" yMin="0" xMax="593" yMax="1475">
      <component glyphName="dotlessi" x="0" y="0" flags="0x204"/>
      <component glyphName="dieresis" x="-261" y="0" flags="0x4"/>
    </TTGlyph>
    <TTGlyph name="afii10105" xMin="-205" yMin="-492" xMax="475" yMax="1481">
      <component glyphName="j" x="0" y="0" flags="0x204"/>
    </TTGlyph>
    <TTGlyph name="afii10106" xMin="-39" yMin="-20" xMax="993" yMax="1090">
      <contour>
        <pt x="635" y="995" on="1"/>
        <pt x="625" y="999" on="0"/>
        <pt x="600" y="999" on="1"/>
        <pt x="530" y="999" on="0"/>
        <pt x="435" y="905" on="0"/>
        <pt x="364" y="726" on="0"/>
        <pt x="317" y="504" on="1"/>
        <pt x="276" y="317" on="0"/>
        <pt x="192" y="94" on="0"/>
        <pt x="90" y="-10" on="0"/>
        <pt x="14" y="-10" on="1"/>
        <pt x="-18" y="-10" on="0"/>
        <pt x="-39" y="-2" on="1"/>
        <pt x="-39" y="86" on="1"/>
        <pt x="-21" y="80" on="0"/>
        <pt x="6" y="80" on="1"/>
        <pt x="56" y="80" on="0"/>
        <pt x="122" y="165" on="0"/>
        <pt x="187" y="352" on="0"/>
        <pt x="225" y="516" on="1"/>
        <pt x="276" y="741" on="0"/>
        <pt x="346" y="921" on="0"/>
        <pt x="432" y="1031" on="0"/>
        <pt x="544" y="1090" on="0"/>
        <pt x="616" y="1090" on="1"/>
        <pt x="642" y="1090" on="0"/>
        <pt x="726" y="1080" on="0"/>
        <pt x="745" y="1075" on="1"/>
        <pt x="643" y="592" on="1"/>
        <pt x="693" y="598" on="0"/>
        <pt x="752" y="598" on="1"/>
        <pt x="993" y="593" on="0"/>
        <pt x="993" y="326" on="1"/>
        <pt x="993" y="176" on="0"/>
        <pt x="818" y="-20" on="0"/>
        <pt x="686" y="-20" on="1"/>
        <pt x="582" y="-20" on="0"/>
        <pt x="479" y="85" on="0"/>
        <pt x="479" y="207" on="1"/>
        <pt x="479" y="275" on="0"/>
        <pt x="496" y="348" on="1"/>
      </contour>
      <contour>
        <pt x="899" y="319" on="1"/>
        <pt x="899" y="512" on="0"/>
        <pt x="739" y="512" on="1"/>
        <pt x="706" y="512" on="0"/>
        <pt x="629" y="504" on="1"/>
        <pt x="590" y="338" on="1"/>
        <pt x="573" y="270" on="0"/>
        <pt x="573" y="213" on="1"/>
        <pt x="573" y="131" on="0"/>
        <pt x="629" y="61" on="0"/>
        <pt x="690" y="61" on="1"/>
        <pt x="782" y="61" on="0"/>
        <pt x="899" y="202" on="0"/>
      </contour>
    </TTGlyph>
    <TTGlyph name="afii10107" xMin="72" yMin="-20" xMax="1069" yMax="1085">
      <contour>
        <pt x="397" y="1085" on="1"/>
        <pt x="297" y="610" on="1"/>
        <pt x="627" y="610" on="1"/>
        <pt x="729" y="1085" on="1"/>
        <pt x="823" y="1085" on="1"/>
        <pt x="721" y="598" on="1"/>
        <pt x="771" y="604" on="0"/>
        <pt x="829" y="604" on="1"/>
        <pt x="950" y="601" on="0"/>
        <pt x="1069" y="456" on="0"/>
        <pt x="1069" y="326" on="1"/>
        <pt x="1069" y="177" on="0"/>
        <pt x="902" y="-20" on="0"/>
        <pt x="770" y="-20" on="1"/>
        <pt x="555" y="-20" on="0"/>
        <pt x="555" y="207" on="1"/>
        <pt x="555" y="278" on="0"/>
        <pt x="571" y="348" on="1"/>
        <pt x="608" y="524" on="1"/>
        <pt x="279" y="524" on="1"/>
        <pt x="166" y="0" on="1"/>
        <pt x="72" y="0" on="1"/>
        <pt x="303" y="1085" on="1"/>
      </contour>
      <contour>
        <pt x="975" y="319" on="1"/>
        <pt x="975" y="414" on="0"/>
        <pt x="897" y="518" on="0"/>
        <pt x="817" y="518" on="1"/>
        <pt x="784" y="518" on="0"/>
        <pt x="707" y="510" on="1"/>
        <pt x="666" y="338" on="1"/>
        <pt x="649" y="272" on="0"/>
        <pt x="649" y="213" on="1"/>
        <pt x="649" y="61" on="0"/>
        <pt x="776" y="61" on="1"/>
        <pt x="867" y="61" on="0"/>
        <pt x="975" y="201" on="0"/>
      </contour>
    </TTGlyph>
    <TTGlyph name="afii10108" xMin="74" yMin="0" xMax="780" yMax="1556">
      <component glyphName="hbar" x="0" y="0" flags="0x204"/>
    </TTGlyph>
    <TTGlyph name="afii10109" xMin="72" yMin="0" xMax="826" yMax="1569">
      <component glyphName="afii10076" x="0" y="0" flags="0x204"/>
      <component glyphName="acute" x="-36" y="0" flags="0x4"/>
    </TTGlyph>
    <TTGlyph name="afii10110" xMin="-158" yMin="-492" xMax="769" yMax="1522">
      <component glyphName="y" x="0" y="0" flags="0x204"/>
      <component glyphName="cyrillicbreve" x="-173" y="0" flags="0x4"/>
    </TTGlyph>
    <TTGlyph name="afii10145" xMin="68" yMin="-369" xMax="1016" yMax="1462">
      <contour>
        <pt x="379" y="1462" on="1"/>
        <pt x="477" y="1462" on="1"/>
        <pt x="186" y="94" on="1"/>
        <pt x="627" y="94" on="1"/>
        <pt x="918" y="1462" on="1"/>
        <pt x="1016" y="1462" on="1"/>
        <pt x="705" y="0" on="1"/>
        <pt x="434" y="0" on="1"/>
        <pt x="356" y="-369" on="1"/>
        <pt x="260" y="-369" on="1"/>
        <pt x="338" y="0" on="1"/>
        <pt x="68" y="0" on="1"/>
      </contour>
    </TTGlyph>
    <TTGlyph name="afii10193" xMin="123" yMin="-473" xMax="827" yMax="1085">
      <contour>
        <pt x="395" y="1085" on="1"/>
        <pt x="233" y="330" on="1"/>
        <pt x="215" y="252" on="0"/>
        <pt x="215" y="195" on="1"/>
        <pt x="215" y="72" on="0"/>
        <pt x="309" y="72" on="1"/>
        <pt x="518" y="72" on="0"/>
        <pt x="606" y="489" on="1"/>
        <pt x="733" y="1085" on="1"/>
        <pt x="827" y="1085" on="1"/>
        <pt x="596" y="0" on="1"/>
        <pt x="522" y="0" on="1"/>
        <pt x="530" y="135" on="1"/>
        <pt x="526" y="135" on="1"/>
        <pt x="425" y="-20" on="0"/>
        <pt x="287" y="-20" on="1"/>
        <pt x="123" y="-20" on="0"/>
        <pt x="123" y="178" on="1"/>
        <pt x="123" y="257" on="0"/>
        <pt x="143" y="344" on="1"/>
        <pt x="301" y="1085" on="1"/>
      </contour>
      <contour>
        <pt x="371" y="-72" on="1"/>
        <pt x="385" y="-72" on="1"/>
        <pt x="279" y="-473" on="1"/>
        <pt x="184" y="-473" on="1"/>
        <pt x="293" y="-109" on="1"/>
      </contour>
    </TTGlyph>
    <TTGlyph name="afii61248" xMin="154" yMin="-8" xMax="979" yMax="1473">
      <contour>
        <pt x="979" y="1462" on="1"/>
        <pt x="238" y="0" on="1"/>
        <pt x="154" y="0" on="1"/>
        <pt x="895" y="1462" on="1"/>
      </contour>
      <contour>
        <pt x="954" y="475" on="1"/>
        <pt x="954" y="357" on="0"/>
        <pt x="879" y="116" on="0"/>
        <pt x="760" y="-8" on="0"/>
        <pt x="686" y="-8" on="1"/>
        <pt x="620" y="-8" on="0"/>
        <pt x="535" y="93" on="0"/>
        <pt x="535" y="193" on="1"/>
        <pt x="535" y="308" on="0"/>
        <pt x="611" y="551" on="0"/>
        <pt x="731" y="676" on="0"/>
        <pt x="807" y="676" on="1"/>
        <pt x="873" y="676" on="0"/>
        <pt x="954" y="574" on="0"/>
      </contour>
      <contour>
        <pt x="801" y="594" on="1"/>
        <pt x="756" y="594" on="0"/>
        <pt x="678" y="486" on="0"/>
        <pt x="625" y="271" on="0"/>
        <pt x="625" y="186" on="1"/>
        <pt x="625" y="74" on="0"/>
        <pt x="692" y="74" on="1"/>
        <pt x="736" y="74" on="0"/>
        <pt x="812" y="182" on="0"/>
        <pt x="868" y="404" on="0"/>
        <pt x="868" y="483" on="1"/>
        <pt x="868" y="594" on="0"/>
      </contour>
      <contour>
        <pt x="369" y="788" on="1"/>
        <pt x="296" y="788" on="0"/>
        <pt x="203" y="896" on="0"/>
        <pt x="203" y="1006" on="1"/>
        <pt x="203" y="1117" on="0"/>
        <pt x="291" y="1354" on="0"/>
        <pt x="428" y="1473" on="0"/>
        <pt x="508" y="1473" on="1"/>
        <pt x="571" y="1473" on="0"/>
        <pt x="631" y="1444" on="1"/>
        <pt x="588" y="1362" on="1"/>
        <pt x="549" y="1391" on="0"/>
        <pt x="508" y="1391" on="1"/>
        <pt x="450" y="1391" on="0"/>
        <pt x="358" y="1293" on="0"/>
        <pt x="297" y="1096" on="0"/>
        <pt x="297" y="1006" on="1"/>
        <pt x="297" y="870" on="0"/>
        <pt x="397" y="870" on="1"/>
        <pt x="451" y="870" on="0"/>
        <pt x="508" y="905" on="1"/>
        <pt x="489" y="819" on="1"/>
        <pt x="435" y="788" on="0"/>
      </contour>
    </TTGlyph>
    <TTGlyph name="afii61289" xMin="104" yMin="-18" xMax="707" yMax="1483">
      <contour>
        <pt x="475" y="68" on="1"/>
        <pt x="549" y="68" on="0"/>
        <pt x="614" y="172" on="0"/>
        <pt x="616" y="301" on="1"/>
        <pt x="707" y="301" on="1"/>
        <pt x="701" y="138" on="0"/>
        <pt x="587" y="-18" on="0"/>
        <pt x="475" y="-18" on="1"/>
        <pt x="355" y="-18" on="0"/>
        <pt x="242" y="147" on="0"/>
        <pt x="242" y="311" on="1"/>
        <pt x="242" y="596" on="1"/>
        <pt x="210" y="577" on="0"/>
        <pt x="139" y="556" on="0"/>
        <pt x="104" y="545" on="1"/>
        <pt x="104" y="631" on="1"/>
        <pt x="142" y="645" on="0"/>
        <pt x="210" y="663" on="0"/>
        <pt x="242" y="682" on="1"/>
        <pt x="242" y="1188" on="1"/>
        <pt x="242" y="1333" on="0"/>
        <pt x="343" y="1483" on="0"/>
        <pt x="438" y="1483" on="1"/>
        <pt x="537" y="1483" on="0"/>
        <pt x="645" y="1329" on="0"/>
        <pt x="645" y="1190" on="1"/>
        <pt x="645" y="1005" on="0"/>
        <pt x="489" y="719" on="0"/>
        <pt x="336" y="631" on="1"/>
        <pt x="336" y="330" on="1"/>
        <pt x="336" y="200" on="0"/>
        <pt x="402" y="68" on="0"/>
      </contour>
      <contour>
        <pt x="551" y="1188" on="1"/>
        <pt x="551" y="1293" on="0"/>
        <pt x="491" y="1397" on="0"/>
        <pt x="440" y="1397" on="1"/>
        <pt x="386" y="1397" on="0"/>
        <pt x="336" y="1303" on="0"/>
        <pt x="336" y="1188" on="1"/>
        <pt x="336" y="717" on="1"/>
        <pt x="551" y="865" on="0"/>
      </contour>
    </TTGlyph>
    <TTGlyph name="afii61352" xMin="66" yMin="0" xMax="1352" yMax="1462">
      <contour>
        <pt x="1352" y="739" on="1"/>
        <pt x="1352" y="625" on="0"/>
        <pt x="1270" y="394" on="0"/>
        <pt x="1139" y="274" on="0"/>
        <pt x="1059" y="274" on="1"/>
        <pt x="891" y="274" on="0"/>
        <pt x="891" y="479" on="1"/>
        <pt x="891" y="596" on="0"/>
        <pt x="968" y="828" on="0"/>
        <pt x="1096" y="948" on="0"/>
        <pt x="1176" y="948" on="1"/>
        <pt x="1261" y="948" on="0"/>
        <pt x="1352" y="841" on="0"/>
      </contour>
      <contour>
        <pt x="1167" y="862" on="1"/>
        <pt x="1116" y="862" on="0"/>
        <pt x="1034" y="763" on="0"/>
        <pt x="983" y="566" on="0"/>
        <pt x="983" y="479" on="1"/>
        <pt x="983" y="417" on="0"/>
        <pt x="1024" y="360" on="0"/>
        <pt x="1069" y="360" on="1"/>
        <pt x="1122" y="360" on="0"/>
        <pt x="1206" y="455" on="0"/>
        <pt x="1260" y="643" on="0"/>
        <pt x="1260" y="739" on="1"/>
        <pt x="1260" y="798" on="0"/>
        <pt x="1212" y="862" on="0"/>
      </contour>
      <contour>
        <pt x="1182" y="0" on="1"/>
        <pt x="817" y="0" on="1"/>
        <pt x="834" y="86" on="1"/>
        <pt x="1198" y="86" on="1"/>
      </contour>
      <contour>
        <pt x="672" y="0" on="1"/>
        <pt x="551" y="0" on="1"/>
        <pt x="432" y="1284" on="1"/>
        <pt x="424" y="1284" on="1"/>
        <pt x="421" y="1246" on="0"/>
        <pt x="394" y="1087" on="0"/>
        <pt x="164" y="0" on="1"/>
        <pt x="66" y="0" on="1"/>
        <pt x="375" y="1462" on="1"/>
        <pt x="506" y="1462" on="1"/>
        <pt x="618" y="190" on="1"/>
        <pt x="625" y="190" on="1"/>
        <pt x="640" y="317" on="0"/>
        <pt x="666" y="440" on="1"/>
        <pt x="883" y="1462" on="1"/>
        <pt x="981" y="1462" on="1"/>
      </contour>
    </TTGlyph>
    <TTGlyph name="agrave" xMin="119" yMin="-20" xMax="860" yMax="1569">
      <component glyphName="a" x="0" y="0" flags="0x204"/>
      <component glyphName="grave" x="-157" y="0" flags="0x4"/>
    </TTGlyph>
    <TTGlyph name="alpha" xMin="119" yMin="-20" xMax="899" yMax="1106">
      <contour>
        <pt x="670" y="129" on="1"/>
        <pt x="670" y="57" on="0"/>
        <pt x="717" y="57" on="1"/>
        <pt x="744" y="57" on="0"/>
        <pt x="768" y="68" on="1"/>
        <pt x="768" y="-2" on="1"/>
        <pt x="741" y="-20" on="0"/>
        <pt x="694" y="-20" on="1"/>
        <pt x="584" y="-20" on="0"/>
        <pt x="584" y="104" on="1"/>
        <pt x="590" y="164" on="1"/>
        <pt x="582" y="164" on="1"/>
        <pt x="518" y="62" on="0"/>
        <pt x="391" y="-20" on="0"/>
        <pt x="319" y="-20" on="1"/>
        <pt x="119" y="-20" on="0"/>
        <pt x="119" y="260" on="1"/>
        <pt x="119" y="479" on="0"/>
        <pt x="238" y="872" on="0"/>
        <pt x="440" y="1106" on="0"/>
        <pt x="559" y="1106" on="1"/>
        <pt x="640" y="1106" on="0"/>
        <pt x="735" y="1007" on="0"/>
        <pt x="752" y="926" on="1"/>
        <pt x="758" y="926" on="1"/>
        <pt x="772" y="969" on="0"/>
        <pt x="817" y="1058" on="0"/>
        <pt x="836" y="1085" on="1"/>
        <pt x="899" y="1085" on="1"/>
        <pt x="838" y="974" on="0"/>
        <pt x="791" y="737" on="1"/>
        <pt x="678" y="213" on="1"/>
        <pt x="670" y="180" on="0"/>
      </contour>
      <contour>
        <pt x="340" y="66" on="1"/>
        <pt x="427" y="66" on="0"/>
        <pt x="587" y="279" on="0"/>
        <pt x="692" y="660" on="0"/>
        <pt x="692" y="821" on="1"/>
        <pt x="692" y="926" on="0"/>
        <pt x="623" y="1016" on="0"/>
        <pt x="547" y="1016" on="1"/>
        <pt x="464" y="1016" on="0"/>
        <pt x="316" y="807" on="0"/>
        <pt x="217" y="432" on="0"/>
        <pt x="217" y="264" on="1"/>
        <pt x="217" y="165" on="0"/>
        <pt x="268" y="66" on="0"/>
      </contour>
    </TTGlyph>
    <TTGlyph name="alphatonos" xMin="119" yMin="-20" xMax="899" yMax="1610">
      <component glyphName="alpha" x="0" y="0" flags="0x204"/>
      <component glyphName="tonos" x="-32" y="0" flags="0x4"/>
    </TTGlyph>
    <TTGlyph name="amacron" xMin="119" yMin="-20" xMax="876" yMax="1333">
      <component glyphName="a" x="0" y="0" flags="0x204"/>
      <component glyphName="macron" x="-19" y="0" flags="0x4"/>
    </TTGlyph>
    <TTGlyph name="ampersand" xMin="41" yMin="-20" xMax="766" yMax="1483">
      <contour>
        <pt x="582" y="0" on="1"/>
        <pt x="535" y="166" on="1"/>
        <pt x="458" y="58" on="0"/>
        <pt x="336" y="-20" on="0"/>
        <pt x="262" y="-20" on="1"/>
        <pt x="158" y="-20" on="0"/>
        <pt x="41" y="118" on="0"/>
        <pt x="41" y="236" on="1"/>
        <pt x="41" y="401" on="0"/>
        <pt x="184" y="669" on="0"/>
        <pt x="350" y="795" on="1"/>
        <pt x="309" y="937" on="0"/>
        <pt x="309" y="1063" on="1"/>
        <pt x="309" y="1260" on="0"/>
        <pt x="439" y="1483" on="0"/>
        <pt x="553" y="1483" on="1"/>
        <pt x="615" y="1483" on="0"/>
        <pt x="692" y="1391" on="0"/>
        <pt x="692" y="1303" on="1"/>
        <pt x="692" y="1159" on="0"/>
        <pt x="566" y="878" on="0"/>
        <pt x="451" y="770" on="1"/>
        <pt x="569" y="350" on="1"/>
        <pt x="637" y="475" on="0"/>
        <pt x="682" y="645" on="1"/>
        <pt x="766" y="645" on="1"/>
        <pt x="746" y="550" on="0"/>
        <pt x="639" y="309" on="0"/>
        <pt x="598" y="252" on="1"/>
        <pt x="680" y="0" on="1"/>
      </contour>
      <contour>
        <pt x="373" y="717" on="1"/>
        <pt x="135" y="527" on="0"/>
        <pt x="135" y="254" on="1"/>
        <pt x="135" y="72" on="0"/>
        <pt x="268" y="72" on="1"/>
        <pt x="328" y="72" on="0"/>
        <pt x="431" y="146" on="0"/>
        <pt x="508" y="260" on="1"/>
      </contour>
      <contour>
        <pt x="428" y="852" on="1"/>
        <pt x="514" y="932" on="0"/>
        <pt x="606" y="1161" on="0"/>
        <pt x="606" y="1286" on="1"/>
        <pt x="606" y="1393" on="0"/>
        <pt x="537" y="1393" on="1"/>
        <pt x="472" y="1393" on="0"/>
        <pt x="395" y="1225" on="0"/>
        <pt x="395" y="1081" on="1"/>
        <pt x="395" y="958" on="0"/>
      </contour>
    </TTGlyph>
    <TTGlyph name="anoteleia" xMin="211" yMin="615" xMax="371" yMax="828">
      <component glyphName="period" x="113" y="631" flags="0x4"/>
    </TTGlyph>
    <TTGlyph name="aogonek" xMin="119" yMin="-446" xMax="860" yMax="1106">
      <component glyphName="a" x="0" y="0" flags="0x204"/>
      <component glyphName="ogonek" x="340" y="0" flags="0x4"/>
    </TTGlyph>
    <TTGlyph name="approxequal" xMin="111" yMin="398" xMax="788" yMax="1038">
      <component glyphName="asciitilde" x="0" y="211" flags="0x4"/>
      <component glyphName="asciitilde" x="0" y="-220" flags="0x4"/>
    </TTGlyph>
    <TTGlyph name="aring" xMin="119" yMin="-20" xMax="860" yMax="1624">
      <component glyphName="a" x="0" y="0" flags="0x204"/>
      <component glyphName="ring" x="-95" y="0" flags="0x4"/>
    </TTGlyph>
    <TTGlyph name="aringacute" xMin="119" yMin="-20" xMax="952" yMax="1937">
      <contour>
        <pt x="610" y="1640" on="1"/>
        <pt x="610" y="1657" on="1"/>
        <pt x="658" y="1716" on="0"/>
        <pt x="767" y="1854" on="0"/>
        <pt x="813" y="1937" on="1"/>
        <pt x="952" y="1937" on="1"/>
        <pt x="952" y="1921" on="1"/>
        <pt x="909" y="1862" on="0"/>
        <pt x="751" y="1708" on="0"/>
        <pt x="662" y="1640" on="1"/>
      </contour>
      <contour>
        <pt x="319" y="-20" on="1"/>
        <pt x="119" y="-20" on="0"/>
        <pt x="119" y="262" on="1"/>
        <pt x="119" y="471" on="0"/>
        <pt x="244" y="881" on="0"/>
        <pt x="443" y="1106" on="0"/>
        <pt x="561" y="1106" on="1"/>
        <pt x="695" y="1106" on="0"/>
        <pt x="735" y="956" on="1"/>
        <pt x="741" y="956" on="1"/>
        <pt x="780" y="1085" on="1"/>
        <pt x="860" y="1085" on="1"/>
        <pt x="631" y="0" on="1"/>
        <pt x="555" y="0" on="1"/>
        <pt x="573" y="156" on="1"/>
        <pt x="569" y="156" on="1"/>
        <pt x="455" y="-20" on="0"/>
      </contour>
      <contour>
        <pt x="338" y="63" on="1"/>
        <pt x="428" y="63" on="0"/>
        <pt x="584" y="271" on="0"/>
        <pt x="692" y="671" on="0"/>
        <pt x="692" y="848" on="1"/>
        <pt x="692" y="931" on="0"/>
        <pt x="621" y="1016" on="0"/>
        <pt x="557" y="1016" on="1"/>
        <pt x="469" y="1016" on="0"/>
        <pt x="319" y="813" on="0"/>
        <pt x="217" y="421" on="0"/>
        <pt x="217" y="248" on="1"/>
        <pt x="217" y="157" on="0"/>
        <pt x="270" y="63" on="0"/>
      </contour>
      <contour>
        <pt x="803" y="1380" on="1"/>
        <pt x="803" y="1293" on="0"/>
        <pt x="700" y="1190" on="0"/>
        <pt x="612" y="1190" on="1"/>
        <pt x="526" y="1190" on="0"/>
        <pt x="422" y="1289" on="0"/>
        <pt x="422" y="1376" on="1"/>
        <pt x="422" y="1461" on="0"/>
        <pt x="523" y="1563" on="0"/>
        <pt x="612" y="1563" on="1"/>
        <pt x="697" y="1563" on="0"/>
        <pt x="803" y="1461" on="0"/>
      </contour>
      <contour>
        <pt x="731" y="1376" on="1"/>
        <pt x="731" y="1429" on="0"/>
        <pt x="668" y="1497" on="0"/>
        <pt x="612" y="1497" on="1"/>
        <pt x="557" y="1497" on="0"/>
        <pt x="494" y="1429" on="0"/>
        <pt x="494" y="1376" on="1"/>
        <pt x="494" y="1257" on="0"/>
        <pt x="612" y="1257" on="1"/>
        <pt x="665" y="1257" on="0"/>
        <pt x="731" y="1322" on="0"/>
      </contour>
    </TTGlyph>
    <TTGlyph name="asciicircum" xMin="111" yMin="758" xMax="784" yMax="1462">
      <contour>
        <pt x="692" y="758" on="1"/>
        <pt x="569" y="1348" on="1"/>
        <pt x="217" y="758" on="1"/>
        <pt x="111" y="758" on="1"/>
        <pt x="543" y="1462" on="1"/>
        <pt x="625" y="1462" on="1"/>
        <pt x="784" y="758" on="1"/>
      </contour>
    </TTGlyph>
    <TTGlyph name="asciitilde" xMin="111" yMin="618" xMax="788" yMax="827">
      <contour>
        <pt x="602" y="625" on="1"/>
        <pt x="521" y="625" on="0"/>
        <pt x="434" y="680" on="1"/>
        <pt x="396" y="702" on="0"/>
        <pt x="324" y="739" on="0"/>
        <pt x="281" y="739" on="1"/>
        <pt x="210" y="739" on="0"/>
        <pt x="111" y="618" on="1"/>
        <pt x="111" y="717" on="1"/>
        <pt x="197" y="823" on="0"/>
        <pt x="299" y="823" on="1"/>
        <pt x="348" y="823" on="0"/>
        <pt x="441" y="784" on="0"/>
        <pt x="490" y="755" on="1"/>
        <pt x="563" y="711" on="0"/>
        <pt x="621" y="711" on="1"/>
        <pt x="664" y="711" on="0"/>
        <pt x="743" y="769" on="0"/>
        <pt x="788" y="827" on="1"/>
        <pt x="788" y="729" on="1"/>
        <pt x="706" y="625" on="0"/>
      </contour>
    </TTGlyph>
    <TTGlyph name="asterisk" xMin="221" yMin="993" xMax="743" yMax="1563">
      <contour>
        <pt x="578" y="1546" on="1"/>
        <pt x="520" y="1315" on="1"/>
        <pt x="743" y="1339" on="1"/>
        <pt x="743" y="1235" on="1"/>
        <pt x="528" y="1257" on="1"/>
        <pt x="645" y="1024" on="1"/>
        <pt x="549" y="993" on="1"/>
        <pt x="479" y="1231" on="1"/>
        <pt x="338" y="1020" on="1"/>
        <pt x="256" y="1075" on="1"/>
        <pt x="426" y="1270" on="1"/>
        <pt x="221" y="1307" on="1"/>
        <pt x="250" y="1405" on="1"/>
        <pt x="461" y="1323" on="1"/>
        <pt x="465" y="1563" on="1"/>
      </contour>
    </TTGlyph>
    <TTGlyph name="at" xMin="111" yMin="-180" xMax="1137" yMax="1473">
      <contour>
        <pt x="1137" y="1024" on="1"/>
        <pt x="1137" y="857" on="0"/>
        <pt x="1035" y="460" on="0"/>
        <pt x="883" y="236" on="0"/>
        <pt x="799" y="236" on="1"/>
        <pt x="742" y="236" on="0"/>
        <pt x="686" y="300" on="0"/>
        <pt x="686" y="354" on="1"/>
        <pt x="686" y="396" on="0"/>
        <pt x="696" y="444" on="1"/>
        <pt x="623" y="231" on="0"/>
        <pt x="504" y="231" on="1"/>
        <pt x="393" y="231" on="0"/>
        <pt x="393" y="410" on="1"/>
        <pt x="393" y="554" on="0"/>
        <pt x="500" y="891" on="0"/>
        <pt x="656" y="1061" on="0"/>
        <pt x="750" y="1061" on="1"/>
        <pt x="830" y="1061" on="0"/>
        <pt x="891" y="1032" on="1"/>
        <pt x="773" y="561" on="1"/>
        <pt x="748" y="464" on="0"/>
        <pt x="748" y="412" on="1"/>
        <pt x="748" y="315" on="0"/>
        <pt x="813" y="315" on="1"/>
        <pt x="864" y="315" on="0"/>
        <pt x="973" y="531" on="0"/>
        <pt x="1055" y="889" on="0"/>
        <pt x="1055" y="1012" on="1"/>
        <pt x="1055" y="1196" on="0"/>
        <pt x="934" y="1389" on="0"/>
        <pt x="813" y="1389" on="1"/>
        <pt x="657" y="1389" on="0"/>
        <pt x="374" y="1099" on="0"/>
        <pt x="199" y="584" on="0"/>
        <pt x="199" y="291" on="1"/>
        <pt x="199" y="106" on="0"/>
        <pt x="336" y="-100" on="0"/>
        <pt x="455" y="-100" on="1"/>
        <pt x="513" y="-100" on="0"/>
        <pt x="622" y="-69" on="0"/>
        <pt x="657" y="-47" on="1"/>
        <pt x="668" y="-125" on="1"/>
        <pt x="564" y="-180" on="0"/>
        <pt x="446" y="-180" on="1"/>
        <pt x="294" y="-180" on="0"/>
        <pt x="111" y="65" on="0"/>
        <pt x="111" y="279" on="1"/>
        <pt x="111" y="607" on="0"/>
        <pt x="310" y="1156" on="0"/>
        <pt x="646" y="1473" on="0"/>
        <pt x="834" y="1473" on="1"/>
        <pt x="974" y="1473" on="0"/>
        <pt x="1137" y="1236" on="0"/>
      </contour>
      <contour>
        <pt x="725" y="981" on="1"/>
        <pt x="665" y="981" on="0"/>
        <pt x="552" y="823" on="0"/>
        <pt x="477" y="551" on="0"/>
        <pt x="477" y="428" on="1"/>
        <pt x="477" y="319" on="0"/>
        <pt x="535" y="319" on="1"/>
        <pt x="579" y="319" on="0"/>
        <pt x="659" y="486" on="0"/>
        <pt x="707" y="666" on="1"/>
        <pt x="788" y="973" on="1"/>
        <pt x="764" y="981" on="0"/>
      </contour>
    </TTGlyph>
    <TTGlyph name="atilde" xMin="119" yMin="-20" xMax="871" yMax="1483">
      <component glyphName="a" x="0" y="0" flags="0x204"/>
      <component glyphName="tilde" x="-71" y="0" flags="0x4"/>
    </TTGlyph>
    <TTGlyph name="b" xMin="72" yMin="-20" xMax="813" yMax="1556">
      <contour>
        <pt x="612" y="1106" on="1"/>
        <pt x="813" y="1106" on="0"/>
        <pt x="813" y="823" on="1"/>
        <pt x="813" y="612" on="0"/>
        <pt x="687" y="203" on="0"/>
        <pt x="488" y="-20" on="0"/>
        <pt x="371" y="-20" on="1"/>
        <pt x="303" y="-20" on="0"/>
        <pt x="209" y="62" on="0"/>
        <pt x="197" y="131" on="1"/>
        <pt x="190" y="131" on="1"/>
        <pt x="145" y="0" on="1"/>
        <pt x="72" y="0" on="1"/>
        <pt x="399" y="1556" on="1"/>
        <pt x="494" y="1556" on="1"/>
        <pt x="375" y="1001" on="1"/>
        <pt x="354" y="920" on="1"/>
        <pt x="358" y="920" on="1"/>
        <pt x="410" y="1011" on="0"/>
        <pt x="542" y="1106" on="0"/>
      </contour>
      <contour>
        <pt x="594" y="1022" on="1"/>
        <pt x="500" y="1022" on="0"/>
        <pt x="342" y="813" on="0"/>
        <pt x="240" y="434" on="0"/>
        <pt x="240" y="252" on="1"/>
        <pt x="240" y="66" on="0"/>
        <pt x="375" y="66" on="1"/>
        <pt x="463" y="66" on="0"/>
        <pt x="614" y="273" on="0"/>
        <pt x="715" y="665" on="0"/>
        <pt x="715" y="838" on="1"/>
        <pt x="715" y="929" on="0"/>
        <pt x="662" y="1022" on="0"/>
      </contour>
    </TTGlyph>
    <TTGlyph name="backslash" xMin="270" yMin="0" xMax="528" yMax="1462">
      <contour>
        <pt x="365" y="1462" on="1"/>
        <pt x="528" y="0" on="1"/>
        <pt x="432" y="0" on="1"/>
        <pt x="270" y="1462" on="1"/>
      </contour>
    </TTGlyph>
    <TTGlyph name="bar" xMin="133" yMin="-492" xMax="659" yMax="1556">
      <contour>
        <pt x="225" y="-492" on="1"/>
        <pt x="133" y="-492" on="1"/>
        <pt x="567" y="1556" on="1"/>
        <pt x="659" y="1556" on="1"/>
      </contour>
    </TTGlyph>
    <TTGlyph name="beta" xMin="-33" yMin="-492" xMax="877" yMax="1567">
      <contour>
        <pt x="653" y="1567" on="1"/>
        <pt x="755" y="1567" on="0"/>
        <pt x="877" y="1432" on="0"/>
        <pt x="877" y="1313" on="1"/>
        <pt x="877" y="1115" on="0"/>
        <pt x="718" y="844" on="0"/>
        <pt x="586" y="821" on="1"/>
        <pt x="584" y="813" on="1"/>
        <pt x="667" y="800" on="0"/>
        <pt x="764" y="637" on="0"/>
        <pt x="764" y="518" on="1"/>
        <pt x="764" y="371" on="0"/>
        <pt x="665" y="114" on="0"/>
        <pt x="494" y="-20" on="0"/>
        <pt x="381" y="-20" on="1"/>
        <pt x="254" y="-20" on="0"/>
        <pt x="174" y="55" on="1"/>
        <pt x="53" y="-492" on="1"/>
        <pt x="-33" y="-492" on="1"/>
        <pt x="324" y="1194" on="1"/>
        <pt x="370" y="1407" on="0"/>
        <pt x="519" y="1567" on="0"/>
      </contour>
      <contour>
        <pt x="635" y="1477" on="1"/>
        <pt x="551" y="1477" on="0"/>
        <pt x="448" y="1346" on="0"/>
        <pt x="416" y="1194" on="1"/>
        <pt x="195" y="147" on="1"/>
        <pt x="229" y="109" on="0"/>
        <pt x="325" y="70" on="0"/>
        <pt x="375" y="70" on="1"/>
        <pt x="461" y="70" on="0"/>
        <pt x="592" y="174" on="0"/>
        <pt x="668" y="384" on="0"/>
        <pt x="668" y="514" on="1"/>
        <pt x="668" y="634" on="0"/>
        <pt x="575" y="776" on="0"/>
        <pt x="492" y="776" on="1"/>
        <pt x="453" y="776" on="1"/>
        <pt x="473" y="866" on="1"/>
        <pt x="500" y="866" on="1"/>
        <pt x="583" y="866" on="0"/>
        <pt x="708" y="972" on="0"/>
        <pt x="782" y="1185" on="0"/>
        <pt x="782" y="1311" on="1"/>
        <pt x="782" y="1388" on="0"/>
        <pt x="710" y="1477" on="0"/>
      </contour>
    </TTGlyph>
    <TTGlyph name="braceleft" xMin="125" yMin="-324" xMax="838" yMax="1462">
      <contour>
        <pt x="838" y="1462" on="1"/>
        <pt x="819" y="1382" on="1"/>
        <pt x="706" y="1380" on="0"/>
        <pt x="603" y="1288" on="0"/>
        <pt x="582" y="1184" on="1"/>
        <pt x="506" y="831" on="1"/>
        <pt x="483" y="720" on="0"/>
        <pt x="364" y="593" on="0"/>
        <pt x="256" y="571" on="1"/>
        <pt x="256" y="567" on="1"/>
        <pt x="333" y="550" on="0"/>
        <pt x="406" y="466" on="0"/>
        <pt x="406" y="395" on="1"/>
        <pt x="406" y="362" on="0"/>
        <pt x="395" y="307" on="1"/>
        <pt x="328" y="-8" on="1"/>
        <pt x="317" y="-63" on="0"/>
        <pt x="317" y="-94" on="1"/>
        <pt x="317" y="-169" on="0"/>
        <pt x="388" y="-242" on="0"/>
        <pt x="469" y="-244" on="1"/>
        <pt x="469" y="-324" on="1"/>
        <pt x="340" y="-320" on="0"/>
        <pt x="223" y="-208" on="0"/>
        <pt x="223" y="-100" on="1"/>
        <pt x="223" y="-55" on="0"/>
        <pt x="236" y="-4" on="1"/>
        <pt x="303" y="319" on="1"/>
        <pt x="311" y="351" on="0"/>
        <pt x="311" y="389" on="1"/>
        <pt x="311" y="535" on="0"/>
        <pt x="125" y="535" on="1"/>
        <pt x="141" y="604" on="1"/>
        <pt x="260" y="604" on="0"/>
        <pt x="387" y="713" on="0"/>
        <pt x="410" y="819" on="1"/>
        <pt x="489" y="1190" on="1"/>
        <pt x="519" y="1335" on="0"/>
        <pt x="681" y="1462" on="0"/>
      </contour>
    </TTGlyph>
    <TTGlyph name="braceright" xMin="-59" yMin="-324" xMax="653" yMax="1462">
      <contour>
        <pt x="-59" y="-324" on="1"/>
        <pt x="-41" y="-244" on="1"/>
        <pt x="71" y="-242" on="0"/>
        <pt x="175" y="-152" on="0"/>
        <pt x="197" y="-45" on="1"/>
        <pt x="272" y="307" on="1"/>
        <pt x="295" y="419" on="0"/>
        <pt x="414" y="546" on="0"/>
        <pt x="522" y="567" on="1"/>
        <pt x="522" y="571" on="1"/>
        <pt x="445" y="588" on="0"/>
        <pt x="373" y="672" on="0"/>
        <pt x="373" y="743" on="1"/>
        <pt x="373" y="783" on="0"/>
        <pt x="383" y="831" on="1"/>
        <pt x="451" y="1147" on="1"/>
        <pt x="461" y="1197" on="0"/>
        <pt x="461" y="1233" on="1"/>
        <pt x="461" y="1307" on="0"/>
        <pt x="390" y="1380" on="0"/>
        <pt x="309" y="1382" on="1"/>
        <pt x="309" y="1462" on="1"/>
        <pt x="438" y="1459" on="0"/>
        <pt x="555" y="1346" on="0"/>
        <pt x="555" y="1239" on="1"/>
        <pt x="555" y="1195" on="0"/>
        <pt x="543" y="1143" on="1"/>
        <pt x="475" y="819" on="1"/>
        <pt x="467" y="787" on="0"/>
        <pt x="467" y="750" on="1"/>
        <pt x="467" y="604" on="0"/>
        <pt x="653" y="604" on="1"/>
        <pt x="637" y="535" on="1"/>
        <pt x="518" y="535" on="0"/>
        <pt x="392" y="426" on="0"/>
        <pt x="369" y="319" on="1"/>
        <pt x="289" y="-51" on="1"/>
        <pt x="259" y="-197" on="0"/>
        <pt x="96" y="-324" on="0"/>
      </contour>
    </TTGlyph>
    <TTGlyph name="bracketleft" xMin="25" yMin="-324" xMax="764" yMax="1462">
      <contour>
        <pt x="383" y="-324" on="1"/>
        <pt x="25" y="-324" on="1"/>
        <pt x="406" y="1462" on="1"/>
        <pt x="764" y="1462" on="1"/>
        <pt x="743" y="1372" on="1"/>
        <pt x="481" y="1372" on="1"/>
        <pt x="139" y="-233" on="1"/>
        <pt x="403" y="-233" on="1"/>
      </contour>
    </TTGlyph>
    <TTGlyph name="bracketright" xMin="-63" yMin="-324" xMax="674" yMax="1462">
      <contour>
        <pt x="-43" y="-233" on="1"/>
        <pt x="217" y="-233" on="1"/>
        <pt x="559" y="1372" on="1"/>
        <pt x="295" y="1372" on="1"/>
        <pt x="315" y="1462" on="1"/>
        <pt x="674" y="1462" on="1"/>
        <pt x="293" y="-324" on="1"/>
        <pt x="-63" y="-324" on="1"/>
      </contour>
    </TTGlyph>
    <TTGlyph name="breve" xMin="487" yMin="1241" xMax="883" yMax="1479">
      <contour>
        <pt x="883" y="1479" on="1"/>
        <pt x="861" y="1366" on="0"/>
        <pt x="756" y="1241" on="0"/>
        <pt x="659" y="1241" on="1"/>
        <pt x="578" y="1241" on="0"/>
        <pt x="487" y="1335" on="0"/>
        <pt x="487" y="1421" on="1"/>
        <pt x="487" y="1459" on="0"/>
        <pt x="492" y="1479" on="1"/>
        <pt x="559" y="1479" on="1"/>
        <pt x="557" y="1464" on="1"/>
        <pt x="557" y="1448" on="1"/>
        <pt x="557" y="1386" on="0"/>
        <pt x="619" y="1331" on="0"/>
        <pt x="666" y="1331" on="1"/>
        <pt x="720" y="1331" on="0"/>
        <pt x="788" y="1400" on="0"/>
        <pt x="813" y="1479" on="1"/>
      </contour>
    </TTGlyph>
    <TTGlyph name="breveacutecomb" xMin="-614" yMin="1245" xMax="-166" yMax="1718">
      <contour>
        <pt x="-174" y="1479" on="1"/>
        <pt x="-203" y="1357" on="0"/>
        <pt x="-329" y="1245" on="0"/>
        <pt x="-426" y="1245" on="1"/>
        <pt x="-519" y="1245" on="0"/>
        <pt x="-614" y="1343" on="0"/>
        <pt x="-614" y="1430" on="1"/>
        <pt x="-610" y="1479" on="1"/>
        <pt x="-547" y="1479" on="1"/>
        <pt x="-547" y="1454" on="1"/>
        <pt x="-547" y="1329" on="0"/>
        <pt x="-420" y="1329" on="1"/>
        <pt x="-354" y="1329" on="0"/>
        <pt x="-271" y="1398" on="0"/>
        <pt x="-242" y="1479" on="1"/>
      </contour>
      <contour>
        <pt x="-438" y="1489" on="1"/>
        <pt x="-438" y="1509" on="1"/>
        <pt x="-394" y="1558" on="0"/>
        <pt x="-297" y="1683" on="0"/>
        <pt x="-276" y="1718" on="1"/>
        <pt x="-166" y="1718" on="1"/>
        <pt x="-166" y="1702" on="1"/>
        <pt x="-262" y="1582" on="0"/>
        <pt x="-391" y="1489" on="1"/>
      </contour>
    </TTGlyph>
    <TTGlyph name="brevegravecomb" xMin="-614" yMin="1245" xMax="-174" yMax="1720">
      <contour>
        <pt x="-174" y="1479" on="1"/>
        <pt x="-203" y="1357" on="0"/>
        <pt x="-329" y="1245" on="0"/>
        <pt x="-426" y="1245" on="1"/>
        <pt x="-519" y="1245" on="0"/>
        <pt x="-614" y="1343" on="0"/>
        <pt x="-614" y="1430" on="1"/>
        <pt x="-610" y="1479" on="1"/>
        <pt x="-547" y="1479" on="1"/>
        <pt x="-547" y="1454" on="1"/>
        <pt x="-547" y="1329" on="0"/>
        <pt x="-420" y="1329" on="1"/>
        <pt x="-354" y="1329" on="0"/>
        <pt x="-271" y="1398" on="0"/>
        <pt x="-242" y="1479" on="1"/>
      </contour>
      <contour>
        <pt x="-401" y="1491" on="1"/>
        <pt x="-488" y="1578" on="0"/>
        <pt x="-539" y="1704" on="1"/>
        <pt x="-539" y="1720" on="1"/>
        <pt x="-418" y="1720" on="1"/>
        <pt x="-414" y="1676" on="0"/>
        <pt x="-376" y="1554" on="0"/>
        <pt x="-354" y="1511" on="1"/>
        <pt x="-354" y="1491" on="1"/>
      </contour>
    </TTGlyph>
    <TTGlyph name="brevehookcomb" xMin="-614" yMin="1245" xMax="-174" yMax="1794">
      <contour>
        <pt x="-174" y="1479" on="1"/>
        <pt x="-203" y="1357" on="0"/>
        <pt x="-329" y="1245" on="0"/>
        <pt x="-426" y="1245" on="1"/>
        <pt x="-519" y="1245" on="0"/>
        <pt x="-614" y="1343" on="0"/>
        <pt x="-614" y="1430" on="1"/>
        <pt x="-610" y="1479" on="1"/>
        <pt x="-547" y="1479" on="1"/>
        <pt x="-547" y="1454" on="1"/>
        <pt x="-547" y="1329" on="0"/>
        <pt x="-420" y="1329" on="1"/>
        <pt x="-354" y="1329" on="0"/>
        <pt x="-271" y="1398" on="0"/>
        <pt x="-242" y="1479" on="1"/>
      </contour>
      <contour>
        <pt x="-231" y="1677" on="1"/>
        <pt x="-231" y="1615" on="0"/>
        <pt x="-302" y="1540" on="0"/>
        <pt x="-362" y="1538" on="1"/>
        <pt x="-381" y="1477" on="1"/>
        <pt x="-438" y="1477" on="1"/>
        <pt x="-420" y="1587" on="1"/>
        <pt x="-352" y="1587" on="0"/>
        <pt x="-303" y="1625" on="0"/>
        <pt x="-303" y="1667" on="1"/>
        <pt x="-303" y="1724" on="0"/>
        <pt x="-371" y="1724" on="1"/>
        <pt x="-402" y="1724" on="0"/>
        <pt x="-424" y="1716" on="1"/>
        <pt x="-424" y="1782" on="1"/>
        <pt x="-381" y="1794" on="0"/>
        <pt x="-346" y="1794" on="1"/>
        <pt x="-231" y="1794" on="0"/>
      </contour>
    </TTGlyph>
    <TTGlyph name="brevetildecomb" xMin="-637" yMin="1245" xMax="-82" yMax="1782">
      <contour>
        <pt x="-174" y="1479" on="1"/>
        <pt x="-203" y="1357" on="0"/>
        <pt x="-329" y="1245" on="0"/>
        <pt x="-426" y="1245" on="1"/>
        <pt x="-519" y="1245" on="0"/>
        <pt x="-614" y="1343" on="0"/>
        <pt x="-614" y="1430" on="1"/>
        <pt x="-610" y="1479" on="1"/>
        <pt x="-547" y="1479" on="1"/>
        <pt x="-547" y="1454" on="1"/>
        <pt x="-547" y="1329" on="0"/>
        <pt x="-420" y="1329" on="1"/>
        <pt x="-354" y="1329" on="0"/>
        <pt x="-271" y="1398" on="0"/>
        <pt x="-242" y="1479" on="1"/>
      </contour>
      <contour>
        <pt x="-240" y="1563" on="1"/>
        <pt x="-275" y="1563" on="0"/>
        <pt x="-334" y="1601" on="0"/>
        <pt x="-389" y="1648" on="0"/>
        <pt x="-440" y="1686" on="0"/>
        <pt x="-465" y="1686" on="1"/>
        <pt x="-505" y="1686" on="0"/>
        <pt x="-550" y="1624" on="0"/>
        <pt x="-567" y="1561" on="1"/>
        <pt x="-637" y="1561" on="1"/>
        <pt x="-580" y="1778" on="0"/>
        <pt x="-457" y="1778" on="1"/>
        <pt x="-421" y="1778" on="0"/>
        <pt x="-363" y="1740" on="0"/>
        <pt x="-312" y="1693" on="0"/>
        <pt x="-264" y="1655" on="0"/>
        <pt x="-240" y="1655" on="1"/>
        <pt x="-208" y="1655" on="0"/>
        <pt x="-174" y="1698" on="0"/>
        <pt x="-152" y="1782" on="1"/>
        <pt x="-82" y="1782" on="1"/>
        <pt x="-109" y="1655" on="0"/>
        <pt x="-182" y="1563" on="0"/>
      </contour>
    </TTGlyph>
    <TTGlyph name="brokenbar" xMin="133" yMin="-492" xMax="659" yMax="1556">
      <contour>
        <pt x="492" y="758" on="1"/>
        <pt x="399" y="758" on="1"/>
        <pt x="567" y="1556" on="1"/>
        <pt x="659" y="1556" on="1"/>
      </contour>
      <contour>
        <pt x="225" y="-492" on="1"/>
        <pt x="133" y="-492" on="1"/>
        <pt x="303" y="307" on="1"/>
        <pt x="395" y="307" on="1"/>
      </contour>
    </TTGlyph>
    <TTGlyph name="bullet" xMin="211" yMin="506" xMax="645" yMax="989">
      <contour>
        <pt x="211" y="748" on="1"/>
        <pt x="211" y="868" on="0"/>
        <pt x="324" y="989" on="0"/>
        <pt x="428" y="989" on="1"/>
        <pt x="532" y="989" on="0"/>
        <pt x="645" y="868" on="0"/>
        <pt x="645" y="748" on="1"/>
        <pt x="645" y="630" on="0"/>
        <pt x="532" y="506" on="0"/>
        <pt x="428" y="506" on="1"/>
        <pt x="325" y="506" on="0"/>
        <pt x="211" y="630" on="0"/>
      </contour>
    </TTGlyph>
    <TTGlyph name="c" xMin="119" yMin="-20" xMax="713" yMax="1106">
      <contour>
        <pt x="358" y="-20" on="1"/>
        <pt x="242" y="-20" on="0"/>
        <pt x="119" y="140" on="0"/>
        <pt x="119" y="291" on="1"/>
        <pt x="119" y="508" on="0"/>
        <pt x="245" y="901" on="0"/>
        <pt x="445" y="1106" on="0"/>
        <pt x="569" y="1106" on="1"/>
        <pt x="655" y="1106" on="0"/>
        <pt x="713" y="1073" on="1"/>
        <pt x="674" y="987" on="1"/>
        <pt x="621" y="1016" on="0"/>
        <pt x="561" y="1016" on="1"/>
        <pt x="469" y="1016" on="0"/>
        <pt x="316" y="822" on="0"/>
        <pt x="217" y="462" on="0"/>
        <pt x="217" y="289" on="1"/>
        <pt x="217" y="66" on="0"/>
        <pt x="377" y="66" on="1"/>
        <pt x="440" y="66" on="0"/>
        <pt x="520" y="106" on="1"/>
        <pt x="520" y="20" on="1"/>
        <pt x="445" y="-20" on="0"/>
      </contour>
    </TTGlyph>
    <TTGlyph name="cacute" xMin="119" yMin="-20" xMax="804" yMax="1569">
      <component glyphName="c" x="0" y="0" flags="0x204"/>
      <component glyphName="acute" x="-58" y="0" flags="0x4"/>
    </TTGlyph>
    <TTGlyph name="caron" xMin="481" yMin="1241" xMax="922" yMax="1569">
      <contour>
        <pt x="532" y="1569" on="1"/>
        <pt x="564" y="1521" on="0"/>
        <pt x="657" y="1366" on="1"/>
        <pt x="792" y="1501" on="0"/>
        <pt x="877" y="1569" on="1"/>
        <pt x="922" y="1569" on="1"/>
        <pt x="918" y="1550" on="1"/>
        <pt x="863" y="1490" on="0"/>
        <pt x="713" y="1298" on="0"/>
        <pt x="678" y="1241" on="1"/>
        <pt x="592" y="1241" on="1"/>
        <pt x="580" y="1293" on="0"/>
        <pt x="511" y="1485" on="0"/>
        <pt x="481" y="1550" on="1"/>
        <pt x="485" y="1569" on="1"/>
      </contour>
    </TTGlyph>
    <TTGlyph name="caroncommaaccent" xMin="492" yMin="1229" xMax="713" yMax="1556">
      <contour>
        <pt x="492" y="1245" on="1"/>
        <pt x="574" y="1449" on="0"/>
        <pt x="606" y="1556" on="1"/>
        <pt x="713" y="1556" on="1"/>
        <pt x="713" y="1536" on="1"/>
        <pt x="690" y="1476" on="0"/>
        <pt x="572" y="1277" on="0"/>
        <pt x="532" y="1229" on="1"/>
        <pt x="492" y="1229" on="1"/>
      </contour>
    </TTGlyph>
    <TTGlyph name="ccaron" xMin="119" yMin="-20" xMax="857" yMax="1569">
      <component glyphName="c" x="0" y="0" flags="0x204"/>
      <component glyphName="caron" x="-65" y="0" flags="0x4"/>
    </TTGlyph>
    <TTGlyph name="ccedilla" xMin="71" yMin="-492" xMax="713" yMax="1106">
      <component glyphName="c" x="0" y="0" flags="0x204"/>
      <component glyphName="cedilla" x="98" y="0" flags="0x4"/>
    </TTGlyph>
    <TTGlyph name="ccircumflex" xMin="119" yMin="-20" xMax="759" yMax="1569">
      <component glyphName="c" x="0" y="0" flags="0x204"/>
      <component glyphName="circumflex" x="-95" y="0" flags="0x4"/>
    </TTGlyph>
    <TTGlyph name="cdot" xMin="119" yMin="-20" xMax="713" yMax="1481">
      <component glyphName="c" x="0" y="0" flags="0x204"/>
      <component glyphName="dotaccent" x="233" y="0" flags="0x4"/>
    </TTGlyph>
    <TTGlyph name="cedilla" xMin="-27" yMin="-492" xMax="330" yMax="0">
      <contour>
        <pt x="330" y="-266" on="1"/>
        <pt x="330" y="-366" on="0"/>
        <pt x="193" y="-492" on="0"/>
        <pt x="82" y="-492" on="1"/>
        <pt x="58" y="-492" on="0"/>
        <pt x="-14" y="-485" on="0"/>
        <pt x="-27" y="-481" on="1"/>
        <pt x="-27" y="-403" on="1"/>
        <pt x="-1" y="-414" on="0"/>
        <pt x="76" y="-414" on="1"/>
        <pt x="154" y="-414" on="0"/>
        <pt x="242" y="-341" on="0"/>
        <pt x="242" y="-279" on="1"/>
        <pt x="242" y="-234" on="0"/>
        <pt x="172" y="-176" on="0"/>
        <pt x="90" y="-160" on="1"/>
        <pt x="193" y="0" on="1"/>
        <pt x="274" y="0" on="1"/>
        <pt x="195" y="-115" on="1"/>
        <pt x="260" y="-133" on="0"/>
        <pt x="330" y="-214" on="0"/>
      </contour>
    </TTGlyph>
    <TTGlyph name="cent" xMin="193" yMin="-20" xMax="786" yMax="1483">
      <contour>
        <pt x="301" y="-20" on="1"/>
        <pt x="348" y="199" on="1"/>
        <pt x="193" y="243" on="0"/>
        <pt x="193" y="487" on="1"/>
        <pt x="193" y="683" on="0"/>
        <pt x="298" y="1055" on="0"/>
        <pt x="473" y="1283" on="0"/>
        <pt x="584" y="1309" on="1"/>
        <pt x="621" y="1483" on="1"/>
        <pt x="705" y="1483" on="1"/>
        <pt x="670" y="1313" on="1"/>
        <pt x="740" y="1307" on="0"/>
        <pt x="786" y="1282" on="1"/>
        <pt x="748" y="1196" on="1"/>
        <pt x="695" y="1225" on="0"/>
        <pt x="635" y="1225" on="1"/>
        <pt x="542" y="1225" on="0"/>
        <pt x="389" y="1025" on="0"/>
        <pt x="291" y="660" on="0"/>
        <pt x="291" y="489" on="1"/>
        <pt x="291" y="374" on="0"/>
        <pt x="366" y="274" on="0"/>
        <pt x="438" y="274" on="1"/>
        <pt x="483" y="274" on="0"/>
        <pt x="548" y="301" on="0"/>
        <pt x="571" y="313" on="1"/>
        <pt x="594" y="229" on="1"/>
        <pt x="568" y="213" on="0"/>
        <pt x="476" y="190" on="0"/>
        <pt x="430" y="188" on="1"/>
        <pt x="385" y="-20" on="1"/>
      </contour>
    </TTGlyph>
    <TTGlyph name="chi" xMin="-174" yMin="-492" xMax="758" yMax="1098">
      <contour>
        <pt x="362" y="498" on="1"/>
        <pt x="657" y="1085" on="1"/>
        <pt x="758" y="1085" on="1"/>
        <pt x="362" y="332" on="1"/>
        <pt x="362" y="-250" on="1"/>
        <pt x="362" y="-330" on="0"/>
        <pt x="382" y="-406" on="0"/>
        <pt x="420" y="-406" on="1"/>
        <pt x="447" y="-406" on="0"/>
        <pt x="469" y="-395" on="1"/>
        <pt x="469" y="-475" on="1"/>
        <pt x="429" y="-492" on="0"/>
        <pt x="393" y="-492" on="1"/>
        <pt x="328" y="-492" on="0"/>
        <pt x="272" y="-391" on="0"/>
        <pt x="272" y="-279" on="1"/>
        <pt x="272" y="180" on="1"/>
        <pt x="-72" y="-492" on="1"/>
        <pt x="-174" y="-492" on="1"/>
        <pt x="272" y="354" on="1"/>
        <pt x="274" y="844" on="1"/>
        <pt x="274" y="953" on="0"/>
        <pt x="251" y="1012" on="0"/>
        <pt x="221" y="1012" on="1"/>
        <pt x="192" y="1012" on="0"/>
        <pt x="170" y="1001" on="1"/>
        <pt x="170" y="1085" on="1"/>
        <pt x="198" y="1098" on="0"/>
        <pt x="250" y="1098" on="1"/>
        <pt x="312" y="1098" on="0"/>
        <pt x="362" y="1016" on="0"/>
        <pt x="362" y="903" on="1"/>
      </contour>
    </TTGlyph>
    <TTGlyph name="circumflex" xMin="414" yMin="1241" xMax="854" yMax="1569">
      <contour>
        <pt x="803" y="1241" on="1"/>
        <pt x="744" y="1329" on="0"/>
        <pt x="678" y="1444" on="1"/>
        <pt x="546" y="1312" on="0"/>
        <pt x="459" y="1241" on="1"/>
        <pt x="414" y="1241" on="1"/>
        <pt x="418" y="1260" on="1"/>
        <pt x="578" y="1442" on="0"/>
        <pt x="657" y="1569" on="1"/>
        <pt x="743" y="1569" on="1"/>
        <pt x="754" y="1518" on="0"/>
        <pt x="827" y="1319" on="0"/>
        <pt x="854" y="1260" on="1"/>
        <pt x="850" y="1241" on="1"/>
      </contour>
    </TTGlyph>
    <TTGlyph name="circumflexacutecomb" xMin="-649" yMin="1247" xMax="43" yMax="1663">
      <contour>
        <pt x="-229" y="1434" on="1"/>
        <pt x="-229" y="1454" on="1"/>
        <pt x="-123" y="1570" on="0"/>
        <pt x="-68" y="1663" on="1"/>
        <pt x="43" y="1663" on="1"/>
        <pt x="43" y="1647" on="1"/>
        <pt x="-53" y="1527" on="0"/>
        <pt x="-182" y="1434" on="1"/>
      </contour>
      <contour>
        <pt x="-221" y="1247" on="1"/>
        <pt x="-276" y="1247" on="1"/>
        <pt x="-341" y="1324" on="0"/>
        <pt x="-399" y="1419" on="1"/>
        <pt x="-476" y="1345" on="0"/>
        <pt x="-600" y="1247" on="1"/>
        <pt x="-649" y="1247" on="1"/>
        <pt x="-649" y="1268" on="1"/>
        <pt x="-534" y="1390" on="0"/>
        <pt x="-442" y="1516" on="1"/>
        <pt x="-326" y="1516" on="1"/>
        <pt x="-281" y="1378" on="0"/>
        <pt x="-221" y="1268" on="1"/>
      </contour>
    </TTGlyph>
    <TTGlyph name="circumflexgravecomb" xMin="-750" yMin="1247" xMax="-221" yMax="1663">
      <contour>
        <pt x="-612" y="1434" on="1"/>
        <pt x="-699" y="1521" on="0"/>
        <pt x="-750" y="1647" on="1"/>
        <pt x="-750" y="1663" on="1"/>
        <pt x="-629" y="1663" on="1"/>
        <pt x="-625" y="1619" on="0"/>
        <pt x="-587" y="1497" on="0"/>
        <pt x="-565" y="1454" on="1"/>
        <pt x="-565" y="1434" on="1"/>
      </contour>
      <contour>
        <pt x="-221" y="1247" on="1"/>
        <pt x="-276" y="1247" on="1"/>
        <pt x="-341" y="1324" on="0"/>
        <pt x="-399" y="1419" on="1"/>
        <pt x="-476" y="1345" on="0"/>
        <pt x="-600" y="1247" on="1"/>
        <pt x="-649" y="1247" on="1"/>
        <pt x="-649" y="1268" on="1"/>
        <pt x="-534" y="1390" on="0"/>
        <pt x="-442" y="1516" on="1"/>
        <pt x="-326" y="1516" on="1"/>
        <pt x="-281" y="1378" on="0"/>
        <pt x="-221" y="1268" on="1"/>
      </contour>
    </TTGlyph>
    <TTGlyph name="circumflexhookcomb" xMin="-649" yMin="1247" xMax="-6" yMax="1763">
      <contour>
        <pt x="-6" y="1647" on="1"/>
        <pt x="-6" y="1583" on="0"/>
        <pt x="-75" y="1509" on="0"/>
        <pt x="-137" y="1507" on="1"/>
        <pt x="-158" y="1432" on="1"/>
        <pt x="-215" y="1432" on="1"/>
        <pt x="-195" y="1556" on="1"/>
        <pt x="-131" y="1556" on="0"/>
        <pt x="-78" y="1593" on="0"/>
        <pt x="-78" y="1636" on="1"/>
        <pt x="-78" y="1694" on="0"/>
        <pt x="-145" y="1694" on="1"/>
        <pt x="-177" y="1694" on="0"/>
        <pt x="-199" y="1686" on="1"/>
        <pt x="-199" y="1751" on="1"/>
        <pt x="-156" y="1763" on="0"/>
        <pt x="-121" y="1763" on="1"/>
        <pt x="-6" y="1763" on="0"/>
      </contour>
      <contour>
        <pt x="-221" y="1247" on="1"/>
        <pt x="-276" y="1247" on="1"/>
        <pt x="-341" y="1324" on="0"/>
        <pt x="-399" y="1419" on="1"/>
        <pt x="-476" y="1345" on="0"/>
        <pt x="-600" y="1247" on="1"/>
        <pt x="-649" y="1247" on="1"/>
        <pt x="-649" y="1268" on="1"/>
        <pt x="-534" y="1390" on="0"/>
        <pt x="-442" y="1516" on="1"/>
        <pt x="-326" y="1516" on="1"/>
        <pt x="-281" y="1378" on="0"/>
        <pt x="-221" y="1268" on="1"/>
      </contour>
    </TTGlyph>
    <TTGlyph name="circumflextildecomb" xMin="-649" yMin="1247" xMax="-78" yMax="1782">
      <contour>
        <pt x="-221" y="1247" on="1"/>
        <pt x="-276" y="1247" on="1"/>
        <pt x="-341" y="1324" on="0"/>
        <pt x="-399" y="1419" on="1"/>
        <pt x="-476" y="1345" on="0"/>
        <pt x="-600" y="1247" on="1"/>
        <pt x="-649" y="1247" on="1"/>
        <pt x="-649" y="1268" on="1"/>
        <pt x="-534" y="1390" on="0"/>
        <pt x="-442" y="1516" on="1"/>
        <pt x="-326" y="1516" on="1"/>
        <pt x="-281" y="1378" on="0"/>
        <pt x="-221" y="1268" on="1"/>
      </contour>
      <contour>
        <pt x="-236" y="1563" on="1"/>
        <pt x="-271" y="1563" on="0"/>
        <pt x="-330" y="1601" on="0"/>
        <pt x="-385" y="1648" on="0"/>
        <pt x="-436" y="1686" on="0"/>
        <pt x="-461" y="1686" on="1"/>
        <pt x="-501" y="1686" on="0"/>
        <pt x="-546" y="1624" on="0"/>
        <pt x="-563" y="1561" on="1"/>
        <pt x="-633" y="1561" on="1"/>
        <pt x="-576" y="1778" on="0"/>
        <pt x="-453" y="1778" on="1"/>
        <pt x="-417" y="1778" on="0"/>
        <pt x="-359" y="1740" on="0"/>
        <pt x="-308" y="1693" on="0"/>
        <pt x="-260" y="1655" on="0"/>
        <pt x="-236" y="1655" on="1"/>
        <pt x="-201" y="1655" on="0"/>
        <pt x="-168" y="1702" on="0"/>
        <pt x="-147" y="1782" on="1"/>
        <pt x="-78" y="1782" on="1"/>
        <pt x="-106" y="1652" on="0"/>
        <pt x="-179" y="1563" on="0"/>
      </contour>
    </TTGlyph>
    <TTGlyph name="colon" xMin="70" yMin="-16" xMax="420" yMax="1087">
      <contour>
        <pt x="70" y="53" on="1"/>
        <pt x="70" y="113" on="0"/>
        <pt x="124" y="197" on="0"/>
        <pt x="172" y="197" on="1"/>
        <pt x="199" y="197" on="0"/>
        <pt x="229" y="155" on="0"/>
        <pt x="229" y="121" on="1"/>
        <pt x="229" y="60" on="0"/>
        <pt x="174" y="-16" on="0"/>
        <pt x="131" y="-16" on="1"/>
        <pt x="106" y="-16" on="0"/>
        <pt x="70" y="19" on="0"/>
      </contour>
      <contour>
        <pt x="260" y="944" on="1"/>
        <pt x="260" y="1005" on="0"/>
        <pt x="316" y="1087" on="0"/>
        <pt x="362" y="1087" on="1"/>
        <pt x="393" y="1087" on="0"/>
        <pt x="420" y="1040" on="0"/>
        <pt x="420" y="1012" on="1"/>
        <pt x="420" y="952" on="0"/>
        <pt x="366" y="874" on="0"/>
        <pt x="322" y="874" on="1"/>
        <pt x="297" y="874" on="0"/>
        <pt x="260" y="910" on="0"/>
      </contour>
    </TTGlyph>
    <TTGlyph name="comma" xMin="-20" yMin="-264" xMax="289" yMax="205">
      <contour>
        <pt x="289" y="182" on="1"/>
        <pt x="187" y="-32" on="0"/>
        <pt x="45" y="-264" on="1"/>
        <pt x="-20" y="-264" on="1"/>
        <pt x="21" y="-176" on="0"/>
        <pt x="132" y="96" on="0"/>
        <pt x="166" y="205" on="1"/>
        <pt x="281" y="205" on="1"/>
      </contour>
    </TTGlyph>
    <TTGlyph name="commaaccent" xMin="274" yMin="-453" xMax="535" yMax="-125">
      <contour>
        <pt x="274" y="-422" on="1"/>
        <pt x="310" y="-374" on="0"/>
        <pt x="407" y="-194" on="0"/>
        <pt x="430" y="-125" on="1"/>
        <pt x="535" y="-125" on="1"/>
        <pt x="535" y="-147" on="1"/>
        <pt x="525" y="-190" on="0"/>
        <pt x="383" y="-401" on="0"/>
        <pt x="317" y="-453" on="1"/>
        <pt x="274" y="-453" on="1"/>
      </contour>
    </TTGlyph>
    <TTGlyph name="commaaccentrotate" xMin="483" yMin="1241" xMax="741" yMax="1569">
      <contour>
        <pt x="741" y="1550" on="1"/>
        <pt x="711" y="1515" on="0"/>
        <pt x="604" y="1306" on="0"/>
        <pt x="582" y="1241" on="1"/>
        <pt x="483" y="1241" on="1"/>
        <pt x="483" y="1262" on="1"/>
        <pt x="507" y="1326" on="0"/>
        <pt x="643" y="1524" on="0"/>
        <pt x="698" y="1569" on="1"/>
        <pt x="741" y="1569" on="1"/>
      </contour>
    </TTGlyph>
    <TTGlyph name="copyright" xMin="174" yMin="-20" xMax="1677" yMax="1483">
      <contour>
        <pt x="971" y="1092" on="1"/>
        <pt x="829" y="1092" on="0"/>
        <pt x="668" y="903" on="0"/>
        <pt x="668" y="733" on="1"/>
        <pt x="668" y="547" on="0"/>
        <pt x="817" y="369" on="0"/>
        <pt x="963" y="369" on="1"/>
        <pt x="1047" y="369" on="0"/>
        <pt x="1161" y="412" on="1"/>
        <pt x="1161" y="324" on="1"/>
        <pt x="1059" y="279" on="0"/>
        <pt x="952" y="279" on="1"/>
        <pt x="765" y="279" on="0"/>
        <pt x="563" y="511" on="0"/>
        <pt x="563" y="725" on="1"/>
        <pt x="563" y="933" on="0"/>
        <pt x="785" y="1182" on="0"/>
        <pt x="971" y="1182" on="1"/>
        <pt x="1090" y="1182" on="0"/>
        <pt x="1198" y="1130" on="1"/>
        <pt x="1161" y="1047" on="1"/>
        <pt x="1063" y="1092" on="0"/>
      </contour>
      <contour>
        <pt x="174" y="731" on="1"/>
        <pt x="174" y="931" on="0"/>
        <pt x="374" y="1281" on="0"/>
        <pt x="724" y="1483" on="0"/>
        <pt x="926" y="1483" on="1"/>
        <pt x="1125" y="1483" on="0"/>
        <pt x="1474" y="1285" on="0"/>
        <pt x="1677" y="932" on="0"/>
        <pt x="1677" y="731" on="1"/>
        <pt x="1677" y="532" on="0"/>
        <pt x="1480" y="184" on="0"/>
        <pt x="1132" y="-20" on="0"/>
        <pt x="926" y="-20" on="1"/>
        <pt x="719" y="-20" on="0"/>
        <pt x="369" y="187" on="0"/>
        <pt x="174" y="533" on="0"/>
      </contour>
      <contour>
        <pt x="266" y="731" on="1"/>
        <pt x="266" y="549" on="0"/>
        <pt x="450" y="243" on="0"/>
        <pt x="752" y="72" on="0"/>
        <pt x="926" y="72" on="1"/>
        <pt x="1104" y="72" on="0"/>
        <pt x="1407" y="249" on="0"/>
        <pt x="1585" y="553" on="0"/>
        <pt x="1585" y="731" on="1"/>
        <pt x="1585" y="905" on="0"/>
        <pt x="1414" y="1207" on="0"/>
        <pt x="1107" y="1391" on="0"/>
        <pt x="926" y="1391" on="1"/>
        <pt x="748" y="1391" on="0"/>
        <pt x="444" y="1213" on="0"/>
        <pt x="266" y="910" on="0"/>
      </contour>
    </TTGlyph>
    <TTGlyph name="currency" xMin="184" yMin="326" xMax="977" yMax="1118">
      <contour>
        <pt x="227" y="723" on="1"/>
        <pt x="227" y="841" on="0"/>
        <pt x="305" y="944" on="1"/>
        <pt x="184" y="1067" on="1"/>
        <pt x="236" y="1118" on="1"/>
        <pt x="356" y="995" on="1"/>
        <pt x="460" y="1077" on="0"/>
        <pt x="582" y="1077" on="1"/>
        <pt x="704" y="1077" on="0"/>
        <pt x="803" y="997" on="1"/>
        <pt x="924" y="1118" on="1"/>
        <pt x="977" y="1067" on="1"/>
        <pt x="856" y="946" on="1"/>
        <pt x="936" y="847" on="0"/>
        <pt x="936" y="723" on="1"/>
        <pt x="936" y="599" on="0"/>
        <pt x="856" y="500" on="1"/>
        <pt x="977" y="377" on="1"/>
        <pt x="926" y="326" on="1"/>
        <pt x="803" y="446" on="1"/>
        <pt x="700" y="369" on="0"/>
        <pt x="582" y="369" on="1"/>
        <pt x="455" y="369" on="0"/>
        <pt x="356" y="449" on="1"/>
        <pt x="238" y="326" on="1"/>
        <pt x="184" y="381" on="1"/>
        <pt x="305" y="500" on="1"/>
        <pt x="227" y="603" on="0"/>
      </contour>
      <contour>
        <pt x="309" y="723" on="1"/>
        <pt x="309" y="611" on="0"/>
        <pt x="466" y="451" on="0"/>
        <pt x="582" y="451" on="1"/>
        <pt x="698" y="451" on="0"/>
        <pt x="854" y="612" on="0"/>
        <pt x="854" y="723" on="1"/>
        <pt x="854" y="836" on="0"/>
        <pt x="695" y="995" on="0"/>
        <pt x="582" y="995" on="1"/>
        <pt x="468" y="995" on="0"/>
        <pt x="309" y="836" on="0"/>
      </contour>
    </TTGlyph>
    <TTGlyph name="cyrillicbighookLC" xMin="-2" yMin="-352" xMax="315" yMax="86">
      <contour>
        <pt x="209" y="86" on="1"/>
        <pt x="315" y="86" on="1"/>
        <pt x="264" y="-156" on="1"/>
        <pt x="243" y="-259" on="0"/>
        <pt x="157" y="-352" on="0"/>
        <pt x="80" y="-352" on="1"/>
        <pt x="27" y="-352" on="0"/>
        <pt x="-2" y="-336" on="1"/>
        <pt x="-2" y="-256" on="1"/>
        <pt x="32" y="-274" on="0"/>
        <pt x="74" y="-274" on="1"/>
        <pt x="114" y="-274" on="0"/>
        <pt x="161" y="-223" on="0"/>
        <pt x="176" y="-158" on="1"/>
        <pt x="209" y="0" on="1"/>
        <pt x="190" y="0" on="1"/>
      </contour>
    </TTGlyph>
    <TTGlyph name="cyrillicbighookUC" xMin="-12" yMin="-352" xMax="324" yMax="94">
      <contour>
        <pt x="209" y="94" on="1"/>
        <pt x="324" y="94" on="1"/>
        <pt x="272" y="-158" on="1"/>
        <pt x="254" y="-249" on="0"/>
        <pt x="155" y="-352" on="0"/>
        <pt x="80" y="-352" on="1"/>
        <pt x="29" y="-352" on="0"/>
        <pt x="-12" y="-336" on="1"/>
        <pt x="-12" y="-256" on="1"/>
        <pt x="30" y="-274" on="0"/>
        <pt x="70" y="-274" on="1"/>
        <pt x="113" y="-274" on="0"/>
        <pt x="163" y="-221" on="0"/>
        <pt x="174" y="-164" on="1"/>
        <pt x="207" y="0" on="1"/>
        <pt x="188" y="0" on="1"/>
      </contour>
    </TTGlyph>
</ttFont>
